<svg width="615" height="410" viewBox="0 0 615 410" fill="none" xmlns="http://www.w3.org/2000/svg">
<path d="M512.14 53.4673H465.604V141.2H512.14V53.4673Z" fill="#E6E6E6"/>
<path d="M509.857 53.4673H455.191V141.2H509.857V53.4673Z" fill="#F0F0F0"/>
<path d="M501.522 61.2598H463.5V133.407H501.522V61.2598Z" fill="white"/>
<path d="M490.376 82.7773H475.594V110.819H490.376V82.7773Z" fill="#EBEBEB"/>
<path d="M148.021 53.4673H101.484V141.2H148.021V53.4673Z" fill="#E6E6E6"/>
<path d="M145.738 53.4673H91.0723V141.2H145.738V53.4673Z" fill="#F0F0F0"/>
<path d="M137.403 61.2598H99.3809V133.407H137.403V61.2598Z" fill="white"/>
<path d="M126.257 82.7773H111.475V110.819H126.257V82.7773Z" fill="#EBEBEB"/>
<path d="M552.46 264.316H404.248C401.598 264.316 399.441 262.16 399.441 259.51V43.6257C399.441 40.9754 401.598 38.8188 404.248 38.8188H552.46C555.11 38.8188 557.267 40.9746 557.267 43.6257V259.51C557.267 262.161 555.11 264.316 552.46 264.316ZM404.248 39.0238C401.71 39.0238 399.646 41.0878 399.646 43.6257V259.51C399.646 262.047 401.711 264.111 404.248 264.111H552.46C554.998 264.111 557.062 262.047 557.062 259.51V43.6257C557.062 41.0886 554.997 39.0238 552.46 39.0238H404.248Z" fill="#E0E0E0"/>
<path d="M381.55 264.316H233.338C230.688 264.316 228.531 262.16 228.531 259.51V43.6257C228.531 40.9754 230.687 38.8188 233.338 38.8188H381.551C384.201 38.8188 386.357 40.9746 386.357 43.6257V259.51C386.357 262.161 384.2 264.316 381.55 264.316ZM233.338 39.0238C230.801 39.0238 228.736 41.0878 228.736 43.6257V259.51C228.736 262.047 230.801 264.111 233.338 264.111H381.551C384.089 264.111 386.152 262.047 386.152 259.51V43.6257C386.152 41.0886 384.088 39.0238 381.551 39.0238H233.338Z" fill="#E0E0E0"/>
<path d="M210.749 264.316H62.5373C59.8871 264.316 57.7305 262.16 57.7305 259.51V43.6257C57.7305 40.9754 59.8862 38.8188 62.5373 38.8188H210.749C213.399 38.8188 215.556 40.9746 215.556 43.6257V259.51C215.557 262.161 213.4 264.316 210.749 264.316ZM62.5373 39.0238C60.0002 39.0238 57.9355 41.0878 57.9355 43.6257V259.51C57.9355 262.047 60.0002 264.111 62.5373 264.111H210.749C213.287 264.111 215.351 262.047 215.351 259.51V43.6257C215.351 41.0886 213.286 39.0238 210.749 39.0238H62.5373Z" fill="#E0E0E0"/>
<path d="M615 314.394H0V314.492H615V314.394Z" fill="#E0E0E0"/>
<path d="M581.67 338.482H535.973V338.827H581.67V338.482Z" fill="#EBEBEB"/>
<path d="M417.93 342.226H405.936V342.571H417.93V342.226Z" fill="#EBEBEB"/>
<path d="M92.9208 327.988H33.3281V328.334H92.9208V327.988Z" fill="#EBEBEB"/>
<path d="M113.943 327.988H105.205V328.334H113.943V327.988Z" fill="#EBEBEB"/>
<path d="M271.583 333.813H142.34V334.159H271.583V333.813Z" fill="#EBEBEB"/>
<path d="M195.554 91.2126C193.498 94.3425 192.116 97.7808 191.379 101.328L185.731 101.86L185.73 112.799L191.379 113.331C192.115 116.877 193.498 120.315 195.554 123.447L191.946 127.804L199.681 135.539L204.039 131.932C207.169 133.988 210.608 135.37 214.153 136.106L214.685 141.755L225.623 141.754L226.156 136.106C229.702 135.37 233.14 133.987 236.271 131.931L240.629 135.539L248.364 127.803L244.757 123.446C246.811 120.315 248.194 116.877 248.93 113.331L254.578 112.799L254.579 101.86L248.931 101.328C248.195 97.7824 246.811 94.3442 244.757 91.2142L248.364 86.8568L240.629 79.1217L236.271 82.7289C233.14 80.6731 229.702 79.2898 226.156 78.5543L225.624 72.9053L214.685 72.9061L214.154 78.5551C210.608 79.2914 207.17 80.6731 204.039 82.7289L199.681 79.1209L191.946 86.8559L195.554 91.2126ZM230.627 96.8583C236.41 102.641 236.41 112.018 230.627 117.801C224.844 123.585 215.467 123.584 209.684 117.801C203.901 112.018 203.902 102.642 209.685 96.8583C215.467 91.0757 224.843 91.0757 230.627 96.8583Z" fill="#EBEBEB"/>
<path d="M216.898 223.165C215.87 224.73 215.18 226.448 214.812 228.221L211.988 228.486V233.953L214.812 234.219C215.18 235.991 215.87 237.71 216.898 239.274L215.094 241.452L218.961 245.318L221.139 243.515C222.703 244.543 224.422 245.234 226.194 245.601L226.46 248.425H231.927L232.192 245.602C233.964 245.234 235.683 244.543 237.248 243.516L239.425 245.319L243.292 241.453L241.489 239.275C242.516 237.711 243.206 235.992 243.575 234.22L246.397 233.954V228.487L243.574 228.221C243.206 226.449 242.514 224.731 241.488 223.166L243.291 220.988L239.425 217.123L237.247 218.926C235.682 217.898 233.963 217.207 232.191 216.84L231.926 214.017H226.459L226.193 216.84C224.421 217.208 222.702 217.898 221.138 218.926L218.96 217.123L215.094 220.989L216.898 223.165ZM234.427 225.987C237.316 228.877 237.317 233.564 234.427 236.453C231.536 239.344 226.85 239.344 223.96 236.453C221.07 233.563 221.07 228.877 223.96 225.987C226.851 223.096 231.536 223.096 234.427 225.987Z" fill="#EBEBEB"/>
<path d="M61.0555 166.101C59.4327 168.571 58.3413 171.286 57.7599 174.085L53.3008 174.505V183.14L57.7599 183.56C58.3405 186.36 59.4327 189.073 61.0547 191.545L58.2068 194.985L64.3134 201.091L67.7533 198.243C70.2248 199.866 72.939 200.957 75.7376 201.538L76.1575 205.997L84.7929 205.996L85.2127 201.538C88.0122 200.957 90.7264 199.865 93.1979 198.242L96.6378 201.09L102.744 194.984L99.8965 191.545C101.518 189.073 102.61 186.359 103.191 183.56L107.65 183.14L107.65 174.505L103.191 174.084C102.61 171.286 101.518 168.571 99.8956 166.1L102.743 162.66L96.6378 156.554L93.1979 159.402C90.7264 157.779 88.0122 156.688 85.2135 156.107L84.7937 151.647H76.1583L75.7384 156.107C72.939 156.688 70.2256 157.779 67.7541 159.401L64.3142 156.554L58.2077 162.66L61.0555 166.101ZM88.742 170.557C93.3061 175.122 93.3069 182.524 88.742 187.089C84.1762 191.654 76.7749 191.654 72.21 187.089C67.645 182.524 67.645 175.122 72.21 170.557C76.7749 165.993 84.1762 165.992 88.742 170.557Z" fill="#EBEBEB"/>
<path d="M530.45 148.456C529.69 149.613 529.179 150.884 528.907 152.193L526.82 152.39V156.432L528.907 156.629C529.179 157.939 529.69 159.209 530.45 160.366L529.116 161.976L531.974 164.833L533.584 163.501C534.741 164.26 536.011 164.771 537.32 165.043L537.517 167.129H541.559L541.756 165.043C543.066 164.77 544.336 164.259 545.493 163.5L547.103 164.833L549.961 161.975L548.628 160.365C549.388 159.208 549.898 157.938 550.171 156.628L552.258 156.431V152.389L550.171 152.192C549.898 150.882 549.388 149.612 548.628 148.456L549.961 146.845L547.103 143.987L545.493 145.321C544.336 144.561 543.066 144.051 541.757 143.778L541.56 141.691H537.518L537.321 143.778C536.011 144.051 534.741 144.561 533.584 145.321L531.974 143.987L529.116 146.845L530.45 148.456ZM543.408 150.542C545.544 152.679 545.544 156.142 543.408 158.279C541.271 160.416 537.807 160.416 535.671 158.279C533.534 156.142 533.534 152.679 535.671 150.542C537.807 148.406 541.271 148.406 543.408 150.542Z" fill="#EBEBEB"/>
<path d="M376.33 97.9079C375.571 99.0641 375.06 100.335 374.788 101.645L372.701 101.841V105.883L374.788 106.08C375.06 107.39 375.571 108.661 376.33 109.818L374.997 111.427L377.855 114.285L379.465 112.952C380.622 113.711 381.892 114.222 383.201 114.494L383.398 116.581H387.44L387.637 114.494C388.947 114.222 390.217 113.711 391.374 112.952L392.984 114.285L395.842 111.427L394.509 109.818C395.268 108.661 395.779 107.39 396.051 106.081L398.138 105.884V101.842L396.051 101.645C395.779 100.335 395.268 99.0649 394.509 97.9087L395.842 96.2982L392.984 93.4405L391.374 94.7739C390.217 94.0145 388.947 93.5037 387.637 93.2314L387.441 91.1445H383.399L383.202 93.2314C381.892 93.5037 380.622 94.0137 379.465 94.7739L377.855 93.4405L374.997 96.2982L376.33 97.9079ZM389.288 99.994C391.424 102.131 391.425 105.595 389.288 107.731C387.151 109.868 383.687 109.868 381.551 107.731C379.414 105.595 379.415 102.131 381.551 99.994C383.688 97.8571 387.152 97.8571 389.288 99.994Z" fill="#F5F5F5"/>
<path d="M105.842 213.908C105.083 215.064 104.572 216.335 104.3 217.645L102.213 217.842V221.884L104.3 222.081C104.572 223.391 105.083 224.661 105.842 225.818L104.509 227.428L107.367 230.286L108.976 228.952C110.133 229.712 111.403 230.222 112.713 230.495L112.91 232.582H116.952L117.148 230.495C118.459 230.222 119.729 229.712 120.886 228.952L122.496 230.286L125.353 227.428L124.02 225.817C124.779 224.66 125.29 223.39 125.562 222.081L127.649 221.884V217.842L125.562 217.645C125.29 216.335 124.779 215.065 124.02 213.909L125.353 212.298L122.496 209.44L120.886 210.773C119.729 210.014 118.459 209.503 117.149 209.23L116.952 207.144H112.911L112.714 209.23C111.403 209.503 110.133 210.013 108.977 210.773L107.367 209.44L104.509 212.297L105.842 213.908ZM118.801 215.994C120.937 218.131 120.938 221.595 118.801 223.731C116.664 225.868 113.199 225.868 111.063 223.731C108.926 221.594 108.926 218.131 111.063 215.994C113.199 213.858 116.664 213.857 118.801 215.994Z" fill="#F5F5F5"/>
<path d="M471.497 164.757C470.191 166.745 469.314 168.928 468.846 171.18L465.26 171.518V178.464L468.847 178.802C469.315 181.054 470.193 183.237 471.498 185.225L469.206 187.992L474.118 192.904L476.885 190.613C478.873 191.918 481.056 192.795 483.308 193.263L483.646 196.849L490.592 196.849L490.93 193.263C493.182 192.795 495.365 191.917 497.353 190.613L500.12 192.904L505.031 187.992L502.74 185.225C504.045 183.237 504.923 181.054 505.391 178.802L508.976 178.464L508.977 171.518L505.391 171.18C504.923 168.928 504.045 166.746 502.74 164.758L505.031 161.991L500.119 157.079L497.352 159.371C495.364 158.065 493.181 157.187 490.929 156.719L490.591 153.133H483.645L483.307 156.719C481.055 157.187 478.873 158.064 476.885 159.37L474.118 157.079L469.206 161.99L471.497 164.757ZM493.767 168.342C497.438 172.014 497.439 177.968 493.767 181.64C490.094 185.312 484.141 185.312 480.469 181.64C476.797 177.968 476.797 172.015 480.469 168.342C484.141 164.67 490.094 164.67 493.767 168.342Z" fill="#EBEBEB"/>
<path d="M333.446 203.702C332.131 205.706 331.246 207.906 330.775 210.175L327.16 210.516V217.516L330.776 217.856C331.246 220.125 332.131 222.325 333.447 224.329L331.138 227.118L336.087 232.068L338.876 229.759C340.88 231.075 343.08 231.96 345.349 232.43L345.69 236.046L352.69 236.045L353.03 232.43C355.3 231.959 357.5 231.074 359.503 229.759L362.292 232.067L367.243 227.117L364.934 224.329C366.25 222.325 367.134 220.125 367.605 217.856L371.22 217.515L371.22 210.515L367.606 210.174C367.134 207.905 366.25 205.705 364.934 203.702L367.243 200.913L362.293 195.963L359.504 198.271C357.5 196.956 355.3 196.071 353.031 195.6L352.691 191.985H345.691L345.35 195.6C343.081 196.071 340.88 196.955 338.877 198.271L336.088 195.962L331.139 200.913L333.446 203.702ZM355.89 207.314C359.591 211.015 359.591 217.016 355.89 220.716C352.19 224.417 346.189 224.417 342.488 220.716C338.788 217.016 338.788 211.016 342.488 207.314C346.19 203.615 352.19 203.614 355.89 207.314Z" fill="#EBEBEB"/>
<path d="M353.962 269.683C351.755 273.044 350.271 276.737 349.479 280.546L343.413 281.117L343.412 292.865L349.479 293.436C350.27 297.244 351.754 300.937 353.962 304.299L350.088 308.978L358.394 317.285L363.074 313.41C366.436 315.618 370.129 317.103 373.937 317.893L374.508 323.959L386.255 323.958L386.827 317.893C390.636 317.101 394.328 315.617 397.69 313.41L402.37 317.284L410.678 308.978L406.803 304.298C409.01 300.936 410.495 297.243 411.285 293.435L417.351 292.864L417.351 281.116L411.286 280.545C410.495 276.737 409.01 273.045 406.803 269.683L410.678 265.003L402.371 256.697L397.691 260.571C394.328 258.364 390.636 256.878 386.829 256.088L386.257 250.022L374.51 250.023L373.938 256.089C370.13 256.88 366.438 258.364 363.076 260.572L358.396 256.698L350.089 265.005L353.962 269.683ZM391.627 275.745C397.837 281.956 397.837 292.026 391.627 298.236C385.417 304.446 375.347 304.446 369.136 298.236C362.926 292.025 362.926 281.956 369.136 275.745C375.348 269.536 385.417 269.536 391.627 275.745Z" fill="#EBEBEB"/>
<path d="M574.42 367.683C574.42 370.46 458.587 372.711 315.699 372.711C172.812 372.711 56.9785 370.46 56.9785 367.683C56.9785 364.906 172.812 362.655 315.699 362.655C458.587 362.655 574.42 364.906 574.42 367.683Z" fill="#F5F5F5"/>
<path d="M96.0057 224.808C81.0522 242.299 76.6848 268.191 85.0734 289.619C94.3936 281.301 100.957 268.621 101.372 257.531C101.788 246.441 98.8847 235.525 96.0057 224.808Z" fill="#FFB800"/>
<path d="M93.3958 291.64C88.3217 299.415 85.8936 308.882 86.598 318.139C94.6816 315.324 101.808 306.193 106.08 298.776C110.353 291.359 112.741 283.028 114.915 274.749C106.158 277.831 98.47 283.866 93.3958 291.64Z" fill="#FFB800"/>
<path d="M91.532 255.353C85.5247 276.941 82.4645 299.335 82.4825 321.745C82.4874 328.12 82.7457 334.493 83.2443 340.849C83.2754 341.241 83.8904 341.244 83.8593 340.849C82.1078 318.497 83.4075 295.926 87.7477 273.928C88.9695 267.737 90.434 261.596 92.1257 255.517C92.2315 255.135 91.6386 254.972 91.532 255.353Z" fill="#263238"/>
<path d="M83.4128 325.452C89.5497 310.842 97.6185 297.157 106.944 284.364C107.178 284.043 106.644 283.736 106.413 284.053C99.1125 294.068 92.5525 304.624 87.1241 315.772C85.5997 318.903 84.168 322.078 82.8199 325.288C82.6666 325.653 83.2619 325.812 83.4128 325.452Z" fill="#263238"/>
<path d="M74.7089 303.754C78.9401 310.237 80.9647 318.131 80.3775 325.85C73.6371 323.503 67.6946 315.889 64.1325 309.705C60.5696 303.52 58.5778 296.574 56.7656 289.67C64.0669 292.239 70.4777 297.272 74.7089 303.754Z" fill="#FFB800"/>
<path d="M83.2297 330.965C78.1957 318.988 71.543 307.887 63.8998 297.402C63.6686 297.086 63.1348 297.392 63.3685 297.712C70.9772 308.149 77.625 319.204 82.6368 331.128C82.7877 331.488 83.3838 331.33 83.2297 330.965Z" fill="#263238"/>
<path d="M83.4665 334.943C92.9785 325.157 102.691 315.568 112.203 305.782C112.48 305.498 112.045 305.063 111.769 305.347C102.257 315.134 92.5439 324.722 83.0319 334.508C82.7556 334.792 83.1894 335.227 83.4665 334.943Z" fill="#263238"/>
<path d="M112.561 301.286C104.309 309.245 96.7893 317.964 90.1309 327.297H91.6405C97.9217 327.002 104.019 323.904 107.96 319.003C111.901 314.104 113.62 307.483 112.561 301.286Z" fill="#FFB800"/>
<path d="M73.4944 282.305C77.0376 288.1 80.3767 294.017 83.5042 300.047C83.6862 300.398 84.2176 300.088 84.0355 299.736C80.908 293.706 77.569 287.789 74.0258 281.994C73.8191 281.657 73.2869 281.966 73.4944 282.305Z" fill="#263238"/>
<path d="M64.9494 253.047C63.598 259.126 62.2573 267.03 62.2442 273.359C62.2303 279.689 64.1614 285.864 67.7587 290.106C71.3561 294.348 78.6163 296.205 81.5429 293.778L64.9494 253.047Z" fill="#FFB800"/>
<path d="M100.816 337.769H64.7656V344.45H100.816V337.769Z" fill="#263238"/>
<path d="M94.9775 368.252H72.5915L68.5234 342.919H98.191L94.9775 368.252Z" fill="#263238"/>
<path opacity="0.2" d="M68.7891 344.573H97.9811L97.6178 347.442H69.2499L68.7891 344.573Z" fill="black"/>
<path d="M520.843 193.38C529.951 188.172 541.556 191.333 546.763 200.441C551.97 209.548 548.809 221.153 539.702 226.36C532.671 230.38 524.163 229.396 518.247 224.554L512.611 225.441L513.952 219.563C513.898 219.472 513.835 219.39 513.782 219.297C508.574 210.192 511.736 198.587 520.843 193.38Z" fill="#FFB800"/>
<path d="M524.219 189.169C518.154 190.337 512.817 194.756 510.537 200.496" stroke="#564D65" stroke-width="0.5" stroke-miterlimit="10" stroke-linecap="round" stroke-linejoin="round"/>
<path d="M509.585 203.167C509.174 204.014 508.94 204.947 508.902 205.888" stroke="#564D65" stroke-width="0.5" stroke-miterlimit="10" stroke-linecap="round" stroke-linejoin="round"/>
<path d="M528.045 217.05L520.027 209.732L522.581 206.934L527.958 211.841L536.891 203.117L539.538 205.827L528.045 217.05Z" fill="white"/>
<path d="M325.194 72.0844C334.762 66.5248 347.026 69.7736 352.585 79.3422C358.145 88.91 354.896 101.174 345.328 106.734C337.941 111.025 328.96 110.05 322.685 104.987L316.746 105.964L318.117 99.7545C318.06 99.6585 317.993 99.5724 317.936 99.4757C312.377 89.9079 315.626 77.644 325.194 72.0844Z" fill="#FFB800"/>
<path d="M352.62 74.7295C348.729 69.5053 342.082 66.4631 335.584 66.9322" stroke="#564D65" stroke-width="0.5" stroke-miterlimit="10" stroke-linecap="round" stroke-linejoin="round"/>
<path d="M332.612 67.253C331.618 67.2505 330.625 67.4563 329.713 67.8532" stroke="#564D65" stroke-width="0.5" stroke-miterlimit="10" stroke-linecap="round" stroke-linejoin="round"/>
<path d="M343.949 86.5288H325.232V91.2077H343.949V86.5288Z" fill="white"/>
<path d="M342.219 93.7546V84.3008L346.829 89.0281L342.219 93.7546Z" fill="white"/>
<path d="M447.783 191.098C447.783 191.098 447.285 199.686 443.091 214.737C440.46 224.038 437.267 233.17 433.529 242.084C431.437 247.119 429.036 252.464 426.28 258.087C425.04 260.644 423.713 263.244 422.318 265.911C420.713 311.462 395.149 357.766 395.149 357.766C393.733 358.497 388.786 357.7 388.819 356.261C392.604 350.251 400.052 291.885 404.854 264.196C405.153 260.433 405.585 256.449 406.116 252.233C407.521 241.055 409.601 228.904 411.649 218.213C414.825 201.37 417.847 188.167 417.847 188.167L426.269 188.986L447.783 191.098Z" fill="#EEC1BB"/>
<path d="M394.873 367.593H393.434L393.025 365.778L388.155 367.991H375.816C375.816 367.991 373.857 366.022 379.723 364.461C380.009 364.379 380.286 364.273 380.552 364.141C383.684 362.669 388.133 357.711 388.133 357.711H394.895C395.104 358.025 395.289 358.355 395.449 358.696C396.19 360.156 397.462 363.321 394.873 367.593Z" fill="#263238"/>
<path d="M395.449 358.673C394.563 357.676 390.502 362.048 387.525 363.542C384.869 364.859 381.881 365.445 380.553 364.106C383.684 362.634 389.262 355.746 389.262 355.746L394.043 356.227C394.043 356.227 395.139 358.031 395.449 358.673Z" fill="#EEC1BB"/>
<path d="M457.833 254.158C457.154 259.056 456.28 264.299 455.21 269.884C464.341 300.351 445.559 359.813 445.559 359.813C442.383 360.444 439.572 360.034 438.145 358.961C441.686 341.044 439.141 294.463 436.385 266.63C436.142 264.107 435.832 261.329 435.5 258.363C434.935 253.338 434.26 247.805 433.541 242.083C432.323 232.51 430.962 222.439 429.733 213.509C428.229 202.718 426.922 193.588 426.248 188.996C425.97 186.982 425.805 185.842 425.805 185.842L452.166 188.697C452.166 188.697 458.873 196.212 459.913 219.684C460.257 231.215 459.561 242.752 457.833 254.158Z" fill="#EEC1BB"/>
<path d="M446.214 367.593H444.742L444.333 365.779L439.474 367.992H427.146C427.146 367.992 425.187 366.022 431.063 364.462C431.349 364.38 431.627 364.273 431.893 364.141C435.013 362.669 439.473 357.711 439.473 357.711H446.235C446.438 358.029 446.624 358.358 446.789 358.696C447.531 360.157 448.771 363.322 446.214 367.593Z" fill="#263238"/>
<path d="M446.789 358.673C445.892 357.677 441.831 362.048 438.854 363.542C436.198 364.859 433.209 365.445 431.893 364.106C435.013 362.635 439.938 356.227 439.938 356.227H445.373C445.373 356.227 446.467 358.032 446.789 358.673Z" fill="#EEC1BB"/>
<path d="M464.754 124.904C463.4 123.735 461.213 124.183 459.351 123.964C456.526 123.632 454.249 121.59 453.032 119.275C451.816 116.958 451.462 114.366 451.029 111.835C450.596 109.304 450.036 106.711 448.485 104.562C446.933 102.414 443.197 99.7505 440.482 101.38L436.846 107.014C439.028 113.615 440.802 120.326 442.158 127.103C442.763 130.13 443.365 133.331 445.561 135.689C447.714 137.998 451.121 139.124 454.464 139.339C456.159 139.448 457.912 139.34 459.461 138.711C461.01 138.082 462.329 136.868 462.672 135.372C463.015 133.876 462.191 132.15 460.616 131.577C462.137 130.935 463.719 130.249 464.733 129.044C465.745 127.84 465.965 125.951 464.754 124.904Z" fill="#263238"/>
<path d="M412.674 96.8634C408.518 100.885 407.994 105.671 408.654 108.947C410.049 113.279 412.162 116.141 414.145 120.237L421.184 92.1123C418.534 93.1586 417.193 92.82 412.674 96.8634Z" fill="#263238"/>
<path d="M425.209 91.9473C433.322 92.1121 441.467 98.896 442.105 105.478C442.743 112.061 436.268 120.555 435.054 121.076L431.211 122.489C431.211 122.489 435.45 112.688 433.691 110.07C431.932 107.452 430.656 107.423 430.656 107.423L425.209 91.9473Z" fill="#263238"/>
<path d="M418.32 93.508C422.541 90.5232 427.526 92.2296 430.485 93.508C433.817 95.4317 436.169 98.6879 436.946 102.457C437.59 105.996 438.372 110.285 436.563 112.52C435.556 113.808 434.054 114.611 432.424 114.737L411.982 101.776C413.358 98.5255 415.539 95.6801 418.32 93.508Z" fill="#263238"/>
<path d="M426.566 141.435C428.165 142.578 429.309 141.891 430.971 140.829C440.957 135.039 436.854 130.456 436.854 130.456C434.393 128.447 433.787 125.618 433.735 121.146C433.727 121.017 433.709 120.888 433.682 120.762C433.569 120.185 433.281 119.656 432.856 119.249C431.725 118.106 429.881 118.095 428.738 119.226L428.735 119.229L424.2 121.468C424.199 121.536 424.197 121.604 424.197 121.681C424.616 124.056 425.019 125.885 425.266 127.337C425.263 127.515 425.328 127.696 425.35 127.866C425.347 128.045 425.396 128.233 425.427 128.404C425.673 130.41 422.847 133.935 421.605 134.877C420.863 135.501 421.149 137.587 426.566 141.435Z" fill="#EEC1BB"/>
<path opacity="0.2" d="M424.209 121.399C424.22 121.473 424.218 121.548 424.205 121.621C424.624 123.995 425.027 125.825 425.274 127.276C425.315 127.45 425.344 127.627 425.359 127.806C425.383 127.993 425.393 128.181 425.392 128.368C428.847 126.718 431.713 124.047 433.605 120.717C433.497 120.147 433.224 119.622 432.822 119.205C431.702 118.051 429.86 118.019 428.701 119.134L424.209 121.399Z" fill="black"/>
<path d="M434.353 103.955C435.66 112.169 436.393 115.605 433.316 120.756C428.678 128.493 418.553 128.499 414.835 120.881C411.547 114.012 409.925 101.764 416.955 96.6049C423.983 91.4462 433.038 95.7316 434.353 103.955Z" fill="#EEC1BB"/>
<path d="M439.253 110.302C438.747 112.219 437.477 113.68 436.151 114.422C434.157 115.538 432.119 112.397 432.27 110.055C432.405 107.947 434.161 106.099 436.358 105.956C438.521 105.815 439.832 108.111 439.253 110.302Z" fill="#EEC1BB"/>
<path opacity="0.2" d="M434.613 111.096C434.456 110.316 434.621 109.477 435.061 108.815C435.501 108.152 436.21 107.674 436.989 107.516" stroke="black" stroke-width="0.5" stroke-miterlimit="10" stroke-linecap="round" stroke-linejoin="round"/>
<path d="M424.335 109.418C424.527 110.284 424.254 111.112 423.725 111.267C423.196 111.422 422.613 110.846 422.421 109.98C422.229 109.114 422.502 108.286 423.031 108.131C423.56 107.976 424.144 108.551 424.335 109.418Z" fill="#263238"/>
<path d="M416.357 111.553C416.541 112.393 416.263 113.199 415.736 113.354C415.209 113.508 414.632 112.953 414.448 112.114C414.263 111.274 414.541 110.468 415.068 110.313C415.596 110.159 416.172 110.714 416.357 111.553Z" fill="#263238"/>
<path d="M425.215 105.981C425.115 106.021 425.003 106.019 424.903 105.967C423.345 105.151 422.053 105.936 422.038 105.945C421.846 106.062 421.604 106.002 421.499 105.803C421.395 105.603 421.466 105.345 421.66 105.224C421.727 105.183 423.349 104.196 425.282 105.21C425.475 105.311 425.547 105.562 425.442 105.772C425.391 105.871 425.309 105.944 425.215 105.981Z" fill="#263238"/>
<path d="M412.576 108.223C412.487 108.218 412.403 108.176 412.343 108.097C412.22 107.934 412.247 107.677 412.403 107.523C413.969 105.984 415.553 106.402 415.62 106.422C415.809 106.474 415.911 106.693 415.847 106.911C415.783 107.129 415.579 107.262 415.391 107.211C415.329 107.193 414.095 106.889 412.85 108.113C412.768 108.192 412.669 108.229 412.576 108.223Z" fill="#263238"/>
<path d="M418.418 110.572C418.418 110.572 417.973 113.941 417.057 116.213C416.897 116.61 417.181 117.05 417.608 117.087C418.706 117.184 419.784 116.536 419.784 116.536L418.418 110.572Z" fill="#D4827D"/>
<path d="M423.346 108.083L421.371 108.148C421.371 108.148 422.761 109.256 423.346 108.083Z" fill="#263238"/>
<path d="M415.264 110.281L413.289 110.345C413.289 110.345 414.679 111.453 415.264 110.281Z" fill="#263238"/>
<path d="M431.883 106.465C431.883 106.465 426.235 101.976 425.259 97.4352C425.259 97.4352 407.861 96.771 412.032 110.923C412.032 110.923 406.144 99.1006 419.435 94.5742C432.726 90.0478 438.796 107.378 433.737 114.725C433.7 114.665 435.384 109.284 431.883 106.465Z" fill="#263238"/>
<path d="M413.548 97.4925C412.064 99.5458 411.273 102.018 411.289 104.551C411.613 106.331 414.272 107.177 414.272 107.177L416.524 102.756L417.146 106.166C421.895 104.751 424.229 101.667 425.211 97.6507L421.63 93.3179C421.629 93.3171 414.903 95.8057 413.548 97.4925Z" fill="#263238"/>
<path d="M423.178 118.007C423.722 118.095 424.304 117.911 424.699 117.526C425.094 117.14 425.292 116.563 425.217 116.016" stroke="#263238" stroke-width="0.5" stroke-miterlimit="10" stroke-linecap="round" stroke-linejoin="round"/>
<path opacity="0.2" d="M439.389 115.345C439.389 115.345 445.52 107.739 440.719 101.257C440.719 101.257 444.256 103.691 443.584 107.891C443.057 111.189 441.619 113.863 439.389 115.345Z" fill="black"/>
<path opacity="0.2" d="M457.833 254.158C450.621 256.592 443.104 258.008 435.501 258.363C434.936 253.339 434.261 247.806 433.542 242.084C431.45 247.12 429.049 252.464 426.293 258.087C419.26 257.448 412.414 255.465 406.129 252.244C407.534 241.066 409.615 228.915 411.662 218.224C414.457 216.584 417.477 215.365 420.627 214.606C423.62 213.885 426.688 213.514 429.768 213.499C434.253 213.478 438.73 213.89 443.136 214.727C448.859 215.798 454.456 217.46 459.836 219.685C460.205 231.212 459.536 242.75 457.833 254.158Z" fill="black"/>
<path d="M417.338 185.842H452.343L453.295 190.357C453.295 190.357 466.155 208.152 459.636 252.531C459.636 252.531 431.47 255.785 404.943 250.096C404.943 250.096 410.897 204.501 417.117 189.615L417.338 185.842Z" fill="#263238"/>
<path d="M450.576 172.08L453.065 190.695L414.691 189.149C414.59 185.149 418.157 174.537 417.745 171.635C416.58 168.05 410.685 162.64 409.116 158.308C407.442 152.294 410.898 135.756 412.024 135.231C413.39 134.596 415.093 134.653 416.141 134.192C420.214 133.234 429.48 129.924 433.633 129.407C434.436 129.332 435.234 129.187 436.028 129.095C436.028 129.095 451.729 128.339 452.424 134.728C452.493 135.083 448.681 151.84 450.576 172.08Z" fill="#564D65"/>
<path opacity="0.2" d="M450.275 168.131L449.962 163.033L444.145 147.194L448.703 165.841L434.262 170.901L450.275 168.131Z" fill="black"/>
<path opacity="0.2" d="M433.561 184.745C434.074 184.677 438.631 179.728 438.631 179.728L451.665 180.221L451.036 175.508C451.423 175.203 435.805 175.915 435.805 175.915L433.561 180.78L433.561 184.745Z" fill="black"/>
<path d="M446.495 130.58C447.167 130.664 449.896 129.118 454.823 135.446C459.75 141.774 465.273 165.898 465.585 169.417C465.981 173.887 463.002 176.09 460.032 176.58C451.12 178.052 434.672 178.348 434.672 178.348V170.772L451.083 167.056C451.083 167.056 441.77 144.636 443.24 138.859C444.709 133.084 446.495 130.58 446.495 130.58Z" fill="#564D65"/>
<path d="M439.113 129.074C437.928 135.515 433.111 140.571 426.768 142.204C424.543 142.739 422.057 141.508 420.298 140.051C418.516 138.563 417.329 136.484 416.955 134.193C424.68 131.147 431.676 128.536 439.113 129.074Z" fill="#EEC1BB"/>
<path opacity="0.2" d="M451.081 167.057C451.081 167.057 453.749 166.906 454.88 168.36C454.88 168.36 454.199 165.572 450.715 166.158L451.081 167.057Z" fill="black"/>
<path d="M429.371 215.676V131.186H345V164.943C346.529 165.524 351.526 165.907 353.045 165.341C355.708 164.349 353.97 161.28 356.542 160.07C360.335 158.284 365.06 160.801 367.049 164.492C368.591 167.356 368.881 168.856 368.739 171.329C368.881 173.803 368.591 175.303 367.049 178.167C365.06 181.858 360.335 184.375 356.542 182.589C353.971 181.379 356.061 178.386 353.398 177.394C351.879 176.828 346.529 177.134 345 177.716V215.677H382.729C382.774 216.501 382.68 217.325 382.389 218.106C381.397 220.77 378.566 222.354 377.356 224.925C375.57 228.718 378.087 233.444 381.778 235.432C384.641 236.975 386.141 237.264 388.615 237.122C391.089 237.264 392.589 236.975 395.452 235.432C399.143 233.444 401.66 228.718 399.874 224.925C398.664 222.354 395.833 220.769 394.841 218.106C394.55 217.325 394.456 216.501 394.501 215.677L429.371 215.676Z" fill="#564D65"/>
<path d="M433.561 215.676V131.186H349.189V164.943C350.719 165.524 352.393 165.669 353.913 165.103C356.575 164.111 358.16 161.28 360.731 160.07C364.524 158.284 369.25 160.801 371.238 164.492C372.781 167.356 373.07 168.856 372.928 171.329C373.07 173.803 372.781 175.303 371.238 178.167C369.25 181.858 364.524 184.375 360.731 182.589C358.16 181.379 356.575 178.548 353.913 177.556C352.393 176.99 350.719 177.134 349.189 177.716V215.677H386.918C386.964 216.501 386.869 217.325 386.578 218.106C385.586 220.77 382.755 222.354 381.545 224.925C379.759 228.718 382.276 233.444 385.968 235.432C388.832 236.975 390.331 237.264 392.805 237.122C395.279 237.264 396.779 236.975 399.642 235.432C403.333 233.444 405.851 228.718 404.065 224.925C402.854 222.354 400.024 220.769 399.032 218.106C398.74 217.325 398.646 216.501 398.691 215.677L433.561 215.676Z" fill="#564D65"/>
<g opacity="0.3">
<path d="M433.561 215.676V131.186H349.189V164.943C350.719 165.524 352.393 165.669 353.913 165.103C356.575 164.111 358.16 161.28 360.731 160.07C364.524 158.284 369.25 160.801 371.238 164.492C372.781 167.356 373.07 168.856 372.928 171.329C373.07 173.803 372.781 175.303 371.238 178.167C369.25 181.858 364.524 184.375 360.731 182.589C358.16 181.379 356.575 178.548 353.913 177.556C352.393 176.99 350.719 177.134 349.189 177.716V215.677H386.918C386.964 216.501 386.869 217.325 386.578 218.106C385.586 220.77 382.755 222.354 381.545 224.925C379.759 228.718 382.276 233.444 385.968 235.432C388.832 236.975 390.331 237.264 392.805 237.122C395.279 237.264 396.779 236.975 399.642 235.432C403.333 233.444 405.851 228.718 404.065 224.925C402.854 222.354 400.024 220.769 399.032 218.106C398.74 217.325 398.646 216.501 398.691 215.677L433.561 215.676Z" fill="white"/>
</g>
<path d="M433.561 172.254C433.561 172.254 427.898 173.669 427.277 175.002C426.657 176.334 428.752 176.232 428.752 176.232C428.752 176.232 426.454 176.487 426.43 177.476C426.401 178.665 428.596 178.548 428.596 178.548C428.596 178.548 426.728 178.833 426.765 179.715C426.805 180.63 429.291 180.674 429.291 180.674C429.291 180.674 428.013 181.124 428.386 181.722C428.76 182.321 434.035 182.517 435.589 181.53C437.142 180.542 437.148 173.763 436.846 172.284C436.542 170.805 435.42 170.007 433.562 167.76V172.254H433.561Z" fill="#EEC1BB"/>
<path opacity="0.2" d="M428.757 176.343C428.76 176.343 428.764 176.342 428.767 176.342L432.753 175.708C432.806 175.699 432.843 175.643 432.835 175.582C432.827 175.521 432.774 175.478 432.723 175.487L428.737 176.122C428.684 176.131 428.647 176.186 428.655 176.247C428.662 176.305 428.707 176.346 428.757 176.343Z" fill="black"/>
<path opacity="0.2" d="M428.715 178.654H428.718L432.594 178.349C432.649 178.345 432.689 178.291 432.684 178.231C432.68 178.169 432.64 178.133 432.578 178.127L428.701 178.432C428.647 178.437 428.607 178.49 428.612 178.551C428.616 178.611 428.662 178.657 428.715 178.654Z" fill="black"/>
<path opacity="0.2" d="M429.429 180.78L432.316 180.635C432.37 180.633 432.411 180.58 432.409 180.52C432.405 180.458 432.36 180.411 432.305 180.413L429.418 180.557C429.364 180.56 429.323 180.612 429.326 180.673C429.328 180.735 429.375 180.782 429.429 180.78Z" fill="black"/>
<path d="M368.798 170.017C368.798 170.017 374.864 171.713 375.484 173.045C376.105 174.377 374.009 174.276 374.009 174.276C374.009 174.276 376.307 174.53 376.331 175.52C376.36 176.709 374.165 176.591 374.165 176.591C374.165 176.591 376.033 176.875 375.996 177.758C375.956 178.673 373.47 178.718 373.47 178.718C373.47 178.718 374.747 179.166 374.374 179.766C374.001 180.364 368.725 180.56 367.172 179.573C365.619 178.586 365.613 171.807 365.915 170.327C366.218 168.848 366.342 169.093 368.2 166.846L368.538 168.104C368.63 168.446 368.692 168.795 368.722 169.147L368.798 170.017Z" fill="#EEC1BB"/>
<path opacity="0.2" d="M374.003 174.387C374 174.387 373.997 174.386 373.993 174.386L370.007 173.751C369.954 173.742 369.917 173.686 369.925 173.626C369.933 173.565 369.986 173.521 370.036 173.53L374.023 174.165C374.076 174.174 374.113 174.23 374.104 174.291C374.097 174.349 374.052 174.389 374.003 174.387Z" fill="black"/>
<path opacity="0.2" d="M374.047 176.698H374.045L370.168 176.393C370.114 176.389 370.074 176.336 370.079 176.275C370.083 176.214 370.122 176.177 370.184 176.172L374.061 176.477C374.115 176.481 374.156 176.534 374.151 176.596C374.146 176.655 374.1 176.701 374.047 176.698Z" fill="black"/>
<path opacity="0.2" d="M373.334 178.823L370.446 178.678C370.392 178.676 370.351 178.623 370.354 178.563C370.357 178.501 370.403 178.454 370.457 178.456L373.344 178.6C373.398 178.603 373.439 178.655 373.437 178.717C373.434 178.778 373.388 178.826 373.334 178.823Z" fill="black"/>
<path d="M244.508 358.142L252.881 358.962L259.07 337.761L246.331 336.374L244.508 358.142Z" fill="#EEC1BB"/>
<path d="M254.095 355.264H251.105C250.428 355.264 249.803 355.606 249.403 356.152C247.679 358.506 246.383 357.616 244.509 355.403C243.317 355.264 242.996 356.632 242.898 357L240.663 365.129C240.469 365.808 240.861 366.516 241.54 366.71C241.661 366.745 241.786 366.761 241.912 366.759C245.543 366.759 247.26 366.759 251.779 366.759H265.598C269.365 366.759 270.146 362.963 268.595 362.612C261.616 361.069 256.675 359.016 254.519 356.987C254.118 356.631 254.529 356.365 254.095 355.264Z" fill="#263238"/>
<path d="M260.581 357.575C260.896 357.349 261.084 356.987 261.089 356.6C261.115 356.391 261.021 356.187 260.845 356.072C259.908 355.409 256.17 357.156 255.751 357.361C255.704 357.377 255.667 357.414 255.65 357.461C255.619 357.547 255.664 357.642 255.751 357.673C256.669 357.89 257.608 358.012 258.552 358.034C259.259 358.102 259.971 357.941 260.581 357.575ZM260.611 356.355C260.687 356.402 260.725 356.492 260.708 356.58C260.693 356.86 260.557 357.12 260.338 357.293C259.489 357.927 257.439 357.653 256.336 357.448C257.887 356.765 260.093 355.994 260.611 356.355Z" fill="#564D65"/>
<path d="M255.877 357.712C257 357.244 259.352 355.399 259.225 354.423C259.205 354.218 259.059 353.975 258.551 353.906C256.502 353.671 255.623 357.351 255.623 357.507C255.603 357.57 255.622 357.639 255.672 357.683C255.71 357.694 255.751 357.694 255.79 357.683L255.877 357.712ZM258.483 354.208C258.863 354.248 258.863 354.384 258.863 354.433C258.97 355.028 257.262 356.561 256.042 357.205C256.296 356.346 257.048 354.199 258.346 354.199L258.483 354.208Z" fill="#564D65"/>
<path d="M256.17 357.571C255.14 357.712 254.184 358.327 253.631 359.207" stroke="#564D65" stroke-width="0.5" stroke-miterlimit="10" stroke-linecap="round" stroke-linejoin="round"/>
<path d="M258.029 358.969C256.999 359.109 256.044 359.725 255.49 360.604" stroke="#564D65" stroke-width="0.5" stroke-miterlimit="10" stroke-linecap="round" stroke-linejoin="round"/>
<path d="M260.34 360.146C259.31 360.286 258.354 360.902 257.801 361.781" stroke="#564D65" stroke-width="0.5" stroke-miterlimit="10" stroke-linecap="round" stroke-linejoin="round"/>
<path opacity="0.3" d="M255.8 348.965L255.04 351.565L245.186 350.052L245.364 347.92L255.8 348.965Z" fill="black"/>
<path d="M293.252 358.142L301.626 358.962L307.814 337.761L295.076 336.374L293.252 358.142Z" fill="#EEC1BB"/>
<path d="M302.84 355.264H299.85C299.173 355.264 298.548 355.606 298.148 356.152C296.424 358.506 295.128 357.616 293.253 355.403C292.061 355.264 291.74 356.632 291.642 357L289.407 365.129C289.213 365.808 289.606 366.516 290.285 366.71C290.405 366.745 290.531 366.761 290.656 366.759C294.287 366.759 296.004 366.759 300.523 366.759H314.343C318.11 366.759 318.89 362.963 317.339 362.612C310.361 361.069 305.419 359.016 303.263 356.987C302.863 356.631 303.274 356.365 302.84 355.264Z" fill="#263238"/>
<path d="M309.328 357.575C309.643 357.349 309.831 356.987 309.836 356.6C309.862 356.391 309.768 356.187 309.591 356.072C308.654 355.409 304.916 357.156 304.497 357.361C304.45 357.377 304.413 357.414 304.397 357.461C304.365 357.547 304.411 357.642 304.497 357.673C305.415 357.89 306.354 358.012 307.298 358.034C308.006 358.102 308.717 357.941 309.328 357.575ZM309.357 356.355C309.433 356.402 309.472 356.492 309.454 356.58C309.439 356.86 309.303 357.12 309.084 357.293C308.234 357.927 306.185 357.653 305.082 357.448C306.634 356.765 308.84 355.994 309.357 356.355Z" fill="#564D65"/>
<path d="M304.624 357.712C305.746 357.244 308.098 355.399 307.971 354.423C307.951 354.218 307.805 353.975 307.298 353.906C305.248 353.671 304.369 357.351 304.369 357.507C304.349 357.57 304.369 357.639 304.419 357.683C304.457 357.694 304.497 357.694 304.536 357.683L304.624 357.712ZM307.23 354.208C307.61 354.248 307.61 354.384 307.61 354.433C307.717 355.028 306.009 356.561 304.789 357.205C305.043 356.346 305.795 354.199 307.093 354.199L307.23 354.208Z" fill="#564D65"/>
<path d="M304.916 357.571C303.886 357.712 302.93 358.327 302.377 359.207" stroke="#564D65" stroke-width="0.5" stroke-miterlimit="10" stroke-linecap="round" stroke-linejoin="round"/>
<path d="M306.773 358.969C305.743 359.109 304.788 359.725 304.234 360.604" stroke="#564D65" stroke-width="0.5" stroke-miterlimit="10" stroke-linecap="round" stroke-linejoin="round"/>
<path d="M309.086 360.146C308.056 360.286 307.1 360.902 306.547 361.781" stroke="#564D65" stroke-width="0.5" stroke-miterlimit="10" stroke-linecap="round" stroke-linejoin="round"/>
<path opacity="0.3" d="M304.545 348.965L303.786 351.565L293.932 350.052L294.11 347.92L304.545 348.965Z" fill="black"/>
<path d="M311.15 198.378C311.15 198.378 318.091 229.027 321.399 255.723C322.406 263.86 322.599 274.74 320.818 282.751L307.44 349.255L290.607 347.57C293.252 318.888 296.939 283.512 297.995 268.462C294.292 250.824 286.402 229.474 278.645 208.242L311.15 198.378Z" fill="#564D65"/>
<g opacity="0.2">
<path d="M311.15 198.378C311.15 198.378 318.091 229.027 321.399 255.723C322.406 263.86 322.599 274.74 320.818 282.751L307.44 349.255L290.607 347.57C293.252 318.888 296.939 283.512 297.995 268.462C294.292 250.824 286.402 229.474 278.645 208.242L311.15 198.378Z" fill="black"/>
</g>
<path d="M255.836 273.817C256.216 272.158 256.825 268.789 257.571 264.345C257.549 264.34 257.524 264.334 257.501 264.33C258.048 258.453 259.06 231.195 260.919 213.809C262.348 202.735 265.178 195.241 268.028 191.572C268.175 191.383 268.309 191.212 268.432 191.059C268.905 190.468 269.193 190.143 269.193 190.143C269.735 190.279 270.273 190.405 270.809 190.522C271.01 190.566 271.209 190.609 271.407 190.651C291.529 194.858 309.235 189.569 309.235 189.569C311.088 194.144 312.471 203.898 313.822 214.013C311.717 216.323 302.481 219.319 291.885 221.305L288.863 234.971C287.273 243.444 285.231 251.755 283.497 259.238L281.685 267.434C281.575 267.972 281.467 268.505 281.364 269.028C280.445 273.74 258.567 349.655 258.567 349.655L244.312 348.82C244.314 348.819 250.681 296.278 255.836 273.817Z" fill="#564D65"/>
<path opacity="0.2" d="M255.836 273.817C256.216 272.158 256.825 268.789 257.571 264.345C257.549 264.34 257.524 264.334 257.501 264.33C258.048 258.453 259.06 231.195 260.919 213.809C262.348 202.735 265.178 195.241 268.028 191.572C268.175 191.383 268.309 191.212 268.432 191.059C268.905 190.468 269.193 190.143 269.193 190.143C269.735 190.279 270.273 190.405 270.809 190.522C271.01 190.566 271.209 190.609 271.407 190.651C291.529 194.858 309.235 189.569 309.235 189.569C311.088 194.144 312.471 203.898 313.822 214.013C311.717 216.323 302.481 219.319 291.885 221.305L288.863 234.971C287.273 243.444 285.231 251.755 283.497 259.238L281.685 267.434C281.575 267.972 281.467 268.505 281.364 269.028C280.445 273.74 258.567 349.655 258.567 349.655L244.312 348.82C244.314 348.819 250.681 296.278 255.836 273.817Z" fill="black"/>
<path opacity="0.2" d="M288.67 236.234C288.615 236.513 295.198 212.583 295.198 212.583C295.198 212.583 300.741 233.948 292.307 247.311L288.67 236.234Z" fill="black"/>
<path d="M274.504 128.271C274.504 128.271 277.851 130.845 282.162 134.56C283.06 135.334 284.049 136.003 285.095 136.559C287.92 138.059 290.494 138.917 291.192 137.555C291.347 137.256 291.466 136.931 291.554 136.592C292.146 134.311 291.903 131.106 290.06 129.639C287.982 127.985 286.98 126.57 287.355 124.33C287.552 123.061 288.011 121.75 288.548 120.477L286.913 118.565L278.36 109.933C278.573 115.696 279.01 125.142 274.504 128.271Z" fill="#EEC1BB"/>
<path opacity="0.2" d="M287.284 124.821C284.931 123.425 282.351 121.003 282.66 118.235C282.798 117.07 283.05 115.965 283.328 115.258L288.107 121.584C287.714 122.604 287.571 123.278 287.284 124.821Z" fill="black"/>
<path d="M275.937 100.672C276.742 109.46 276.897 113.187 281.432 117.795C288.254 124.726 298.748 122.394 300.556 113.683C302.182 105.843 300.592 92.7882 291.964 89.095C283.464 85.4566 275.132 91.8838 275.937 100.672Z" fill="#EEC1BB"/>
<path d="M286.884 103.443C286.93 104.266 287.435 104.943 288.013 104.954C288.591 104.967 289.023 104.31 288.977 103.487C288.931 102.664 288.426 101.987 287.848 101.975C287.27 101.963 286.838 102.62 286.884 103.443Z" fill="#263238"/>
<path d="M295.992 103.319C296.038 104.116 296.543 104.772 297.118 104.784C297.695 104.796 298.125 104.16 298.079 103.362C298.033 102.565 297.528 101.909 296.952 101.897C296.375 101.884 295.945 102.521 295.992 103.319Z" fill="#263238"/>
<path d="M285.487 100.294C285.6 100.306 285.713 100.274 285.8 100.194C287.154 98.9403 288.678 99.3806 288.696 99.3855C288.922 99.4511 289.15 99.3232 289.202 99.0928C289.253 98.8624 289.109 98.6205 288.881 98.5516C288.801 98.5278 286.888 97.9735 285.208 99.5298C285.04 99.6848 285.037 99.9595 285.2 100.143C285.279 100.231 285.382 100.283 285.487 100.294Z" fill="#263238"/>
<path d="M298.803 99.8565C298.907 99.8819 299.017 99.8688 299.111 99.8097C299.305 99.6892 299.355 99.4227 299.224 99.2152C297.908 97.1349 295.953 97.0086 295.869 97.0045C295.635 96.9922 295.449 97.1759 295.453 97.4161C295.457 97.6556 295.65 97.8598 295.884 97.8729C295.961 97.877 297.477 97.9975 298.523 99.6515C298.59 99.7597 298.693 99.8302 298.803 99.8565Z" fill="#263238"/>
<path d="M279.682 106.185C279.682 106.185 282.394 102.086 281.276 94.1041C281.089 92.7658 281.935 91.4989 283.262 91.2414C287.054 90.5051 292.123 85.722 298.307 95.2217C298.307 95.2217 295.358 83.8434 278.089 88.4272C262.72 92.5067 273.242 105.532 274.828 106.871C276.413 108.211 279.682 106.185 279.682 106.185Z" fill="#263238"/>
<path d="M273.278 107.834C274.316 109.637 276.003 110.768 277.549 111.156C279.875 111.739 281.077 107.999 280.282 105.669C279.567 103.571 277.282 102.182 275.018 102.64C272.787 103.091 272.09 105.774 273.278 107.834Z" fill="#EEC1BB"/>
<path d="M293.777 111.904C293.062 113.005 292.201 115.139 292.201 115.139C291.994 115.095 291.786 115.053 291.582 114.998C288.784 114.343 287.703 113.116 287.352 111.952C287.162 111.315 287.2 110.692 287.295 110.199C287.399 109.627 287.604 109.244 287.604 109.244C288.88 110.477 291.441 111.288 292.827 111.664C293.405 111.829 293.777 111.904 293.777 111.904Z" fill="#263238"/>
<path d="M292.827 111.666L292.338 112.608C289.704 111.985 287.934 111.193 287.295 110.2C287.399 109.629 287.603 109.245 287.603 109.245C288.879 110.478 291.441 111.289 292.827 111.666Z" fill="white"/>
<path d="M291.582 114.999C288.784 114.344 287.703 113.117 287.352 111.953C288.296 112.213 289.406 112.631 290.314 113.296C291.01 113.801 291.379 114.416 291.582 114.999Z" fill="#DC5753"/>
<path d="M293.629 103.078C293.629 103.078 295.004 106.368 296.555 108.419C296.826 108.777 296.658 109.3 296.237 109.455C295.152 109.855 293.881 109.493 293.881 109.493L293.629 103.078Z" fill="#D4827D"/>
<path d="M287.672 101.956L289.689 101.479C289.689 101.479 288.586 102.983 287.672 101.956Z" fill="#263238"/>
<path d="M296.744 101.918L298.761 101.441C298.761 101.441 297.658 102.945 296.744 101.918Z" fill="#263238"/>
<path d="M299.845 98.9388C299.845 98.9388 305.168 92.642 301.616 87.4523C300.282 85.5015 297.831 85.2112 295.669 84.2584C290.679 82.0599 286.635 81.6155 280.267 87.8573C273.641 94.3509 272.442 96.5379 279.751 104.538C279.751 104.538 278.962 103.491 281.664 101.112C284.366 98.7314 287.347 96.6141 285.9 94.3058C285.9 94.3058 288.146 95.1726 288.307 97.3095L292.257 96.2304C292.257 96.2304 292.086 94.7027 291.041 93.175C291.041 93.175 293.088 94.3813 293.753 96.15L297.171 96.7937C297.171 96.7937 296.669 93.658 295.704 92.5322C295.703 92.5305 298.834 95.7498 299.845 98.9388Z" fill="#263238"/>
<path opacity="0.2" d="M278.501 107.576C278.428 106.747 278.043 105.948 277.44 105.375C276.837 104.802 276.02 104.458 275.188 104.427" stroke="black" stroke-width="0.5" stroke-miterlimit="10" stroke-linecap="round" stroke-linejoin="round"/>
<path d="M320.283 180.502C319.789 180.121 319.32 179.699 318.88 179.241C318.507 178.85 318.247 178.346 318.337 178.346C318.318 178.29 318.295 178.235 318.269 178.182L318.111 177.816L317.726 176.832C317.466 176.126 317.217 175.356 316.969 174.574C316.448 173.023 315.962 171.408 315.487 169.782C314.525 166.515 313.609 163.21 312.682 159.893L310.979 152.939C310.733 151.812 310.351 150.17 309.844 148.298L309.842 148.292C308.458 143.184 306.146 136.371 303.121 133.661C298.427 130.07 295.431 134.5 293.499 139.107C291.645 143.528 296.222 155.61 296.222 155.61L301.799 155.207C302.504 157.778 303.244 160.335 303.972 162.945C304.922 166.351 306.053 169.693 307.185 173.035C307.762 174.713 308.361 176.391 309.017 178.081C309.402 178.939 309.753 179.783 310.149 180.679C310.342 181.121 310.556 181.588 310.793 182.055L311.212 182.837C311.387 183.163 311.584 183.476 311.799 183.77C312.626 184.834 313.644 185.693 314.786 186.292C315.666 186.785 316.592 187.171 317.546 187.44C319.284 187.943 321.079 188.16 322.874 188.084L323.881 183.216C322.682 182.319 321.358 181.385 320.283 180.502Z" fill="#263238"/>
<path opacity="0.5" d="M320.283 180.502C319.789 180.121 319.32 179.699 318.88 179.241C318.507 178.85 318.247 178.346 318.337 178.346C318.318 178.29 318.295 178.235 318.269 178.182L318.111 177.816L317.726 176.832C317.466 176.126 317.217 175.356 316.969 174.574C316.448 173.023 315.962 171.408 315.487 169.782C314.525 166.515 313.609 163.21 312.682 159.893L310.979 152.939C310.733 151.812 310.351 150.17 309.844 148.298L309.842 148.292C308.458 143.184 306.146 136.371 303.121 133.661C298.427 130.07 295.431 134.5 293.499 139.107C291.645 143.528 296.222 155.61 296.222 155.61L301.799 155.207C302.504 157.778 303.244 160.335 303.972 162.945C304.922 166.351 306.053 169.693 307.185 173.035C307.762 174.713 308.361 176.391 309.017 178.081C309.402 178.939 309.753 179.783 310.149 180.679C310.342 181.121 310.556 181.588 310.793 182.055L311.212 182.837C311.387 183.163 311.584 183.476 311.799 183.77C312.626 184.834 313.644 185.693 314.786 186.292C315.666 186.785 316.592 187.171 317.546 187.44C319.284 187.943 321.079 188.16 322.874 188.084L323.881 183.216C322.682 182.319 321.358 181.385 320.283 180.502Z" fill="#E9D7A8"/>
<g opacity="0.3">
<path d="M304.152 141.509C305.095 143.118 305.418 144.034 306.008 145.888C306.598 147.742 307.267 157.755 303.887 160.716V153.774C304.01 149.519 304.029 145.762 304.152 141.509Z" fill="black"/>
</g>
<path d="M262.569 154.173L257.334 136.323C260.646 131.381 277.031 127.583 277.031 127.583L285.429 130.53L287.827 128.173C287.827 128.173 291.976 129.099 295.528 130.258C300.27 131.804 302.835 133.048 303.965 135.68C303.965 135.68 305.944 141.51 304.754 153.524C304.427 156.827 304.798 174.002 305.72 179.677L311.307 197.363C291.583 212.724 263.973 198.379 263.973 198.379C264.859 195.667 267.814 187.339 268.215 184.688C267.925 181.306 268.328 176.091 266.895 170.17C266.619 169.025 263.049 155.283 262.569 154.173Z" fill="#263238"/>
<path opacity="0.5" d="M262.569 154.173L257.334 136.323C260.646 131.381 277.031 127.583 277.031 127.583L285.429 130.53L287.827 128.173C287.827 128.173 291.976 129.099 295.528 130.258C300.27 131.804 302.835 133.048 303.965 135.68C303.965 135.68 305.944 141.51 304.754 153.524C304.427 156.827 304.798 174.002 305.72 179.677L311.307 197.363C291.583 212.724 263.973 198.379 263.973 198.379C264.859 195.667 267.814 187.339 268.215 184.688C267.925 181.306 268.328 176.091 266.895 170.17C266.619 169.025 263.049 155.283 262.569 154.173Z" fill="#E9D7A8"/>
<path d="M322.492 173.397C323.106 165.968 328.834 159.983 336.228 159.042L334.714 161.565L337.602 159.849L324.359 176.461L322.492 173.397Z" fill="#564D65"/>
<path opacity="0.8" d="M322.492 173.397C323.106 165.968 328.834 159.983 336.228 159.042L334.714 161.565L337.602 159.849L324.359 176.461L322.492 173.397Z" fill="white"/>
<path d="M301.744 159.762L306.298 159.623L328.093 167.015L308.228 197.362L288.678 192.48C287.563 192.172 286.911 191.018 287.219 189.904C287.265 189.738 287.331 189.578 287.417 189.428L295.312 175.151C295.47 174.868 295.47 174.525 295.312 174.242L294.241 172.337C294.015 171.947 294.015 171.466 294.241 171.076L299.538 161.15C299.986 160.339 300.819 159.815 301.744 159.762Z" fill="#FFB800"/>
<path d="M328.093 167.015L340.504 159.042L320.096 189.364L308.227 197.361L328.093 167.015Z" fill="#564D65"/>
<path opacity="0.2" d="M328.093 167.015L340.504 159.042L320.096 189.364L308.227 197.361L328.093 167.015Z" fill="#A67800"/>
<path d="M325.656 181.116C325.656 181.116 320.832 179.852 319.772 180.679C318.712 181.506 320.163 182.292 320.163 182.292C320.163 182.292 318.503 181.545 318.007 182.341C317.413 183.296 318.937 184.112 318.937 184.112C318.937 184.112 317.55 183.569 317.148 184.302C316.731 185.063 318.372 186.131 318.372 186.131C318.372 186.131 317.301 185.966 317.26 186.608C317.22 187.25 320.654 189.599 322.171 189.44C323.688 189.281 326.974 183.765 327.487 182.436C328.001 181.106 327.948 180.07 326.974 179.146L325.656 181.116Z" fill="#EEC1BB"/>
<path opacity="0.2" d="M320.112 182.385C320.115 182.386 320.117 182.387 320.119 182.388L323.092 183.525C323.133 183.54 323.184 183.51 323.208 183.457C323.232 183.404 323.218 183.347 323.179 183.333L320.206 182.196C320.166 182.181 320.114 182.212 320.09 182.264C320.067 182.314 320.078 182.367 320.112 182.385Z" fill="black"/>
<path opacity="0.2" d="M318.966 184.248L318.968 184.249L321.708 185.61C321.747 185.628 321.799 185.602 321.826 185.551C321.853 185.499 321.844 185.453 321.805 185.423L319.065 184.062C319.026 184.043 318.974 184.07 318.947 184.121C318.92 184.172 318.929 184.229 318.966 184.248Z" fill="black"/>
<path opacity="0.2" d="M318.414 186.273L320.414 187.354C320.452 187.375 320.504 187.349 320.532 187.298C320.56 187.248 320.552 187.189 320.514 187.169L318.514 186.088C318.476 186.068 318.423 186.093 318.395 186.144C318.368 186.196 318.376 186.254 318.414 186.273Z" fill="black"/>
<path d="M290.92 128.929L287.28 125.404L285.428 130.53L277.341 124.085L273.24 128.583L283.397 135.66L285.428 131.166L290.92 135.286V128.929Z" fill="#263238"/>
<path opacity="0.3" d="M290.921 128.929C291.179 129.326 290.921 135.286 290.921 135.286L285.428 131.166L283.397 135.66L273.637 128.929L283.627 137.633L285.428 132.348L291.553 137.633L290.921 128.929Z" fill="black"/>
<path opacity="0.3" d="M296.119 156.574L268.143 183.529V178.203C268.143 178.203 293.325 155.134 293.63 155.102C293.935 155.068 296.119 156.574 296.119 156.574Z" fill="black"/>
<path opacity="0.3" d="M269.843 158.707L266.813 146.209L266.213 160.716L269.843 158.707Z" fill="black"/>
<path d="M274.863 110.926C274.863 111.854 275.616 112.607 276.544 112.607C277.473 112.607 278.225 111.854 278.225 110.926C278.225 109.998 277.473 109.245 276.544 109.245C275.615 109.244 274.863 109.997 274.863 110.926Z" fill="#564D65"/>
<path d="M257.334 136.322C257.334 136.322 253.551 140.005 252.277 152.568C251.364 161.586 249.053 181.031 256.061 183.528C263.069 186.025 293.629 156.807 293.629 156.807L288.668 148.29L266.212 160.714C266.212 160.714 268.501 140.117 264.543 138.235C260.586 136.353 257.334 136.322 257.334 136.322Z" fill="#263238"/>
<path opacity="0.5" d="M257.334 136.322C257.334 136.322 253.551 140.005 252.277 152.568C251.364 161.586 249.053 181.031 256.061 183.528C263.069 186.025 293.629 156.807 293.629 156.807L288.668 148.29L266.212 160.714C266.212 160.714 268.501 140.117 264.543 138.235C260.586 136.353 257.334 136.322 257.334 136.322Z" fill="#E9D7A8"/>
<path d="M290.587 147.659C290.587 147.659 293.535 141.755 294.934 141.495C296.333 141.235 297.461 141.702 297.461 141.702C297.461 141.702 306.988 136.089 307.623 137.566C307.966 138.365 305.85 140.127 301.308 142.718C301.308 142.718 303.923 143.681 302.87 145.213C302.87 145.213 304.795 146.096 303.767 148.009C303.767 148.009 304.651 149.699 303.54 150.779C302.429 151.858 297.194 154.837 294.163 155.281C291.131 155.726 289.363 149.835 289.363 149.835L290.587 147.659Z" fill="#EEC1BB"/>
<path d="M322.774 316.348C325.345 317.559 326.93 320.389 329.593 321.382C331.088 321.939 332.736 321.809 334.246 321.25V283.261H297.887C297.841 282.437 297.936 281.612 298.227 280.831C299.219 278.168 302.05 276.583 303.26 274.013C305.046 270.219 302.529 265.494 298.838 263.505C295.974 261.963 294.475 261.673 292.001 261.815C289.527 261.673 288.027 261.963 285.163 263.505C281.472 265.494 278.954 270.219 280.741 274.013C281.952 276.583 284.782 278.168 285.774 280.831C286.065 281.612 286.16 282.437 286.115 283.261H249.756V367.751H334.246V333.965C332.736 333.407 331.089 333.277 329.593 333.833C326.93 334.826 325.334 337.634 322.774 338.867C319.36 340.51 314.271 338.129 312.267 334.444C310.713 331.587 310.435 330.081 310.577 327.607C310.435 325.133 310.724 323.633 312.267 320.77C314.255 317.08 318.981 314.563 322.774 316.348Z" fill="#564D65"/>
<path opacity="0.4" d="M322.774 316.348C325.345 317.559 326.93 320.389 329.593 321.382C331.088 321.939 332.736 321.809 334.246 321.25V283.261H297.887C297.841 282.437 297.936 281.612 298.227 280.831C299.219 278.168 302.05 276.583 303.26 274.013C305.046 270.219 302.529 265.494 298.838 263.505C295.974 261.963 294.475 261.673 292.001 261.815C289.527 261.673 288.027 261.963 285.163 263.505C281.472 265.494 278.954 270.219 280.741 274.013C281.952 276.583 284.782 278.168 285.774 280.831C286.065 281.612 286.16 282.437 286.115 283.261H249.756V367.751H334.246V333.965C332.736 333.407 331.089 333.277 329.593 333.833C326.93 334.826 325.334 337.634 322.774 338.867C319.36 340.51 314.271 338.129 312.267 334.444C310.713 331.587 310.435 330.081 310.577 327.607C310.435 325.133 310.724 323.633 312.267 320.77C314.255 317.08 318.981 314.563 322.774 316.348Z" fill="black"/>
<path d="M326.917 316.348C329.488 317.559 331.073 320.389 333.735 321.382C335.231 321.939 336.878 321.809 338.389 321.25V283.261H302.029C301.984 282.437 302.078 281.612 302.369 280.831C303.362 278.168 306.192 276.583 307.403 274.013C309.189 270.219 306.671 265.494 302.98 263.505C300.117 261.963 298.617 261.673 296.143 261.815C293.669 261.673 292.169 261.963 289.306 263.505C285.614 265.494 283.097 270.219 284.884 274.013C286.094 276.583 288.925 278.168 289.917 280.831C290.208 281.612 290.302 282.437 290.257 283.261H253.898V367.751H338.389V333.965C336.878 333.407 335.231 333.277 333.735 333.833C331.073 334.826 329.477 337.634 326.917 338.867C323.502 340.51 318.414 338.129 316.41 334.444C314.856 331.587 314.578 330.081 314.719 327.607C314.578 325.133 314.867 323.633 316.41 320.77C318.398 317.08 323.124 314.563 326.917 316.348Z" fill="#564D65"/>
<path opacity="0.4" d="M324.359 339.454C324.359 339.454 327.285 344.698 332.31 344.261C337.335 343.823 338.388 341.639 338.388 341.639L338.318 334.429L327.107 338.721C326.334 339.356 325.408 339.573 324.359 339.454Z" fill="black"/>
<path d="M428.402 294.855L457.283 283.758L473.953 267.597C474.416 267.061 479.251 258.725 479.251 258.725L487.432 276.251C487.432 276.251 467.087 296.696 459.636 299.076C453.613 301 432.291 306.224 432.291 306.224L428.402 294.855Z" fill="#564D65"/>
<path opacity="0.4" d="M446.105 302.758C446.105 302.758 449.587 289.109 457.371 286.269C465.154 283.43 475.216 287.883 474.928 288.075C474.639 288.266 466.211 296.114 465.923 296.21C465.708 296.281 454.995 300.058 449.449 301.89L446.105 302.758Z" fill="black"/>
<path d="M393.673 283.696C393.628 284.52 393.722 285.344 394.013 286.125C395.005 288.788 397.836 290.373 399.046 292.944C400.832 296.737 398.315 301.463 394.624 303.451C391.761 304.994 390.261 305.283 387.787 305.141C385.313 305.283 383.813 304.993 380.95 303.451C377.258 301.463 374.742 296.737 376.528 292.944C377.738 290.373 380.569 288.788 381.561 286.125C381.852 285.344 381.946 284.52 381.901 283.696H344.242V321.657C342.712 322.238 341.038 322.383 339.519 321.817C336.855 320.825 335.271 317.994 332.7 316.784C328.907 314.998 324.181 317.515 322.193 321.206C320.65 324.069 320.361 325.569 320.503 328.043C320.361 330.517 320.651 332.017 322.193 334.88C324.181 338.571 328.907 341.088 332.7 339.302C335.271 338.092 336.856 335.261 339.519 334.269C341.037 333.703 342.712 333.848 344.242 334.429V368.187L428.44 368.563V284.072L393.673 283.696Z" fill="#263238"/>
<g opacity="0.4">
<path d="M393.673 283.696C393.628 284.52 393.722 285.344 394.013 286.125C395.005 288.788 397.836 290.373 399.046 292.944C400.832 296.737 398.315 301.463 394.624 303.451C391.761 304.994 390.261 305.283 387.787 305.141C385.313 305.283 383.813 304.993 380.95 303.451C377.258 301.463 374.742 296.737 376.528 292.944C377.738 290.373 380.569 288.788 381.561 286.125C381.852 285.344 381.946 284.52 381.901 283.696H344.242V321.657C342.712 322.238 341.038 322.383 339.519 321.817C336.855 320.825 335.271 317.994 332.7 316.784C328.907 314.998 324.181 317.515 322.193 321.206C320.65 324.069 320.361 325.569 320.503 328.043C320.361 330.517 320.651 332.017 322.193 334.88C324.181 338.571 328.907 341.088 332.7 339.302C335.271 338.092 336.856 335.261 339.519 334.269C341.037 333.703 342.712 333.848 344.242 334.429V368.187L428.44 368.563V284.072L393.673 283.696Z" fill="#A67800"/>
</g>
<path d="M397.399 283.696C397.354 284.52 397.449 285.344 397.74 286.125C398.732 288.788 401.563 290.373 402.773 292.944C404.559 296.737 402.042 301.463 398.351 303.451C395.487 304.994 393.987 305.283 391.514 305.141C389.04 305.283 387.54 304.993 384.676 303.451C380.985 301.463 378.468 296.737 380.254 292.944C381.464 290.373 384.295 288.788 385.287 286.125C385.578 285.344 385.673 284.52 385.628 283.696H347.968V321.657C346.439 322.238 344.765 322.383 343.245 321.817C340.583 320.825 338.997 317.994 336.427 316.784C332.633 314.998 327.908 317.515 325.919 321.206C324.377 324.069 324.087 325.569 324.229 328.043C324.088 330.517 324.378 332.017 325.919 334.88C327.908 338.571 332.633 341.088 336.427 339.302C338.997 338.092 340.583 335.261 343.245 334.269C344.765 333.703 346.439 333.848 347.968 334.429V368.187L432.167 368.563V284.072L397.399 283.696Z" fill="#FFB800"/>
<path d="M456.707 340.65L469.95 339.849C467.832 351.517 465.653 359.085 466.58 365.076L461.242 368.644L456.299 363.783C456.299 363.783 455.386 354.247 456.707 340.65Z" fill="#FFBE9D"/>
<path d="M455.503 355.596L460.316 355.653C462.644 359.685 464.255 358.735 466.722 355.891C468.12 355.745 468.476 357.35 468.585 357.782L471.09 367.329C471.308 368.126 470.838 368.949 470.041 369.167C469.899 369.206 469.752 369.224 469.605 369.22C465.355 369.17 463.345 369.146 458.056 369.084L441.88 368.894C437.47 368.842 436.608 364.387 438.429 363.998C446.618 362.289 452.431 359.953 454.983 357.607C455.456 357.196 454.979 356.879 455.503 355.596Z" fill="#564D65"/>
<path d="M453.043 358.269C454.247 358.447 455.356 359.18 455.992 360.218" stroke="#263238" stroke-width="0.5" stroke-miterlimit="10" stroke-linecap="round" stroke-linejoin="round"/>
<path d="M450.848 359.88C452.051 360.059 453.161 360.792 453.797 361.829" stroke="#263238" stroke-width="0.5" stroke-miterlimit="10" stroke-linecap="round" stroke-linejoin="round"/>
<path d="M448.125 361.225C449.329 361.403 450.438 362.136 451.075 363.174" stroke="#263238" stroke-width="0.5" stroke-miterlimit="10" stroke-linecap="round" stroke-linejoin="round"/>
<path opacity="0.7" d="M470.041 369.167C469.899 369.206 469.752 369.224 469.605 369.22C465.356 369.17 463.345 369.146 458.056 369.084L441.88 368.894C439.493 368.866 438.154 367.549 437.709 366.284C438.381 366.297 470.523 366.924 470.948 366.786L471.118 367.498C471.233 368.239 470.782 368.965 470.041 369.167Z" fill="white"/>
<path d="M507.423 305.527C507.423 305.527 471.255 286.849 464.213 286.317C457.17 285.785 450.44 289.599 449.093 304.181C447.748 318.764 450.44 356.265 450.44 356.265L469.95 356.6L472.368 313.153C472.368 313.153 502.585 335.225 503.482 335.001C504.379 334.777 516.174 334.243 516.174 334.243L507.423 305.527Z" fill="#263238"/>
<path opacity="0.3" d="M507.423 305.527C507.423 305.527 471.255 286.849 464.213 286.317C457.17 285.785 450.44 289.599 449.093 304.181C447.748 318.764 450.44 356.265 450.44 356.265L469.95 356.6L472.368 313.153C472.368 313.153 502.585 335.225 503.482 335.001C504.379 334.777 516.174 334.243 516.174 334.243L507.423 305.527Z" fill="white"/>
<path opacity="0.4" d="M471.259 333.472C471.259 333.472 455.32 339.054 455.15 352.2C454.98 365.345 469.038 362.843 469.038 362.843L471.259 333.472Z" fill="black"/>
<path d="M521.269 367.721L517.684 354.685C530.217 353.328 538.591 356.414 544.418 353.664L549.665 358.031L546.199 364.536C546.199 364.536 536.96 367.674 521.269 367.721Z" fill="#FFBE9D"/>
<path d="M538.092 367.813L536.699 362.89C540.108 359.302 538.655 357.945 535.01 356.286C534.441 354.905 535.97 354.058 536.377 353.817L545.356 348.386C546.103 347.923 547.083 348.154 547.546 348.902C547.628 349.035 547.69 349.179 547.73 349.33C548.96 353.677 549.543 355.735 551.073 361.146L555.755 377.695C557.031 382.207 552.75 384.427 551.802 382.688C547.592 374.854 543.459 369.632 540.297 367.737C539.737 367.38 539.557 367.961 538.092 367.813Z" fill="#564D65"/>
<path d="M541.557 369.517C541.377 368.237 541.79 366.884 542.655 365.923" stroke="#263238" stroke-width="0.5" stroke-miterlimit="10" stroke-linecap="round" stroke-linejoin="round"/>
<path d="M543.862 371.269C543.682 369.988 544.095 368.636 544.96 367.674" stroke="#263238" stroke-width="0.5" stroke-miterlimit="10" stroke-linecap="round" stroke-linejoin="round"/>
<path d="M546.053 373.639C545.873 372.358 546.286 371.006 547.151 370.044" stroke="#263238" stroke-width="0.5" stroke-miterlimit="10" stroke-linecap="round" stroke-linejoin="round"/>
<path opacity="0.7" d="M547.547 348.902C547.629 349.034 547.691 349.179 547.731 349.33C548.961 353.677 549.543 355.735 551.074 361.146L555.756 377.695C556.446 380.136 555.507 381.898 554.352 382.734C554.163 382.045 545.114 349.087 544.846 348.695L545.52 348.306C546.241 347.967 547.116 348.207 547.547 348.902Z" fill="white"/>
<path d="M547.064 312.647L548.634 320.53C548.634 320.53 552.659 336.168 547.017 344.022C541.626 351.526 533.673 352.864 533.673 352.864L535.308 367.944L533.673 368.963C533.673 368.963 523.269 368.963 501.972 367.99C481.741 367.067 464.35 366.1 460.761 359.818C457.171 353.537 456.343 350.486 462.212 342.993C467.517 336.22 507.908 326.245 509.313 325.841L508.749 322.399L508.094 319.962L547.064 312.647Z" fill="#263238"/>
<path opacity="0.3" d="M547.064 312.647L548.634 320.53C548.634 320.53 552.659 336.168 547.017 344.022C541.626 351.526 533.673 352.864 533.673 352.864L535.308 367.944L533.673 368.963C533.673 368.963 523.269 368.963 501.972 367.99C481.741 367.067 464.35 366.1 460.761 359.818C457.171 353.537 456.343 350.486 462.212 342.993C467.517 336.22 507.908 326.245 509.313 325.841L508.749 322.399L508.094 319.962L547.064 312.647Z" fill="white"/>
<path opacity="0.4" d="M533.673 352.864C532.432 353.188 488.557 351.772 488.557 351.772C488.557 351.772 501.525 353.996 511.115 354.806C520.705 355.614 533.673 352.864 533.673 352.864Z" fill="black"/>
<path opacity="0.4" d="M509.312 325.841L534.577 321.435C534.577 321.435 516.366 321.139 509.312 325.841Z" fill="black"/>
<path d="M444.906 307.952C444.906 307.952 442.798 304.707 439.661 304.079C436.524 303.451 434.187 302.114 431.823 301.809C429.458 301.503 431.604 303.902 433.003 304.946C434.401 305.991 435.977 307.19 435.022 308.114C434.068 309.038 422.99 311.848 421.812 313.28C420.634 314.712 422.568 314.817 422.568 314.817C422.568 314.817 419.896 315.573 419.906 316.712C419.91 317.008 420.396 317.692 421.668 317.54C424.529 317.195 430.495 316.163 430.495 316.163C430.151 316.216 422.878 318.015 421.823 318.427C420.446 318.965 420.07 319.922 420.409 320.711C420.89 321.833 429.985 319.909 430.424 320.096C430.424 320.096 425.152 321.029 424.648 322.521C424.143 324.015 427.495 323.608 430.382 322.689C433.028 321.846 438.441 320.885 441.048 319.768C444.26 318.39 446.108 316.744 446.178 313.467C446.247 310.189 444.906 307.952 444.906 307.952Z" fill="#FFBE9D"/>
<path d="M441.439 307.881L449.53 304.646L452.324 313.397L442.837 316.78L441.439 307.881Z" fill="#FFBE9D"/>
<path d="M500.124 247.355C500.124 247.355 497.927 242.393 498.393 232.569C498.39 232.56 497.855 232.46 497.852 232.451C497.912 231.079 498.019 229.798 498.141 228.681C498.142 228.649 498.139 228.639 498.139 228.639L487.432 239.411C488.43 242.277 488.733 248.206 488.678 250.754C488.678 250.754 488.13 255.474 493.951 254.283C498.203 253.411 500.124 247.355 500.124 247.355Z" fill="#FFBE9D"/>
<path opacity="0.2" d="M488.203 243.592L495.045 240.231C494.927 242.637 493.574 245.78 488.594 247.201C488.594 247.201 488.493 244.564 488.203 243.592Z" fill="black"/>
<path d="M496.776 222.512C497.835 230.681 498.597 235.266 495.302 240.159C490.346 247.518 479.903 245.789 476.416 238.079C473.277 231.138 472.073 218.945 479.388 214.284C486.594 209.691 495.718 214.343 496.776 222.512Z" fill="#FFBE9D"/>
<path d="M493.63 211.02C489.848 206.593 482.806 210.469 480.129 213.342C479.729 213.772 486.972 215.818 486.543 215.749L488.831 217.646C489.126 217.518 489.736 220.325 490.253 222.757C490.727 224.991 491.793 227.048 493.351 228.718C494.656 230.117 496.404 231.793 498.367 233.153C500.921 231.236 500.141 226.298 500.468 223.206C500.955 218.599 500.847 209.974 493.63 211.02Z" fill="#263238"/>
<path d="M501.26 228.628C501.015 230.83 499.77 232.706 498.321 233.81C496.142 235.471 494.736 233.01 494.475 230.422C494.24 228.093 494.371 225.176 496.975 224.532C499.541 223.897 501.541 226.109 501.26 228.628Z" fill="#FFBE9D"/>
<path d="M485.67 227.067C485.829 227.894 485.518 228.643 484.977 228.742C484.435 228.841 483.867 228.251 483.708 227.425C483.549 226.598 483.859 225.849 484.401 225.75C484.942 225.651 485.51 226.241 485.67 227.067Z" fill="#263238"/>
<path d="M477.598 228.789C477.757 229.615 477.447 230.365 476.905 230.463C476.363 230.562 475.795 229.972 475.635 229.146C475.476 228.32 475.786 227.57 476.328 227.472C476.87 227.373 477.439 227.962 477.598 228.789Z" fill="#263238"/>
<path d="M480.146 227.822C480.146 227.822 478.32 232.431 477.805 234.263C479.154 235.081 481.043 234.221 481.043 234.221L480.146 227.822Z" fill="#EBB78B"/>
<path d="M486.939 222.785C486.824 222.859 486.673 222.872 486.541 222.805C484.97 222.003 483.698 222.701 483.685 222.708C483.496 222.815 483.254 222.749 483.146 222.562C483.038 222.374 483.104 222.134 483.292 222.028C483.358 221.989 484.951 221.114 486.9 222.111C487.094 222.21 487.171 222.446 487.072 222.639C487.041 222.699 486.994 222.748 486.939 222.785Z" fill="#263238"/>
<path d="M484.256 236.333C485.597 236.085 486.508 235.217 487.355 234.019" stroke="#263238" stroke-width="0.75" stroke-miterlimit="10" stroke-linecap="round" stroke-linejoin="round"/>
<path opacity="0.2" d="M498.986 226.75C498.568 226.33 497.871 226.281 497.333 226.529C496.795 226.777 496.404 227.27 496.15 227.805C495.845 228.447 495.71 229.169 495.766 229.878" stroke="black" stroke-width="0.5" stroke-miterlimit="10" stroke-linecap="round" stroke-linejoin="round"/>
<path d="M473.351 225.99C473.276 225.988 473.201 225.965 473.134 225.918C472.955 225.794 472.909 225.548 473.032 225.37C474.263 223.581 476.072 223.633 476.154 223.624C476.371 223.631 476.543 223.813 476.538 224.031C476.533 224.247 476.355 224.417 476.139 224.412C476.063 224.407 474.669 224.385 473.68 225.821C473.604 225.934 473.479 225.993 473.351 225.99Z" fill="#263238"/>
<path d="M493.63 211.02C493.63 211.02 488.601 204.806 479.903 206.856C472.907 208.505 469.258 213.624 469.122 218.52C469.064 220.624 469.53 222.189 470.082 223.291C470.499 224.122 471.695 223.998 471.963 223.106C472.039 222.853 472.13 222.604 472.236 222.361C472.264 222.416 472.295 222.471 472.327 222.523C472.836 223.378 474.192 223.064 474.213 222.069C474.219 221.755 474.255 221.441 474.32 221.131C474.325 221.138 474.329 221.146 474.334 221.153C474.801 221.902 475.969 221.675 476.155 220.813C476.978 217.007 481.616 214.148 485.807 215.849L488.832 217.645C492.299 215.62 493.63 211.02 493.63 211.02Z" fill="#263238"/>
<path opacity="0.4" d="M506.684 320.192L506.207 323.391L492.1 327.638L495.351 329.722L509.313 325.841L509.889 319.625L506.684 320.192Z" fill="black"/>
<path d="M517.224 248.36C510.89 244.298 499.726 246.229 499.726 246.229L479.25 258.724L493.251 291.636C493.251 291.636 499.095 305.633 502.247 314.955C503.028 317.265 504.522 320.486 506.94 320.171L545.832 313.14C547.732 312.796 548.933 310.9 548.418 309.039C544.664 295.477 522.898 251.998 517.224 248.36Z" fill="#564D65"/>
<path opacity="0.4" d="M520.879 266.666C520.879 266.666 514.648 278.398 503.705 288.628C499.286 292.759 496.216 298.715 496.216 298.715L493.473 291.707L520.879 266.666Z" fill="black"/>
<path d="M501.599 257.624L475.086 290.685L443.959 304.817L447.062 317.701C447.062 317.701 472.301 310.891 482.444 304.57C492.587 298.249 509.311 280.572 509.311 280.572C509.311 280.572 523.896 268.867 523.2 259.398C522.505 249.928 508.623 247.716 501.599 257.624Z" fill="#564D65"/>
<path d="M487.207 253.869C487.207 253.869 488.192 248.818 488.669 249.022C489.146 249.225 493.886 252.07 493.886 252.07L499.186 244.129L502.368 246.234L495.045 261.415L487.207 253.869Z" fill="#564D65"/>
<path opacity="0.4" d="M484.88 275.058L478.766 266.666L483.705 279.806L486.11 277.248L502.993 255.907L484.88 275.058Z" fill="black"/>
<path opacity="0.4" d="M487.207 253.869C487.474 253.965 491.865 256.924 491.625 256.973C491.385 257.021 493.473 253.432 493.473 253.432L498.127 255.202L501.947 245.955L498.187 256.607L493.778 254.475L491.625 258.379L487.207 253.869Z" fill="black"/>
<path d="M185.091 191.017C185.137 190.193 185.042 189.369 184.751 188.587C183.759 185.925 180.928 184.34 179.718 181.769C177.932 177.976 180.449 173.25 184.14 171.262C187.004 169.719 188.503 169.43 190.977 169.571C193.451 169.43 194.951 169.72 197.815 171.262C201.505 173.25 204.023 177.976 202.237 181.769C201.026 184.34 198.196 185.925 197.204 188.587C196.913 189.369 196.818 190.193 196.863 191.017H234.523V153.056C236.052 152.474 237.726 152.33 239.246 152.896C241.908 153.888 243.493 156.719 246.064 157.929C249.857 159.715 254.583 157.198 256.572 153.507C258.114 150.643 258.404 149.144 258.262 146.67C258.404 144.196 258.114 142.696 256.572 139.833C254.583 136.141 249.857 133.624 246.064 135.41C243.493 136.621 241.908 139.451 239.246 140.443C237.727 141.009 236.052 140.865 234.523 140.284V106.526L150.324 106.149V190.64L185.091 191.017Z" fill="#263238"/>
<g opacity="0.4">
<path d="M185.091 191.017C185.137 190.193 185.042 189.369 184.751 188.587C183.759 185.925 180.928 184.34 179.718 181.769C177.932 177.976 180.449 173.25 184.14 171.262C187.004 169.719 188.503 169.43 190.977 169.571C193.451 169.43 194.951 169.72 197.815 171.262C201.505 173.25 204.023 177.976 202.237 181.769C201.026 184.34 198.196 185.925 197.204 188.587C196.913 189.369 196.818 190.193 196.863 191.017H234.523V153.056C236.052 152.474 237.726 152.33 239.246 152.896C241.908 153.888 243.493 156.719 246.064 157.929C249.857 159.715 254.583 157.198 256.572 153.507C258.114 150.643 258.404 149.144 258.262 146.67C258.404 144.196 258.114 142.696 256.572 139.833C254.583 136.141 249.857 133.624 246.064 135.41C243.493 136.621 241.908 139.451 239.246 140.443C237.727 141.009 236.052 140.865 234.523 140.284V106.526L150.324 106.149V190.64L185.091 191.017Z" fill="black"/>
</g>
<path d="M187.644 191.017C187.689 190.193 187.595 189.369 187.304 188.587C186.312 185.925 183.481 184.34 182.271 181.769C180.485 177.976 183.002 173.25 186.693 171.262C189.556 169.719 191.056 169.43 193.53 169.571C196.004 169.43 197.504 169.72 200.367 171.262C204.059 173.25 206.575 177.976 204.79 181.769C203.579 184.34 200.749 185.925 199.756 188.587C199.465 189.369 199.371 190.193 199.416 191.017H237.075V153.056C238.605 152.474 240.279 152.33 241.799 152.896C244.462 153.888 246.046 156.719 248.617 157.929C252.41 159.715 257.136 157.198 259.124 153.507C260.667 150.643 260.956 149.144 260.814 146.67C260.956 144.196 260.666 142.696 259.124 139.833C257.136 136.141 252.41 133.624 248.617 135.41C246.046 136.621 244.461 139.451 241.799 140.443C240.28 141.009 238.605 140.865 237.075 140.284V106.526L152.877 106.149V190.64L187.644 191.017Z" fill="#263238"/>
<path d="M131.662 145.792C131.662 145.792 125.514 167.575 129.447 171.367C133.38 175.158 147.142 172.63 146.44 172.35C145.739 172.069 149.952 145.873 150.232 146.822C150.513 147.773 131.662 145.792 131.662 145.792Z" fill="#B97964"/>
<path d="M139.312 342.471L139.293 361.368L148.067 362.05L151.151 344.298C147.138 341.4 143.189 340.708 139.312 342.471Z" fill="#B97964"/>
<path d="M139.215 359.396C138.352 361.89 138.295 372.094 138.295 372.094L156.893 372.115C157.999 368.425 156.288 365.906 154.119 365.572C153.187 365.43 152.091 364.393 151.291 363.488C151.285 363.371 150.148 357.702 149.445 357.431C149.445 357.431 148.961 356.842 148.548 357.431C148.136 358.018 147.777 359.934 147.777 359.934C144.875 356.032 142.03 356.552 139.215 359.396Z" fill="#263238"/>
<path d="M138.989 362.359C141.091 361.52 143.346 361.839 145.178 363.233C145.498 363.477 145.802 362.906 145.484 362.664C143.533 361.179 141.065 360.831 138.828 361.725C138.463 361.869 138.621 362.505 138.989 362.359Z" fill="white"/>
<path d="M156.838 370.624C156.837 370.624 156.837 370.624 156.838 370.624L138.512 370.602C138.344 370.602 138.209 370.455 138.209 370.273C138.209 370.091 138.345 369.944 138.513 369.944L156.839 369.965C157.007 369.965 157.142 370.113 157.142 370.295C157.141 370.476 157.005 370.624 156.838 370.624Z" fill="white"/>
<path d="M177.166 340.007L177.145 361.334L185.587 362.03L189.741 342.067C186.351 339.339 182.415 338.003 177.166 340.007Z" fill="#B97964"/>
<path d="M176.762 359.44C175.898 361.933 175.842 372.138 175.842 372.138L197.209 372.163C198.314 368.473 196.005 366.285 193.836 365.951C192.904 365.809 189.637 364.437 188.838 363.532C188.832 363.414 187.696 357.747 186.993 357.475C186.993 357.475 186.508 356.886 186.096 357.474C185.683 358.062 185.325 359.978 185.325 359.978C182.422 356.075 179.577 356.596 176.762 359.44Z" fill="#263238"/>
<path d="M176.536 362.402C178.638 361.564 180.893 361.883 182.725 363.276C183.045 363.52 183.349 362.949 183.031 362.708C181.08 361.223 178.612 360.874 176.374 361.767C176.01 361.913 176.168 362.549 176.536 362.402Z" fill="white"/>
<path d="M197.21 370.67L176.059 370.646C175.891 370.646 175.756 370.498 175.756 370.316C175.756 370.135 175.892 369.987 176.06 369.987L197.211 370.012C197.379 370.012 197.515 370.16 197.515 370.342C197.515 370.523 197.378 370.67 197.21 370.67Z" fill="white"/>
<path d="M135.675 351.784L154.372 352.78C158.568 339.185 162.713 290.439 163.142 275.805C163.654 258.318 169.916 214.433 164.38 205.3C158.844 196.168 133.803 203.441 133.803 203.441C133.803 203.441 136.923 256.878 135.676 273.92C134.594 288.69 132.921 332.107 135.675 351.784Z" fill="#263238"/>
<path d="M156.39 347.854L155.175 354.101L134.913 353.442L134.17 347.445L156.39 347.854Z" fill="#564D65"/>
<path d="M173.017 351.784L191.553 352.78C193.81 337.73 202.876 282.922 202.131 272.424C201.222 259.6 190.486 204.091 186.494 199.811C182.502 195.532 153.273 206.625 153.273 206.625C153.273 206.625 165.286 254.359 174.757 275.003C176.725 279.291 171.495 333.48 173.017 351.784Z" fill="#263238"/>
<path d="M193.672 348.322L192.727 354.1L172.127 352.779L171.713 346.729L193.672 348.322Z" fill="#564D65"/>
<path opacity="0.3" d="M164.967 248.708L159.524 230.516L149.867 227.364L157.417 233.217L163.489 266.377L164.967 248.708Z" fill="black"/>
<path d="M175.381 87.5797C175.381 88.3645 175.725 88.9565 176.221 89.0393C176.717 89.1222 177.171 88.4612 177.212 87.6626C177.253 86.8639 176.881 86.2858 176.385 86.203C175.89 86.1201 175.477 86.8221 175.381 87.5797Z" fill="#263238"/>
<path d="M175.697 87.4697C175.973 89.9994 176.598 92.4791 177.556 94.8366C176.315 95.2925 174.935 95.1818 173.783 94.534L175.697 87.4697Z" fill="#A24E3F"/>
<path d="M173.962 85.0597C173.86 85.0696 173.759 85.0458 173.672 84.9908C173.494 84.8145 173.492 84.5267 173.668 84.348C173.669 84.3463 173.671 84.3447 173.672 84.343C174.591 83.1991 176.009 82.5727 177.473 82.6629C177.716 82.685 177.895 82.8982 177.873 83.1409C177.873 83.1426 177.873 83.1434 177.873 83.145C177.831 83.3894 177.611 83.5616 177.364 83.5444C176.204 83.4919 175.089 84.0052 174.376 84.9211C174.271 85.0376 174.114 85.0901 173.962 85.0597Z" fill="#263238"/>
<path d="M175.712 98.0025C175.61 98.4216 175.482 98.8348 175.332 99.2391C174.489 101.55 172.957 103.557 170.934 104.997C170.426 105.364 169.888 105.691 169.327 105.974C164.921 108.291 159.486 107.441 156.028 103.895C151.578 99.4777 151.693 94.3749 151.187 85.7378C151.053 83.8813 151.361 82.0207 152.085 80.302C154.635 74.2701 161.675 71.4116 167.811 73.9183C167.812 73.9191 167.814 73.92 167.815 73.92C176.399 77.3713 177.583 90.2175 175.712 98.0025Z" fill="#B97964"/>
<path opacity="0.2" d="M170.901 104.997C170.393 105.364 169.856 105.691 169.294 105.974C166.313 107.537 162.773 107.689 159.664 106.39C160.062 105.352 160.591 104.367 161.239 103.459C164.543 103.052 167.897 103.586 170.901 104.997Z" fill="black"/>
<path d="M153.217 116.202C157.551 120.068 168.154 118.645 168.154 118.645C168.154 118.645 174.771 116.857 173.376 114.83C169.486 114.196 167.593 112.408 166.811 110.111C166.388 108.692 166.256 107.205 166.42 105.735C166.482 104.915 166.592 104.1 166.748 103.292L153.639 93.751C155.352 100.05 157.456 111.638 153.217 116.202Z" fill="#B97964"/>
<path d="M170.902 90.1456L172.794 90.8418L171.854 87.0378C171.854 87.0378 174.624 82.8804 171.854 79.2741C171.854 79.2741 179.508 76.9879 175.184 73.038C173.577 71.562 171.579 73.038 166.294 70.7822C163.428 69.5456 154.464 69.4521 154.021 73.038C154.021 73.038 147.561 73.038 146.864 83.8472C146.451 90.2588 148.957 96.5187 153.704 100.934C153.704 100.934 161.506 102.742 165.332 99.6667C169.158 96.5892 170.902 90.1456 170.902 90.1456Z" fill="#263238"/>
<path d="M165.912 90.7584C166.246 92.4041 167.318 93.8137 168.829 94.5935C170.616 95.3422 171.799 92.8683 171.535 90.2697C171.292 87.9622 170.077 84.7191 168.163 85.1562C166.251 85.5932 165.288 88.4304 165.912 90.7584Z" fill="#B97964"/>
<path d="M139.888 114.124C139.888 114.124 136.842 115.05 135.327 115.605C132.168 116.762 130.084 120.278 128.941 123.73C126.148 132.166 121.635 152.137 121.635 152.137L138.013 155.579L146.75 136.763L139.888 114.124Z" fill="#564D65"/>
<path opacity="0.5" d="M139.888 114.124C139.888 114.124 135.505 114.94 133.198 116.846C131.442 118.296 130.043 120.4 128.941 123.73C126.148 132.166 121.635 152.137 121.635 152.137L138.013 155.579L146.75 136.763L139.888 114.124Z" fill="white"/>
<path d="M179.553 115.093C174.722 114.573 159.863 111.216 139.888 114.124L135.214 187.982C135.214 187.982 134.613 199.282 132.844 208.978C153.144 217.695 177.158 215.202 190.737 207.875C190.58 208.183 190.136 200.123 189.439 188.318C188.212 167.514 186.204 135.078 183.612 116.298C183.541 115.835 180.034 115.144 179.553 115.093Z" fill="#564D65"/>
<g opacity="0.5">
<path d="M179.553 115.093C174.722 114.573 159.863 111.216 139.888 114.124L135.214 187.982C135.214 187.982 134.613 199.282 132.844 208.978C153.144 217.695 177.158 215.202 190.737 207.875C190.58 208.183 190.136 200.123 189.439 188.318C188.212 167.514 186.204 135.078 183.612 116.298C183.541 115.835 180.034 115.144 179.553 115.093Z" fill="white"/>
</g>
<path d="M152.998 113.356C153.575 111.638 154.379 110.431 155.409 109.732L166.533 110.59L171.748 114.028L152.998 113.356Z" fill="#564D65"/>
<path opacity="0.5" d="M152.998 113.356C153.575 111.638 154.379 110.431 155.409 109.732L166.533 110.59L171.748 114.028L152.998 113.356Z" fill="white"/>
<path opacity="0.2" d="M179.035 138.08C180.816 146.399 183.378 162.706 188.211 168.39L187.062 151.886L179.035 138.08Z" fill="black"/>
<path opacity="0.2" d="M136.971 155.349L137.401 134.019L132.924 154.335L136.971 155.349Z" fill="black"/>
<path d="M187.564 144.66C186.94 144.9 198.986 172.003 203.891 172.245C208.795 172.487 231.821 162.009 231.821 162.009L226.655 155.842L209.251 156.84L200.374 137.944L187.564 144.66Z" fill="#B97964"/>
<path d="M181.507 116.022C175.259 120.148 172.163 129.49 188.911 158.334L206.998 147.289C203.339 140.539 199.463 135.631 195.155 125.854C186.472 113.353 181.507 116.022 181.507 116.022Z" fill="#564D65"/>
<path opacity="0.5" d="M181.507 116.022C175.259 120.148 172.163 129.49 188.911 158.334L206.998 147.289C203.339 140.539 199.463 135.631 195.155 125.854C186.472 113.353 181.507 116.022 181.507 116.022Z" fill="white"/>
<path d="M239.932 155.659C239.932 154.078 239.444 152.358 238.593 152.306C237.741 152.253 233.193 152.301 233.193 152.301C233.193 151.024 235.587 149.628 234.807 148.756C233.79 147.619 227.895 152.478 227.522 153.47C226.793 155.417 226.428 155.903 226.428 155.903L229.544 163.054C229.544 163.054 235.309 166.852 236.647 165.514C237.986 164.176 237.864 162.746 237.864 162.746C237.864 162.746 239.203 160.891 239.081 159.675C238.958 158.457 239.932 157.241 239.932 155.659Z" fill="#B97964"/>
</svg>
