<svg width="86" height="86" viewBox="0 0 86 86" fill="none" xmlns="http://www.w3.org/2000/svg">
<g clip-path="url(#clip0_216_11406)">
<path d="M59.275 27.0566L36.6638 49.6955L26.4211 39.4528L18.6079 47.2659L36.6638 65.2942L67.0882 34.8698L59.275 27.0566Z" fill="#FFB800"/>
<path d="M43.0138 0C19.243 0 0 19.243 0 43.0138C0 66.7846 19.243 86.0276 43.0138 86.0276C66.7846 86.0276 86.0276 66.7846 86.0276 43.0138C86.0276 19.243 66.757 0 43.0138 0ZM43.0138 74.9567C25.3445 74.9567 11.0433 60.6555 11.0433 42.9862C11.0433 25.3445 25.3445 11.0433 43.0138 11.0433C60.6831 11.0433 74.9843 25.3445 74.9843 43.0138C74.9567 60.6831 60.6831 74.9567 43.0138 74.9567Z" fill="#FFB800"/>
</g>
<defs>
<clipPath id="clip0_216_11406">
<rect width="86" height="86" fill="white"/>
</clipPath>
</defs>
</svg>
