<svg width="1440" height="744" viewBox="0 0 1440 744" fill="none" xmlns="http://www.w3.org/2000/svg">
<g clip-path="url(#clip0_1807_2048)">
<path d="M1441 0L1440 744H570.5H493.5H463.5H400.5H327H247.5L0 744V0H1441Z" fill="url(#paint0_linear_1807_2048)"/>
<path d="M1182.09 -35.5113C1156.53 13.1554 1133.36 63.1098 1102.84 108.838C1077.95 146.071 1047.12 177.934 1013.62 208.283C980.692 238.071 946.522 266.715 918.433 300.842C855.256 377.849 843.48 477.119 820.69 570.869C810.234 613.676 795.533 657.013 764.123 689.436C737.896 716.566 703.177 734.146 668.602 750.575C651.678 758.629 634.354 766.468 617.74 775.124L603.691 778.862C628.88 764.716 655.846 753.306 682.759 740.006C719.332 721.997 754.319 700.602 777.482 667.827C805.433 628.281 815.591 579.692 825.677 533.004C835.715 485.816 845.467 438.277 862.393 393.085C878.734 349.718 902.726 311.054 934.881 277.171C965.528 244.694 999.477 217.713 1033.19 185.576C1066.9 153.439 1094.82 117.559 1118.22 77.9413C1139.87 41.2683 1158.43 2.61623 1178.2 -35.2668L1182.08 -35.6365L1182.09 -35.5113Z" fill="#AB96C1"/>
<path d="M1072.56 -41.0004C1060.92 -7.99662 1053.09 25.9287 1044 58.9957C1034.51 93.8876 1023.61 128.701 1005.74 161.594C987.776 194.752 961.504 224.382 929.171 251.218C896.041 278.786 858.492 303.484 823.144 329.554C786.171 356.841 752.727 385.97 727.156 419.188C700.599 453.669 682.04 491.21 671.808 530.376C660.965 571.772 657.887 614.356 649.747 656.05C640.666 702.423 623.133 747.186 596.993 789.093L591.617 790.776C614.362 755.248 630.874 717.582 640.637 678.728C651.089 637.253 654.167 594.669 662.557 552.945C670.508 513.809 684.442 475.83 707.452 440.396C729.384 406.491 758.813 375.708 793.552 347.812C827.369 320.664 865.06 296.076 900.111 269.662C935.271 243.108 967.136 214.556 989.192 181.649C1010.92 149.163 1023.91 113.835 1034.47 78.3043C1046.09 39.0921 1054.39 -1.35347 1068.06 -40.4402L1072.56 -41.0004Z" fill="#AB96C1"/>
<path d="M437.514 782.497C445.309 765.888 451.972 749.154 457.377 732.672C474.223 682.092 479.378 632.77 496.601 582.065C505.401 556.398 517.344 530.101 534.441 506.321C548.647 486.819 565.87 470.336 584.853 456.874C619.425 432.213 656.26 417.366 691.963 398.241C724.523 380.752 758.215 358.608 781.473 324.636C797.187 301.737 806.49 276.699 814.284 252.541C822.079 228.132 828.742 203.723 835.782 179.44C849.862 130.495 865.451 80.5447 893.988 32.8588C901.405 20.4026 909.451 8.57548 918 -3H915.486C901.28 16.2505 888.583 36.5076 877.771 58.0229C854.011 105.331 840.81 153.521 827.359 200.955C814.159 247.257 802.09 301.485 764.627 342.629C735.461 374.713 698.123 393.083 663.677 410.32C629.357 427.432 593.15 444.292 561.973 472.727C522.875 508.208 501.126 556.775 488.178 601.945C473.972 651.518 467.938 700.21 448.954 750.161C444.806 761.107 440.154 772.054 435 783L437.514 782.497Z" fill="#FFB800"/>
<path d="M184.2 -0.00019531C181 4.4998 177.7 8.7998 174.3 13.0998C162.8 27.1998 149.1 38.8998 134.4 49.8998C119.9 60.6998 104.9 70.9998 92.2 83.6998C63.7 112.5 55.1 152.2 42.2 189.3C36.3 206.3 28.7 223.2 14.7 235.1C10.3 239 5.3 242.2 0 245V243.3C7.9 238.9 15.1 233.6 21 226.8C33.8 211.9 39.8 192.6 45.7 174C51.6 155.3 57.3 136.4 65.9 118.8C74.2 101.8 85.4 87.0998 99.7 74.5998C113.4 62.6998 128.1 52.9998 143 41.2998C157.9 29.5998 170.6 16.1998 181.6 0.999805C181.9 0.599805 182.2 0.199805 182.4 -0.200195H184.2V-0.00019531Z" fill="#FFB800"/>
<path d="M147.6 0C137.6 11.5 125.3 21.7 111.2 30.8C93.1 42.4 72.9 52.4 53.7 63.2C33.7 74.5 15.3 86.9 0.5 101.9C0.3 102.1 0.2 102.2 0 102.4V99.8C11 89 23.7 79.3 37.9 70.5C56.4 59 76.7 49.1 95.7 38.1C114.7 27.1 132.3 15 145.2 0H147.6Z" fill="#AB96C1"/>
<path d="M64 0C49.8 8.9 36.7 18.7 25.7 29.8C15.4 40.3 6.8 51.6 0 63.7V59.8C4.2 52.6 9 45.7 14.6 39.1C27 24.3 42.6 11.3 60.6 0L64 0Z" fill="#AB96C1"/>
</g>
<defs>
<linearGradient id="paint0_linear_1807_2048" x1="1053.67" y1="886.443" x2="-517.975" y2="-1229.52" gradientUnits="userSpaceOnUse">
<stop offset="0.0822913" stop-color="#6E5F80"/>
<stop offset="1" stop-color="#7E664D"/>
</linearGradient>
<clipPath id="clip0_1807_2048">
<rect width="1440" height="744" fill="white"/>
</clipPath>
</defs>
</svg>
