<svg width="153" height="32" viewBox="0 0 153 32" fill="none" xmlns="http://www.w3.org/2000/svg">
<g id="temp_logo 1">
<path id="Vector" d="M32 16C32 24.8 24.8 32 16 32C7.2 32 0 24.8 0 16C0 7.2 7.2 0 16 0C23.7 0 30.1 5.4 31.6 12.6C30.6 9.3 27.6 7 24 7C19.6 7 16 10.6 16 15C16 19.4 19.6 23 24 23C28.3 23 31.8 19.7 32 15.5C32 15.6 32 15.8 32 16Z" fill="white"/>
<path id="Vector_2" d="M31.9992 14.9998C31.9992 15.0998 31.9992 15.2998 31.9992 15.3998C31.9992 14.4998 31.8992 13.5998 31.6992 12.7998C31.8992 13.4998 31.9992 14.1998 31.9992 14.9998Z" fill="white"/>
<path id="Vector_3" d="M52.3 24.2002C50.8 24.2002 49.5 23.9002 48.3 23.3002C47.1 22.7002 46.2 22.0002 45.5 21.0002C44.8 20.0002 44.5 18.8002 44.5 17.4002C44.5 16.1002 44.8 14.9002 45.5 13.9002C46.2 12.9002 47.1 12.1002 48.3 11.5002C49.5 10.9002 50.8 10.6002 52.3 10.6002C53.9 10.6002 55.3 10.9002 56.4 11.6002C57.5 12.3002 58.3 13.2002 58.8 14.5002L54.6 16.6002C54.3 16.0002 54 15.6002 53.6 15.3002C53.2 15.0002 52.8 14.9002 52.3 14.9002C51.9 14.9002 51.5 15.0002 51.2 15.2002C50.9 15.4002 50.6 15.7002 50.4 16.1002C50.2 16.5002 50.1 16.9002 50.1 17.5002C50.1 18.1002 50.2 18.6002 50.4 18.9002C50.6 19.3002 50.9 19.6002 51.2 19.8002C51.6 20.0002 51.9 20.1002 52.3 20.1002C52.8 20.1002 53.2 20.0002 53.6 19.7002C54 19.4002 54.3 19.0002 54.6 18.4002L58.8 20.5002C58.4 21.7002 57.6 22.7002 56.4 23.4002C55.2 23.9002 53.9 24.2002 52.3 24.2002ZM67.1 24.2002C65.5 24.2002 64.1 23.9002 62.9 23.3002C61.7 22.7002 60.8 21.9002 60.1 20.9002C59.4 19.9002 59.1 18.7002 59.1 17.4002C59.1 16.1002 59.4 14.9002 60.1 13.9002C60.8 12.9002 61.6 12.1002 62.8 11.5002C63.9 10.9002 65.2 10.6002 66.6 10.6002C67.9 10.6002 69.1 10.9002 70.2 11.4002C71.3 11.9002 72.2 12.7002 72.8 13.7002C73.5 14.7002 73.8 16.0002 73.8 17.4002C73.8 17.6002 73.8 17.8002 73.8 18.0002C73.8 18.2002 73.8 18.4002 73.8 18.6002H63.6V16.0002H70.8L68.8 16.7002C68.8 16.2002 68.7 15.8002 68.5 15.4002C68.3 15.0002 68.1 14.8002 67.8 14.6002C67.5 14.4002 67.1 14.3002 66.6 14.3002C66.2 14.3002 65.8 14.4002 65.4 14.6002C65.1 14.8002 64.8 15.1002 64.7 15.4002C64.5 15.8002 64.4 16.2002 64.4 16.7002V17.5002C64.4 18.1002 64.5 18.5002 64.7 18.9002C64.9 19.3002 65.2 19.6002 65.7 19.8002C66.1 20.0002 66.6 20.1002 67.2 20.1002C67.8 20.1002 68.3 20.0002 68.7 19.9002C69.1 19.7002 69.5 19.5002 69.9 19.2002L72.7 22.1002C72.1 22.8002 71.3 23.3002 70.3 23.7002C69.5 24.1002 68.4 24.2002 67.1 24.2002ZM84.6 10.6002C85.6 10.6002 86.5 10.8002 87.3 11.2002C88.1 11.6002 88.8 12.2002 89.2 13.1002C89.7 14.0002 89.9 15.1002 89.9 16.5002V24.0002H84.5V17.4002C84.5 16.6002 84.4 16.0002 84.1 15.7002C83.8 15.3002 83.4 15.2002 82.9 15.2002C82.5 15.2002 82.2 15.3002 81.9 15.5002C81.6 15.7002 81.3 15.9002 81.2 16.3002C81 16.7002 81 17.2002 81 17.8002V24.0002H75.6V10.9002H80.8V14.7002L79.8 13.6002C80.3 12.6002 81 11.9002 81.9 11.4002C82.6 10.9002 83.6 10.6002 84.6 10.6002ZM98.7 24.2002C96.9 24.2002 95.5 23.8002 94.5 22.9002C93.5 22.0002 93 20.7002 93 18.9002V7.9002H98.4V18.8002C98.4 19.2002 98.5 19.5002 98.7 19.7002C98.9 19.9002 99.2 20.0002 99.5 20.0002C100 20.0002 100.4 19.9002 100.7 19.6002L102 23.4002C101.6 23.6002 101.1 23.8002 100.5 23.9002C100 24.2002 99.4 24.2002 98.7 24.2002ZM91.2 15.6002V11.6002H101.1V15.6002H91.2ZM112.5 10.6002C113.5 10.6002 114.4 10.8002 115.2 11.2002C116 11.6002 116.7 12.2002 117.1 13.1002C117.6 14.0002 117.8 15.1002 117.8 16.5002V24.0002H112.4V17.4002C112.4 16.6002 112.3 16.0002 112 15.7002C111.7 15.3002 111.3 15.2002 110.8 15.2002C110.4 15.2002 110.1 15.3002 109.8 15.5002C109.5 15.7002 109.2 15.9002 109.1 16.3002C108.9 16.7002 108.8 17.2002 108.8 17.9002V24.0002H103.4V6.2002H108.8V14.7002L107.5 13.6002C108 12.6002 108.7 11.9002 109.6 11.4002C110.5 10.9002 111.5 10.6002 112.5 10.6002ZM120.3 24.0002V10.9002H125.5V14.9002L124.7 13.8002C125.1 12.8002 125.7 12.0002 126.6 11.5002C127.5 11.0002 128.5 10.7002 129.8 10.7002V15.5002C129.6 15.5002 129.3 15.4002 129.2 15.4002C129 15.4002 128.8 15.4002 128.6 15.4002C127.8 15.4002 127.1 15.6002 126.6 16.0002C126.1 16.4002 125.8 17.1002 125.8 18.2002V24.0002H120.3ZM131.2 24.0002V10.9002H136.6V24.0002H131.2ZM133.9 9.8002C132.9 9.8002 132.1 9.5002 131.5 9.0002C130.9 8.5002 130.6 7.8002 130.6 7.0002C130.6 6.2002 130.9 5.6002 131.5 5.0002C132.1 4.4002 132.9 4.2002 133.9 4.2002C134.9 4.2002 135.7 4.4002 136.3 4.9002C136.9 5.4002 137.2 6.0002 137.2 6.8002C137.2 7.6002 136.9 8.3002 136.3 8.9002C135.7 9.60019 134.9 9.8002 133.9 9.8002ZM144.2 24.2002C143.1 24.2002 142 24.1002 140.9 23.8002C139.8 23.6002 138.9 23.2002 138.3 22.9002L139.8 19.3002C140.4 19.7002 141.1 20.0002 142 20.2002C142.8 20.4002 143.6 20.5002 144.4 20.5002C145.1 20.5002 145.5 20.4002 145.7 20.3002C145.9 20.2002 146.1 20.0002 146.1 19.8002C146.1 19.6002 146 19.5002 145.7 19.4002C145.4 19.3002 145.1 19.2002 144.6 19.2002C144.1 19.2002 143.7 19.1002 143.1 19.0002C142.6 18.9002 142 18.8002 141.5 18.7002C141 18.6002 140.5 18.3002 140 18.1002C139.6 17.8002 139.2 17.4002 138.9 16.9002C138.6 16.4002 138.5 15.8002 138.5 15.0002C138.5 14.2002 138.7 13.4002 139.2 12.7002C139.7 12.0002 140.5 11.5002 141.5 11.1002C142.5 10.7002 143.7 10.5002 145.2 10.5002C146.2 10.5002 147.1 10.6002 148.1 10.8002C149.1 11.0002 149.9 11.2002 150.6 11.6002L149.1 15.2002C148.4 14.8002 147.8 14.6002 147.1 14.5002C146.5 14.4002 145.9 14.3002 145.3 14.3002C144.6 14.3002 144.1 14.4002 143.9 14.5002C143.7 14.6002 143.5 14.8002 143.5 14.9002C143.5 15.1002 143.6 15.2002 143.9 15.3002C144.2 15.4002 144.5 15.5002 145 15.5002C145.4 15.5002 145.9 15.6002 146.5 15.7002C147 15.8002 147.6 15.9002 148.1 16.0002C148.6 16.1002 149.1 16.4002 149.6 16.6002C150 16.9002 150.4 17.3002 150.7 17.8002C151 18.3002 151.1 18.9002 151.1 19.6002C151.1 20.4002 150.9 21.1002 150.4 21.8002C149.9 22.5002 149.2 23.0002 148.1 23.4002C147 24.0002 145.7 24.2002 144.2 24.2002Z" fill="white"/>
</g>
</svg>
