<svg width="19" height="19" viewBox="0 0 19 19" fill="none" xmlns="http://www.w3.org/2000/svg">
<path d="M16.625 3.58594H2.375C2.21753 3.58594 2.06651 3.64849 1.95516 3.75984C1.84381 3.87119 1.78125 4.02222 1.78125 4.17969V14.2734C1.78125 14.5884 1.90636 14.8904 2.12906 15.1131C2.35176 15.3358 2.65381 15.4609 2.96875 15.4609H16.0312C16.3462 15.4609 16.6482 15.3358 16.8709 15.1131C17.0936 14.8904 17.2188 14.5884 17.2188 14.2734V4.17969C17.2188 4.02222 17.1562 3.87119 17.0448 3.75984C16.9335 3.64849 16.7825 3.58594 16.625 3.58594ZM9.5 9.90566L3.90168 4.77344H15.0983L9.5 9.90566ZM7.32613 9.52344L2.96875 13.5171V5.52973L7.32613 9.52344ZM8.20488 10.3287L9.09551 11.1488C9.20505 11.2494 9.34833 11.3052 9.49703 11.3052C9.64573 11.3052 9.78901 11.2494 9.89855 11.1488L10.7892 10.3287L15.0939 14.2734H3.90168L8.20488 10.3287ZM11.6739 9.52344L16.0312 5.52898V13.5179L11.6739 9.52344Z" fill="#DFA203"/>
</svg>
