<svg width="1440" height="692" viewBox="0 0 1440 692" fill="none" xmlns="http://www.w3.org/2000/svg">
<g clip-path="url(#clip0_1264_9548)">
<path d="M1441 0V448L547.7 599.3L536.3 601.2L493.5 608.4L489.1 609.2L400.5 624.2L398.4 624.6L0 692V0H1441Z" fill="url(#paint0_linear_1264_9548)"/>
<path d="M1055.4 -9.76548e-05C1031.5 36.5999 1009.4 74.3999 981.801 108.3C959.301 135.9 932.501 158.8 903.701 180.3C875.401 201.4 846.201 221.5 821.401 246.4C765.601 302.6 748.801 380.3 723.701 452.8C712.201 485.9 697.301 519.1 670.001 542.4C647.201 561.9 618.401 573.2 589.801 583.6C575.801 588.7 561.501 593.6 547.701 599.2L536.301 601.1C557.301 591.8 579.501 584.8 601.801 576.3C632.101 564.8 661.401 550.5 682.201 526.3C707.301 497.1 719.001 459.4 730.501 423.2C742.001 386.6 753.301 349.7 770.101 315.2C786.301 282.1 808.201 253.3 836.201 228.9C862.901 205.5 891.801 186.7 920.901 163.8C950.001 140.9 974.801 114.6 996.301 84.9999C1016.2 57.5999 1033.8 28.3999 1052.3 -0.100098H1055.4V-9.76548e-05Z" fill="#AB96C1"/>
<path d="M949.5 0C937.1 24.9 927.6 50.9 917.2 76.1C906.3 102.7 894.3 129.1 877 153.3C859.6 177.7 836 198.5 807.9 216.5C779.1 235 747.1 250.8 716.7 267.9C684.9 285.8 655.7 305.5 632.3 329.2C608 353.8 589.7 381.6 577.8 411.5C565.2 443.1 558.6 476.4 548.1 508.5C536.4 544.2 518.2 577.8 493.5 608.3L489.1 609.1C510.5 583.3 527.2 555.2 538.7 525.5C551 493.8 557.6 460.5 568.3 428.4C578.4 398.3 593.1 369.7 614.7 344C635.3 319.4 661.5 298 691.6 279.4C720.9 261.3 753 245.6 783.2 228.2C813.5 210.7 841.4 191.3 862 167.5C882.3 144 896 117.4 907.8 90.4C920.8 60.6 931.3 29.5 945.9 0L949.5 0Z" fill="#AB96C1"/>
<path d="M400.5 624.2C406.7 611 412 597.7 416.3 584.6C429.7 544.4 433.8 505.2 447.5 464.9C454.5 444.5 464 423.6 477.6 404.7C488.9 389.2 502.6 376.1 517.7 365.4C545.2 345.8 574.5 334 602.9 318.8C628.8 304.9 655.6 287.3 674.1 260.3C686.6 242.1 694 222.2 700.2 203C706.4 183.6 711.7 164.2 717.3 144.9C728.5 106 740.9 66.2999 763.6 28.3999C769.5 18.4999 775.9 9.0999 782.7 -0.100098H780.7C769.4 15.1999 759.3 31.2999 750.7 48.3999C731.8 85.9999 721.3 124.3 710.6 162C700.1 198.8 690.5 241.9 660.7 274.6C637.5 300.1 607.8 314.7 580.4 328.4C553.1 342 524.3 355.4 499.5 378C468.4 406.2 451.1 444.8 440.8 480.7C429.5 520.1 424.7 558.8 409.6 598.5C406.3 607.2 402.6 615.9 398.5 624.6L400.5 624.2Z" fill="#FFB800"/>
<path d="M184.2 -0.00019531C181 4.4998 177.7 8.7998 174.3 13.0998C162.8 27.1998 149.1 38.8998 134.4 49.8998C119.9 60.6998 104.9 70.9998 92.2 83.6998C63.7 112.5 55.1 152.2 42.2 189.3C36.3 206.3 28.7 223.2 14.7 235.1C10.3 239 5.3 242.2 0 245V243.3C7.9 238.9 15.1 233.6 21 226.8C33.8 211.9 39.8 192.6 45.7 174C51.6 155.3 57.3 136.4 65.9 118.8C74.2 101.8 85.4 87.0998 99.7 74.5998C113.4 62.6998 128.1 52.9998 143 41.2998C157.9 29.5998 170.6 16.1998 181.6 0.999805C181.9 0.599805 182.2 0.199805 182.4 -0.200195H184.2V-0.00019531Z" fill="#FFB800"/>
<path d="M147.6 0C137.6 11.5 125.3 21.7 111.2 30.8C93.1 42.4 72.9 52.4 53.7 63.2C33.7 74.5 15.3 86.9 0.5 101.9C0.3 102.1 0.2 102.2 0 102.4V99.8C11 89 23.7 79.3 37.9 70.5C56.4 59 76.7 49.1 95.7 38.1C114.7 27.1 132.3 15 145.2 0H147.6Z" fill="#AB96C1"/>
<path d="M64 0C49.8 8.9 36.7 18.7 25.7 29.8C15.4 40.3 6.8 51.6 0 63.7V59.8C4.2 52.6 9 45.7 14.6 39.1C27 24.3 42.6 11.3 60.6 0L64 0Z" fill="#AB96C1"/>
</g>
<defs>
<linearGradient id="paint0_linear_1264_9548" x1="1053.67" y1="826.87" x2="-380.042" y2="-1242.46" gradientUnits="userSpaceOnUse">
<stop offset="0.0822913" stop-color="#6E5F80"/>
<stop offset="1" stop-color="#7E664D"/>
</linearGradient>
<clipPath id="clip0_1264_9548">
<rect width="1440" height="692" fill="white"/>
</clipPath>
</defs>
</svg>
