<svg width="144" height="30" viewBox="0 0 144 30" fill="none" xmlns="http://www.w3.org/2000/svg">
<g clip-path="url(#clip0_1256_1826)">
<path d="M30.1176 15.0234C30.1176 23.2734 23.3412 30.0234 15.0588 30.0234C6.77647 30.0234 0 23.2734 0 15.0234C0 6.77344 6.77647 0.0234375 15.0588 0.0234375C22.3059 0.0234375 28.3294 5.08594 29.7412 11.8359C28.8 8.74219 25.9765 6.58594 22.5882 6.58594C18.4471 6.58594 15.0588 9.96094 15.0588 14.0859C15.0588 18.2109 18.4471 21.5859 22.5882 21.5859C26.6353 21.5859 29.9294 18.4922 30.1176 14.5547C30.1176 14.6484 30.1176 14.8359 30.1176 15.0234Z" fill="#564D65"/>
<path d="M30.1183 14.0859C30.1183 14.1797 30.1183 14.3672 30.1183 14.4609C30.1183 13.6172 30.0242 12.7734 29.8359 12.0234C30.0242 12.6797 30.1183 13.3359 30.1183 14.0859Z" fill="#564D65"/>
<path d="M49.222 22.7109C47.8103 22.7109 46.5867 22.4297 45.4573 21.8672C44.3279 21.3047 43.4809 20.6484 42.822 19.7109C42.1632 18.7734 41.8809 17.6484 41.8809 16.3359C41.8809 15.1172 42.1632 13.9922 42.822 13.0547C43.4809 12.1172 44.3279 11.3672 45.4573 10.8047C46.5867 10.2422 47.8103 9.96094 49.222 9.96094C50.7279 9.96094 52.0456 10.2422 53.0809 10.8984C54.1162 11.5547 54.8691 12.3984 55.3397 13.6172L51.3867 15.5859C51.1044 15.0234 50.822 14.6484 50.4456 14.3672C50.0691 14.0859 49.6926 13.9922 49.222 13.9922C48.8456 13.9922 48.4691 14.0859 48.1867 14.2734C47.9044 14.4609 47.622 14.7422 47.4338 15.1172C47.2456 15.4922 47.1514 15.8672 47.1514 16.4297C47.1514 16.9922 47.2456 17.4609 47.4338 17.7422C47.622 18.1172 47.9044 18.3984 48.1867 18.5859C48.5632 18.7734 48.8456 18.8672 49.222 18.8672C49.6926 18.8672 50.0691 18.7734 50.4456 18.4922C50.822 18.2109 51.1044 17.8359 51.3867 17.2734L55.3397 19.2422C54.9632 20.3672 54.2103 21.3047 53.0809 21.9609C51.9514 22.4297 50.7279 22.7109 49.222 22.7109ZM63.1514 22.7109C61.6456 22.7109 60.3279 22.4297 59.1985 21.8672C58.0691 21.3047 57.222 20.5547 56.5632 19.6172C55.9044 18.6797 55.622 17.5547 55.622 16.3359C55.622 15.1172 55.9044 13.9922 56.5632 13.0547C57.222 12.1172 57.975 11.3672 59.1044 10.8047C60.1397 10.2422 61.3632 9.96094 62.6809 9.96094C63.9044 9.96094 65.0338 10.2422 66.0691 10.7109C67.1044 11.1797 67.9514 11.9297 68.5162 12.8672C69.175 13.8047 69.4573 15.0234 69.4573 16.3359C69.4573 16.5234 69.4573 16.7109 69.4573 16.8984C69.4573 17.0859 69.4573 17.2734 69.4573 17.4609H59.8573V15.0234H66.6338L64.7514 15.6797C64.7514 15.2109 64.6573 14.8359 64.4691 14.4609C64.2809 14.0859 64.0926 13.8984 63.8103 13.7109C63.5279 13.5234 63.1514 13.4297 62.6809 13.4297C62.3044 13.4297 61.9279 13.5234 61.5514 13.7109C61.2691 13.8984 60.9867 14.1797 60.8926 14.4609C60.7044 14.8359 60.6103 15.2109 60.6103 15.6797V16.4297C60.6103 16.9922 60.7044 17.3672 60.8926 17.7422C61.0809 18.1172 61.3632 18.3984 61.8338 18.5859C62.2103 18.7734 62.6809 18.8672 63.2456 18.8672C63.8103 18.8672 64.2809 18.7734 64.6573 18.6797C65.0338 18.4922 65.4103 18.3047 65.7867 18.0234L68.422 20.7422C67.8573 21.3984 67.1044 21.8672 66.1632 22.2422C65.4103 22.6172 64.375 22.7109 63.1514 22.7109ZM79.622 9.96094C80.5632 9.96094 81.4103 10.1484 82.1632 10.5234C82.9162 10.8984 83.575 11.4609 83.9514 12.3047C84.422 13.1484 84.6103 14.1797 84.6103 15.4922V22.5234H79.5279V16.3359C79.5279 15.5859 79.4338 15.0234 79.1514 14.7422C78.8691 14.3672 78.4926 14.2734 78.022 14.2734C77.6456 14.2734 77.3632 14.3672 77.0809 14.5547C76.7985 14.7422 76.5161 14.9297 76.422 15.3047C76.2338 15.6797 76.2338 16.1484 76.2338 16.7109V22.5234H71.1514V10.2422H76.0456V13.8047L75.1044 12.7734C75.575 11.8359 76.2338 11.1797 77.0809 10.7109C77.7397 10.2422 78.6809 9.96094 79.622 9.96094ZM92.8926 22.7109C91.1985 22.7109 89.8809 22.3359 88.9397 21.4922C87.9985 20.6484 87.5279 19.4297 87.5279 17.7422V7.42969H92.6103V17.6484C92.6103 18.0234 92.7044 18.3047 92.8926 18.4922C93.0809 18.6797 93.3632 18.7734 93.6456 18.7734C94.1161 18.7734 94.4926 18.6797 94.775 18.3984L95.9985 21.9609C95.622 22.1484 95.1514 22.3359 94.5867 22.4297C94.1161 22.7109 93.5514 22.7109 92.8926 22.7109ZM85.8338 14.6484V10.8984H95.1514V14.6484H85.8338ZM105.881 9.96094C106.822 9.96094 107.669 10.1484 108.422 10.5234C109.175 10.8984 109.834 11.4609 110.21 12.3047C110.681 13.1484 110.869 14.1797 110.869 15.4922V22.5234H105.787V16.3359C105.787 15.5859 105.693 15.0234 105.41 14.7422C105.128 14.3672 104.751 14.2734 104.281 14.2734C103.904 14.2734 103.622 14.3672 103.34 14.5547C103.057 14.7422 102.775 14.9297 102.681 15.3047C102.493 15.6797 102.399 16.1484 102.399 16.8047V22.5234H97.3162V5.83594H102.399V13.8047L101.175 12.7734C101.646 11.8359 102.304 11.1797 103.151 10.7109C103.999 10.2422 104.94 9.96094 105.881 9.96094ZM113.222 22.5234V10.2422H118.116V13.9922L117.363 12.9609C117.74 12.0234 118.304 11.2734 119.151 10.8047C119.998 10.3359 120.94 10.0547 122.163 10.0547V14.5547C121.975 14.5547 121.693 14.4609 121.598 14.4609C121.41 14.4609 121.222 14.4609 121.034 14.4609C120.281 14.4609 119.622 14.6484 119.151 15.0234C118.681 15.3984 118.399 16.0547 118.399 17.0859V22.5234H113.222ZM123.481 22.5234V10.2422H128.563V22.5234H123.481ZM126.022 9.21094C125.081 9.21094 124.328 8.92969 123.763 8.46094C123.199 7.99219 122.916 7.33594 122.916 6.58594C122.916 5.83594 123.199 5.27344 123.763 4.71094C124.328 4.14844 125.081 3.96094 126.022 3.96094C126.963 3.96094 127.716 4.14844 128.281 4.61719C128.846 5.08594 129.128 5.64844 129.128 6.39844C129.128 7.14844 128.846 7.80469 128.281 8.36719C127.716 9.02344 126.963 9.21094 126.022 9.21094ZM135.716 22.7109C134.681 22.7109 133.646 22.6172 132.61 22.3359C131.575 22.1484 130.728 21.7734 130.163 21.4922L131.575 18.1172C132.14 18.4922 132.799 18.7734 133.646 18.9609C134.398 19.1484 135.151 19.2422 135.904 19.2422C136.563 19.2422 136.94 19.1484 137.128 19.0547C137.316 18.9609 137.504 18.7734 137.504 18.5859C137.504 18.3984 137.41 18.3047 137.128 18.2109C136.846 18.1172 136.563 18.0234 136.093 18.0234C135.622 18.0234 135.246 17.9297 134.681 17.8359C134.21 17.7422 133.646 17.6484 133.175 17.5547C132.704 17.4609 132.234 17.1797 131.763 16.9922C131.387 16.7109 131.01 16.3359 130.728 15.8672C130.446 15.3984 130.351 14.8359 130.351 14.0859C130.351 13.3359 130.54 12.5859 131.01 11.9297C131.481 11.2734 132.234 10.8047 133.175 10.4297C134.116 10.0547 135.246 9.86719 136.657 9.86719C137.598 9.86719 138.446 9.96094 139.387 10.1484C140.328 10.3359 141.081 10.5234 141.74 10.8984L140.328 14.2734C139.669 13.8984 139.104 13.7109 138.446 13.6172C137.881 13.5234 137.316 13.4297 136.751 13.4297C136.093 13.4297 135.622 13.5234 135.434 13.6172C135.246 13.7109 135.057 13.8984 135.057 13.9922C135.057 14.1797 135.151 14.2734 135.434 14.3672C135.716 14.4609 135.999 14.5547 136.469 14.5547C136.846 14.5547 137.316 14.6484 137.881 14.7422C138.351 14.8359 138.916 14.9297 139.387 15.0234C139.857 15.1172 140.328 15.3984 140.799 15.5859C141.175 15.8672 141.551 16.2422 141.834 16.7109C142.116 17.1797 142.21 17.7422 142.21 18.3984C142.21 19.1484 142.022 19.8047 141.551 20.4609C141.081 21.1172 140.422 21.5859 139.387 21.9609C138.351 22.5234 137.128 22.7109 135.716 22.7109Z" fill="#564D65"/>
</g>
<defs>
<clipPath id="clip0_1256_1826">
<rect width="144" height="30" fill="white"/>
</clipPath>
</defs>
</svg>
