<svg width="18" height="18" viewBox="0 0 18 18" fill="none" xmlns="http://www.w3.org/2000/svg">
<g clip-path="url(#clip0_1256_1832)">
<path d="M9 5.64844C8.44374 5.64844 7.89997 5.81339 7.43746 6.12243C6.97495 6.43147 6.61446 6.87072 6.40159 7.38464C6.18872 7.89856 6.13302 8.46406 6.24154 9.00963C6.35006 9.5552 6.61793 10.0563 7.01126 10.4497C7.4046 10.843 7.90574 11.1109 8.45131 11.2194C8.99688 11.3279 9.56238 11.2722 10.0763 11.0593C10.5902 10.8465 11.0295 10.486 11.3385 10.0235C11.6475 9.56097 11.8125 9.0172 11.8125 8.46094C11.8125 7.71502 11.5162 6.99965 10.9887 6.4722C10.4613 5.94475 9.74592 5.64844 9 5.64844ZM9 10.1484C8.66624 10.1484 8.33998 10.0495 8.06248 9.86404C7.78497 9.67862 7.56868 9.41507 7.44095 9.10672C7.31323 8.79837 7.27981 8.45907 7.34492 8.13172C7.41004 7.80438 7.57076 7.5037 7.80676 7.26769C8.04276 7.03169 8.34344 6.87097 8.67078 6.80586C8.99813 6.74075 9.33743 6.77417 9.64578 6.90189C9.95413 7.02961 10.2177 7.2459 10.4031 7.52341C10.5885 7.80092 10.6875 8.12718 10.6875 8.46094C10.6875 8.90849 10.5097 9.33771 10.1932 9.65418C9.87678 9.97065 9.44755 10.1484 9 10.1484ZM9 2.27344C7.35954 2.2753 5.78681 2.92779 4.62683 4.08777C3.46685 5.24775 2.81436 6.82048 2.8125 8.46094C2.8125 10.6687 3.83273 13.0087 5.76562 15.2285C6.63414 16.2316 7.61165 17.1348 8.68008 17.9215C8.77466 17.9877 8.88734 18.0233 9.00281 18.0233C9.11829 18.0233 9.23097 17.9877 9.32555 17.9215C10.392 17.1345 11.3676 16.2313 12.2344 15.2285C14.1645 13.0087 15.1875 10.6687 15.1875 8.46094C15.1856 6.82048 14.5331 5.24775 13.3732 4.08777C12.2132 2.92779 10.6405 2.2753 9 2.27344ZM9 16.7578C7.83773 15.8438 3.9375 12.4863 3.9375 8.46094C3.9375 7.11828 4.47087 5.83061 5.42027 4.88121C6.36967 3.93181 7.65734 3.39844 9 3.39844C10.3427 3.39844 11.6303 3.93181 12.5797 4.88121C13.5291 5.83061 14.0625 7.11828 14.0625 8.46094C14.0625 12.4849 10.1623 15.8438 9 16.7578Z" fill="#DFA203"/>
</g>
<defs>
<clipPath id="clip0_1256_1832">
<rect width="18" height="18" fill="white"/>
</clipPath>
</defs>
</svg>
