<svg width="708" height="341" viewBox="0 0 708 341" fill="none" xmlns="http://www.w3.org/2000/svg">
<path d="M681.429 310.651C681.429 313.464 535.831 315.681 356.249 315.681C176.666 315.681 31.0684 313.464 31.0684 310.651C31.0684 307.838 176.666 305.621 356.249 305.621C535.831 305.621 681.429 307.838 681.429 310.651Z" fill="#E0DFE5"/>
<path d="M337.593 50.2129V127.449C337.593 134.355 332.095 139.981 325.349 139.981H183.332C176.585 139.981 171.088 134.355 171.088 127.449V50.2129C171.088 43.3076 176.585 37.6811 183.332 37.6811H325.349C332.095 37.5959 337.593 43.2224 337.593 50.2129Z" fill="#C7BFCE"/>
<path d="M337.676 54.2192H171.088V55.0717H337.676V54.2192Z" fill="#E0DFE5"/>
<path d="M337.593 71.8662V72.7187H171.338C171.254 72.7187 171.171 72.6335 171.088 72.6335V72.0367C171.171 71.9515 171.254 71.9515 171.338 71.9515H337.593V71.8662Z" fill="#E0DFE5"/>
<path d="M337.593 88.4896V89.2568C337.51 89.2568 337.51 89.2568 337.426 89.2568H171.088V88.4043H337.51C337.51 88.4043 337.593 88.4043 337.593 88.4896Z" fill="#E0DFE5"/>
<path d="M337.592 106.051V106.904H171.17C171.087 106.904 171.087 106.904 171.004 106.904V106.137C171.087 106.137 171.087 106.137 171.17 106.137H337.592V106.051Z" fill="#E0DFE5"/>
<path d="M337.593 123.698V124.465C337.51 124.465 337.51 124.465 337.426 124.465H171.088V123.613H337.51C337.51 123.698 337.593 123.698 337.593 123.698Z" fill="#E0DFE5"/>
<path d="M188.497 37.5957H187.664V139.981H188.497V37.5957Z" fill="#E0DFE5"/>
<path d="M205.655 37.5957H204.822V139.981H205.655V37.5957Z" fill="#E0DFE5"/>
<path d="M221.897 37.5957H221.064V139.981H221.897V37.5957Z" fill="#E0DFE5"/>
<path d="M239.056 37.5957H238.223V139.981H239.056V37.5957Z" fill="#E0DFE5"/>
<path d="M256.298 37.5957H255.465V139.981H256.298V37.5957Z" fill="#E0DFE5"/>
<path d="M273.04 37.5957H272.207V139.981H273.04V37.5957Z" fill="#E0DFE5"/>
<path d="M290.28 37.5957H289.447V139.981H290.28V37.5957Z" fill="#E0DFE5"/>
<path d="M306.44 37.5957H305.607V139.981H306.44V37.5957Z" fill="#E0DFE5"/>
<path d="M323.683 37.5957H322.85V139.981H323.683V37.5957Z" fill="#E0DFE5"/>
<path d="M369.327 172.376H248.134C245.969 172.376 244.303 170.586 244.303 168.455V98.8053C244.303 96.5888 246.052 94.8838 248.134 94.8838H369.327C371.493 94.8838 373.159 96.674 373.159 98.8053V168.455C373.159 170.586 371.41 172.376 369.327 172.376Z" fill="#AB96C1"/>
<path d="M277.289 137.508H269.709V158.821H277.289V137.508Z" fill="#E0DFE5"/>
<path d="M346.59 137.508H339.01V158.821H346.59V137.508Z" fill="#E0DFE5"/>
<path d="M294.615 126.596H287.035V158.821H294.615V126.596Z" fill="#E0DFE5"/>
<path d="M311.939 117.304H304.359V158.736H311.939V117.304Z" fill="#E0DFE5"/>
<path d="M329.265 108.268H321.686V158.906H329.265V108.268Z" fill="#E0DFE5"/>
<path d="M208.904 72.2927C208.904 74.5944 207.072 76.3847 204.906 76.3847C202.657 76.3847 200.908 74.5092 200.908 72.2927C200.908 69.9909 202.741 68.2007 204.906 68.2007C207.072 68.2007 208.904 69.9909 208.904 72.2927Z" fill="#AB96C1"/>
<path d="M225.479 106.904C225.479 109.206 223.646 110.996 221.481 110.996C219.232 110.996 217.482 109.121 217.482 106.904C217.482 104.602 219.315 102.812 221.481 102.812C223.729 102.812 225.479 104.602 225.479 106.904Z" fill="#AB96C1"/>
<path d="M293.863 72.7185C293.863 75.0202 292.031 76.8105 289.865 76.8105C287.616 76.8105 285.867 74.935 285.867 72.7185C285.867 70.4167 287.7 68.6265 289.865 68.6265C292.114 68.6265 293.863 70.4167 293.863 72.7185Z" fill="#AB96C1"/>
<path d="M590.638 67.9444V125.744C590.638 127.534 589.222 129.069 587.389 129.069H486.77C486.354 129.069 486.02 128.983 485.604 128.813C485.437 128.728 485.271 128.642 485.104 128.557C484.105 127.96 483.521 126.937 483.521 125.744V67.9444C483.521 66.1541 484.938 64.6196 486.77 64.6196H587.389C589.138 64.6196 590.638 66.0689 590.638 67.9444Z" fill="#E0DFE5"/>
<path d="M590.64 123.868V125.744C590.64 127.534 589.224 129.068 587.391 129.068H487.022C486.522 129.068 486.106 128.983 485.689 128.813C485.523 128.727 485.356 128.727 485.189 128.642L486.022 124.294L507.429 93.1782L512.427 101.618L527.586 79.3677L542.746 100.254L545.578 95.3094L558.488 109.546L560.987 106.903L574.064 118.242L576.813 112.615L586.309 123.101L587.391 119.606L590.64 123.868Z" fill="#AB96C1"/>
<path d="M583.558 129.069H486.771C486.188 129.069 485.605 128.898 485.188 128.643C484.272 128.046 483.605 127.023 483.605 125.829V121.908L501.264 88.9161L505.678 98.3788L518.922 73.4858L532.166 96.8443L534.665 91.3031L545.91 107.245L548.075 104.346L559.486 117.049L561.902 110.74L570.231 122.419L571.148 118.498L583.558 129.069Z" fill="#C7BFCE"/>
<path d="M503.929 89.4272C503.929 90.9617 502.762 92.1552 501.263 92.1552C499.764 92.1552 498.598 90.9617 498.598 89.4272C498.598 87.8927 499.764 86.6992 501.263 86.6992C502.762 86.6992 503.929 87.978 503.929 89.4272Z" fill="white"/>
<path d="M551.239 104.346C551.239 105.88 550.073 107.074 548.574 107.074C547.074 107.074 545.908 105.88 545.908 104.346C545.908 102.811 547.074 101.618 548.574 101.618C550.073 101.618 551.239 102.811 551.239 104.346Z" fill="white"/>
<path d="M537.247 90.0239C537.247 91.5584 536.081 92.7519 534.581 92.7519C533.082 92.7519 531.916 91.5584 531.916 90.0239C531.916 88.4894 533.082 87.2959 534.581 87.2959C536.081 87.2959 537.247 88.4894 537.247 90.0239Z" fill="white"/>
<path d="M521.503 73.4854C521.503 75.0199 520.337 76.2134 518.837 76.2134C517.338 76.2134 516.172 75.0199 516.172 73.4854C516.172 71.9509 517.338 70.7574 518.837 70.7574C520.337 70.6722 521.503 71.9509 521.503 73.4854Z" fill="white"/>
<path d="M564.901 110.74C564.901 112.274 563.735 113.468 562.236 113.468C560.736 113.468 559.57 112.274 559.57 110.74C559.57 109.205 560.736 108.012 562.236 108.012C563.652 107.927 564.901 109.205 564.901 110.74Z" fill="white"/>
<path d="M460.034 73.9124C452.455 66.0694 452.038 53.6229 458.868 45.3537C459.285 44.8422 459.784 44.3307 460.284 43.8192C464.199 39.8977 469.197 37.8517 474.278 37.6812C474.944 37.6812 475.527 37.6812 476.193 37.6812C476.277 37.6812 476.36 37.6812 476.443 37.6812C476.693 37.6812 476.943 37.7664 477.193 37.7664C477.609 37.8517 478.026 37.8517 478.442 37.9369C478.859 38.0222 479.275 38.1074 479.692 38.1927C479.775 38.1927 479.775 38.1927 479.858 38.1927C480.191 38.2779 480.525 38.3632 480.858 38.4484H480.941C481.108 38.5337 481.358 38.5337 481.524 38.6189C481.607 38.6189 481.691 38.6189 481.774 38.7042C482.191 38.8747 482.69 39.0452 483.107 39.2157C483.357 39.3009 483.69 39.4714 483.94 39.5567C484.106 39.6419 484.273 39.7272 484.439 39.8124C484.606 39.8977 484.773 39.9829 484.939 40.0682C485.272 40.2387 485.606 40.4092 485.939 40.6649C486.272 40.9207 486.688 41.1764 487.022 41.4322C488.021 42.1142 488.937 42.9667 489.77 43.8192C496.101 50.3834 497.433 60.1019 493.768 67.9449C492.769 70.1614 491.353 72.2074 489.604 73.9977C481.358 82.3522 468.197 82.2669 460.034 73.9124Z" fill="#FFB800"/>
<path d="M493.684 68.115L474.859 58.9932L478.691 42.54L482.939 39.3857C484.272 39.9825 485.604 40.7497 486.854 41.6022C487.853 42.2842 488.77 43.1367 489.602 43.9892C496.016 50.5535 497.349 60.1867 493.684 68.115Z" fill="#AB96C1"/>
<path d="M474.86 58.9082L458.867 45.2682C459.284 44.7567 459.783 44.2452 460.283 43.7337C464.198 39.8122 469.196 37.7662 474.277 37.5957C474.943 37.5957 475.526 37.5957 476.192 37.5957L474.86 58.9082Z" fill="#BDBDBD"/>
<path d="M474.86 58.9082L474.277 37.5957C474.944 37.5957 475.527 37.5957 476.193 37.5957C476.276 37.5957 476.36 37.5957 476.443 37.5957C476.693 37.5957 476.943 37.681 477.193 37.681C477.609 37.7662 478.026 37.7662 478.442 37.8515C478.859 37.9367 479.275 38.022 479.691 38.1072C479.775 38.1072 479.775 38.1072 479.858 38.1072C480.191 38.1925 480.524 38.2777 480.858 38.363H480.941C481.107 38.4482 481.357 38.4482 481.524 38.5335C481.607 38.5335 481.691 38.5335 481.774 38.6187C482.523 38.8745 483.19 39.1302 483.939 39.5565C484.106 39.6417 484.273 39.727 484.439 39.8122C484.606 39.8975 484.772 39.9827 484.939 40.068C485.272 40.2385 485.605 40.409 485.939 40.6647C486.272 40.9205 486.688 41.1762 487.021 41.432L474.86 58.9082Z" fill="#81A8BD"/>
<path d="M121.609 147.994C121.609 147.994 137.269 127.79 138.268 129.068C139.268 130.432 124.108 149.273 124.108 149.273L121.609 147.994Z" fill="#AB96C1"/>
<path d="M109.531 159.503C109.531 159.503 115.279 159.588 117.777 157.286C120.276 154.985 115.029 149.699 115.029 149.699L109.531 153.535V159.503Z" fill="#FFB49D"/>
<path d="M117.275 147.056C117.942 146.545 118.775 146.289 119.608 146.204C122.44 145.863 130.436 146.204 131.435 149.102C132.352 151.916 127.937 151.83 127.937 151.83C127.937 151.83 131.519 152.598 130.186 154.985C129.02 156.945 126.688 156.519 126.688 156.519C126.688 156.519 130.353 157.713 127.687 159.929C125.022 162.146 116.776 161.037 114.277 159.588C111.778 158.139 115.276 155.667 115.276 155.667C115.276 155.667 112.778 153.791 113.527 152.171C114.36 150.552 116.859 151.063 116.859 151.063C116.859 151.063 114.86 148.761 117.275 147.056Z" fill="#FFB49D"/>
<path d="M107.448 145.948C107.448 145.948 117.693 140.833 119.609 141.089C121.525 141.345 128.688 147.568 126.939 149.273C125.189 150.978 119.609 146.63 119.609 146.63C119.609 146.63 113.945 156.434 110.197 155.326C106.365 154.217 107.448 145.948 107.448 145.948Z" fill="#FFB49D"/>
<path d="M223.393 310.651C222.977 310.651 222.56 310.481 222.311 310.054L172.417 237.08L121.608 310.14C121.191 310.736 120.359 310.907 119.775 310.481C119.192 310.054 119.026 309.202 119.442 308.605L171.335 234.011C171.584 233.67 172.001 233.5 172.417 233.415C172.834 233.415 173.25 233.67 173.5 234.011L224.393 308.605C224.809 309.202 224.643 310.054 224.06 310.481C223.893 310.566 223.643 310.651 223.393 310.651Z" fill="#BDBDBD"/>
<path d="M127.94 152.086L117.695 151.575C117.529 151.575 117.445 151.404 117.445 151.233C117.445 151.063 117.612 150.893 117.778 150.978L127.94 151.489C128.107 151.489 128.19 151.66 128.19 151.83C128.19 151.916 128.107 152.086 127.94 152.086Z" fill="black"/>
<path d="M126.688 156.689L116.443 156.007C116.277 156.007 116.193 155.837 116.193 155.666C116.193 155.496 116.36 155.411 116.527 155.411L126.772 156.093C126.938 156.093 127.022 156.263 127.022 156.434C126.938 156.604 126.855 156.689 126.688 156.689Z" fill="black"/>
<path d="M42.3943 106.136C42.0611 105.881 32.9821 109.887 31.1496 122.249C29.4004 134.695 39.1458 136.912 39.1458 136.912L52.5562 129.154L47.392 105.54L42.3943 106.136Z" fill="black"/>
<path d="M71.5488 125.488C71.5488 125.488 76.7963 133.502 88.8739 140.663C97.5365 145.778 110.864 143.902 110.864 143.902L112.03 162.487C112.03 162.487 82.9601 172.717 71.7154 159.759C57.2222 143.135 71.5488 125.488 71.5488 125.488Z" fill="#AB96C1"/>
<path d="M70.1329 272.374C70.1329 272.374 75.8802 280.643 76.1301 282.263C76.38 283.882 71.9654 286.781 71.9654 286.781L82.5437 300.336H59.0548L57.8887 274.249L70.1329 272.374Z" fill="#35456D"/>
<path d="M54.7231 94.9687C54.7231 94.9687 45.7273 90.7062 41.7292 98.2934C37.8144 105.625 43.645 112.445 43.645 112.445L53.557 101.874L54.7231 94.9687Z" fill="black"/>
<path d="M62.7012 276.324L44.9648 275.908L44.497 296.788L62.2333 297.204L62.7012 276.324Z" fill="#FFB49D"/>
<path d="M43.1442 178.513C43.1442 178.513 39.8958 190.363 39.7292 213.636C39.5626 233.755 35.9809 278.341 37.3969 280.472C38.8962 282.604 69.0487 281.41 70.2148 280.813C71.3809 280.217 71.7141 266.321 71.7141 266.321C71.7141 266.321 91.788 231.88 94.4534 226.083C97.1188 220.371 79.7103 170.244 79.7103 170.244L43.1442 178.513Z" fill="#81A8BD"/>
<path d="M50.141 121.822C50.141 121.822 35.981 127.108 34.1485 135.207C32.3993 143.305 44.8101 175.7 48.0586 176.809C51.3071 177.917 77.2948 172.035 79.7104 170.074C82.0426 168.113 79.3772 147.994 78.7941 145.181C78.2111 142.368 75.8788 131.2 72.5471 126.426C69.2986 121.652 66.6332 121.396 63.3847 121.396C60.1363 121.566 50.141 121.822 50.141 121.822Z" fill="#AB96C1"/>
<path d="M47.6427 120.629C47.6427 120.629 44.9772 121.567 44.1443 122.845C43.2281 124.295 44.9772 128.046 49.8083 130.944C53.3899 133.075 56.3052 133.843 56.3052 133.843C56.3052 133.843 59.3871 129.495 59.9702 126.852C60.5532 124.209 58.3876 120.714 58.3876 120.714L47.6427 120.629Z" fill="#FFB800"/>
<path d="M47.3926 116.025L48.1422 123.954C48.1422 123.954 49.7248 126.085 54.306 126C57.721 125.914 58.8039 125.062 58.8039 125.062L57.9709 121.14L57.138 117.304L48.8086 116.281L47.3926 116.025Z" fill="#FFB49D"/>
<path d="M48.8086 116.196C48.8086 116.452 48.9752 116.622 49.1418 116.963C51.2241 120.714 56.0552 121.14 57.9709 121.14L57.138 117.304L48.8086 116.196Z" fill="black"/>
<path d="M57.1388 98.9754C57.1388 98.9754 62.1364 108.438 61.0536 114.15C59.9708 119.776 54.9731 119.35 51.9745 118.498C48.976 117.645 47.3934 115.94 47.3934 115.94C47.3934 115.94 44.728 117.134 42.6456 114.661C40.5632 112.189 41.4795 109.12 42.9788 108.268C44.4781 107.415 46.4771 108.438 46.4771 108.438L44.8112 105.71C44.8112 105.795 49.8089 90.7062 57.1388 98.9754Z" fill="#FFB49D"/>
<path d="M45.728 309.457C44.3953 309.372 43.3125 308.179 43.3125 306.815C43.3125 301.103 43.3958 287.974 44.3953 287.974C45.728 287.974 58.0556 291.981 58.0556 291.981C58.0556 291.981 58.3887 284.138 63.8029 285.502C67.9676 286.61 72.7986 291.555 74.7977 293.857C75.464 294.539 76.2137 295.05 77.1299 295.306C81.0447 296.244 91.6231 299.483 91.873 305.195C92.0396 312.271 89.2908 311.418 87.9581 311.418C86.8753 311.418 54.8071 309.884 45.728 309.457Z" fill="#BDBDBD"/>
<path d="M46.4779 108.523C46.4779 108.523 50.6426 109.035 53.2247 104.176C55.8069 99.2311 55.3904 97.3557 55.3904 97.3557L58.6389 102.044C58.6389 102.044 59.0553 98.6344 57.556 96.5884C56.0567 94.5424 54.724 95.0539 54.724 95.0539L45.7283 98.0377L43.8125 105.71L46.4779 108.523Z" fill="black"/>
<path d="M75.1306 158.394C75.1306 158.394 78.8788 153.535 81.6275 152.342C82.9602 151.745 88.1245 150.807 88.5409 152.086C89.0407 153.365 84.1264 156.093 84.1264 156.093C84.1264 156.093 95.9541 151.489 97.9532 152.512C100.369 153.706 96.8704 155.24 96.8704 155.24C96.8704 155.24 100.702 155.411 100.036 156.775C99.4525 158.139 97.1202 159.503 97.1202 159.503C97.1202 159.503 101.368 158.735 99.1193 161.804C96.8703 164.873 78.9621 174.336 73.2148 169.221C70.4661 166.664 75.1306 158.394 75.1306 158.394Z" fill="#FFB49D"/>
<path d="M88.0404 159.162C87.9571 159.162 87.7905 159.077 87.7905 158.991C87.7072 158.821 87.7905 158.65 87.9571 158.565L96.8695 154.985C97.0361 154.899 97.2027 154.985 97.286 155.155C97.3693 155.326 97.286 155.496 97.1194 155.581L88.207 159.162C88.1237 159.162 88.0404 159.162 88.0404 159.162Z" fill="black"/>
<path d="M89.8724 162.828C89.7891 162.828 89.6225 162.743 89.6225 162.657C89.5392 162.487 89.6225 162.316 89.7891 162.231L97.119 159.247C97.2856 159.162 97.4522 159.247 97.5355 159.418C97.6188 159.588 97.5355 159.759 97.3689 159.844L89.9557 162.828H89.8724Z" fill="black"/>
<path d="M81.4608 156.86C81.2942 156.86 81.2109 156.775 81.2109 156.604C81.2109 156.434 81.2942 156.263 81.4608 156.263L84.2095 155.837C84.3761 155.837 84.5427 155.922 84.5427 156.093C84.5427 156.263 84.4594 156.434 84.2928 156.434L81.4608 156.86Z" fill="black"/>
<path d="M35.565 132.052C35.565 132.052 20.6554 149.699 29.4846 169.051C37.3142 186.186 55.8055 186.697 65.2178 183.628C74.7133 180.645 82.9594 172.717 82.9594 172.717L74.2135 157.03C74.2135 157.03 59.3872 159.673 49.9749 158.821C40.4794 157.968 35.565 132.052 35.565 132.052Z" fill="#AB96C1"/>
<path d="M72.298 263.252C72.1314 263.252 71.9648 263.082 71.9648 262.911L72.2147 192.665C72.2147 192.58 72.2147 192.495 72.298 192.495L79.0448 185.589C79.1281 185.504 79.378 185.504 79.4613 185.589C79.5446 185.675 79.5446 185.93 79.4613 186.016L72.7978 192.836L72.5479 262.996C72.5479 263.082 72.4646 263.252 72.298 263.252Z" fill="white"/>
<path d="M44.5604 198.377C44.3938 198.377 44.3105 198.292 44.3105 198.121C44.3105 197.951 44.3938 197.78 44.5604 197.78C47.3924 197.354 49.5581 196.246 50.9741 194.285C53.223 191.216 52.64 187.124 52.64 187.039C52.64 186.868 52.7233 186.698 52.8898 186.698C53.0564 186.698 53.223 186.783 53.223 186.954C53.223 187.124 53.8061 191.301 51.4738 194.626C49.8913 196.672 47.6423 197.951 44.5604 198.377Z" fill="white"/>
<path d="M43.9778 160.099C42.7284 160.099 41.8121 159.929 41.5622 159.503C41.3124 158.991 41.8121 158.394 42.062 158.224C45.0606 155.325 50.9745 158.565 51.2244 158.65C51.3077 158.735 51.391 158.821 51.391 158.991C51.391 159.076 51.3077 159.247 51.1411 159.247C49.7251 159.503 46.3933 160.099 43.9778 160.099ZM45.3938 157.627C44.3109 157.627 43.2281 157.883 42.4785 158.65C42.1453 158.991 42.062 159.162 42.1453 159.162C42.4785 159.758 46.3933 159.417 50.1415 158.735C49.0587 158.394 47.2262 157.627 45.3938 157.627Z" fill="#FFB800"/>
<path d="M214.315 236.143H144.598C142.099 236.143 140.183 233.67 140.35 230.772L146.514 125.744C146.68 123.101 148.513 121.055 150.762 121.055H220.479C222.978 121.055 224.893 123.527 224.727 126.426L218.563 231.454C218.397 234.097 216.564 236.143 214.315 236.143Z" fill="#BBB0C1"/>
<path d="M209.651 236.143H139.934C137.435 236.143 135.519 233.67 135.686 230.772L141.85 125.744C142.016 123.101 143.849 121.055 146.098 121.055H215.815C218.314 121.055 220.229 123.527 220.063 126.426L213.899 231.454C213.732 234.097 211.817 236.143 209.651 236.143Z" fill="#E0DFE5"/>
<path d="M189.399 163.659C196.324 156.766 196.763 145.733 190.381 139.017C183.998 132.301 173.211 132.445 166.286 139.339C159.362 146.232 158.922 157.265 165.305 163.981C171.687 170.697 182.474 170.553 189.399 163.659Z" fill="#AB96C1"/>
<path d="M187.992 134.013L177.83 151.489L196.238 146.374L187.992 134.013Z" fill="#81A8BD"/>
<path d="M162.589 214.575H154.426L156.342 189H164.588L162.589 214.575Z" fill="#AB96C1"/>
<path d="M178.581 214.574H170.418L172.001 193.688H180.163L178.581 214.574Z" fill="#AB96C1"/>
<path d="M194.991 214.574H186.828L188.078 200.167H196.24L194.991 214.574Z" fill="#AB96C1"/>
<path d="M202.987 214.915H146.181C146.098 214.915 146.014 214.915 145.931 214.83C145.848 214.745 145.848 214.66 145.848 214.574L148.013 185.76C148.013 185.589 148.18 185.419 148.346 185.504C148.513 185.504 148.596 185.675 148.596 185.845L146.514 214.404H202.987C203.154 214.404 203.321 214.574 203.321 214.745C203.321 214.915 203.154 214.915 202.987 214.915Z" fill="#BDBDBD"/>
<path d="M58.5552 102.215L57.2225 101.959C57.0559 101.959 56.9727 101.789 56.9727 101.618C56.9727 101.448 57.1392 101.362 57.3058 101.362L58.6385 101.618C58.8051 101.618 58.8884 101.789 58.8884 101.959C58.8884 102.13 58.7218 102.215 58.5552 102.215Z" fill="black"/>
<path d="M52.9745 102.641C52.8079 102.641 52.7246 102.556 52.7246 102.385C52.7246 102.215 52.8079 102.044 52.9745 102.044L55.1401 101.533C55.3067 101.533 55.4733 101.618 55.4733 101.788C55.4733 101.959 55.39 102.129 55.2234 102.129L52.9745 102.641Z" fill="black"/>
<path d="M53.8064 107.671C53.6398 107.671 53.5565 107.586 53.5565 107.415L53.3066 105.795C53.3066 105.71 53.3066 105.54 53.3899 105.54L54.4728 104.772C54.6393 104.687 54.8059 104.687 54.8892 104.858C54.9725 105.028 54.9725 105.199 54.8059 105.284L53.8897 105.966L54.1396 107.415C54.1396 107.5 53.973 107.671 53.8064 107.671Z" fill="black"/>
<path d="M59.0525 106.477C58.8859 106.477 58.8026 106.392 58.8026 106.222L58.5527 104.602C58.5527 104.517 58.5527 104.346 58.636 104.346L59.7188 103.579C59.8854 103.494 60.052 103.494 60.1353 103.664C60.2186 103.835 60.2186 104.005 60.052 104.09L59.1358 104.772L59.3857 106.222C59.3857 106.307 59.3024 106.477 59.0525 106.477Z" fill="black"/>
<path d="M57.9703 110.91H57.887C57.7204 110.825 57.6371 110.655 57.7204 110.569C58.3034 108.694 57.1373 106.392 57.054 106.392C56.9707 106.222 57.054 106.051 57.1373 105.966C57.3039 105.881 57.4705 105.966 57.5538 106.051C57.6371 106.136 58.8865 108.609 58.2202 110.655C58.2202 110.825 58.0536 110.91 57.9703 110.91Z" fill="black"/>
<path d="M56.3064 114.917C54.9737 114.917 54.3906 113.297 54.3906 113.297C54.3906 113.212 54.3906 113.127 54.3906 113.041C54.4739 112.956 54.5572 112.956 54.6405 112.956H57.9723C58.0556 112.956 58.1389 113.041 58.2222 113.041C58.3054 113.127 58.3054 113.212 58.2222 113.297C58.2222 113.297 57.6391 114.917 56.3064 114.917ZM55.057 113.468C55.3069 113.809 55.64 114.32 56.2231 114.32C56.8062 114.32 57.2226 113.809 57.3892 113.468H55.057Z" fill="black"/>
<path d="M46.8108 113.042C46.7275 113.042 46.7275 113.042 46.6442 112.956L43.1458 110.314C42.9792 110.228 42.9792 110.058 43.0625 109.887C43.1458 109.717 43.3124 109.717 43.479 109.802L46.9773 112.445C47.1439 112.53 47.1439 112.701 47.0606 112.871C46.9773 112.956 46.8941 113.042 46.8108 113.042Z" fill="black"/>
<path d="M43.3117 113.468C43.2284 113.468 43.1451 113.383 43.0618 113.297C42.9786 113.127 43.0618 112.956 43.1451 112.871L45.3941 111.592C45.5607 111.507 45.7273 111.592 45.8106 111.678C45.8938 111.848 45.8106 112.019 45.7273 112.104L43.4783 113.383C43.4783 113.468 43.395 113.468 43.3117 113.468Z" fill="black"/>
<path d="M47.8932 120.799C47.8932 120.799 52.1412 124.721 55.1398 124.721C58.2217 124.721 58.1384 121.822 58.1384 121.822L59.3878 126.255L55.6396 130.177L48.8928 127.364L45.1445 123.016L47.8932 120.799Z" fill="#FFB800"/>
<path d="M53.3903 130.859C53.3903 130.859 51.1414 134.098 50.6416 139.043C50.1418 144.072 53.0571 149.699 53.0571 149.699C53.0571 149.699 57.6383 144.413 58.2214 140.407C58.8044 136.4 56.7221 130.688 56.7221 130.688C56.7221 130.688 58.8044 135.547 59.3042 138.446C59.804 141.43 60.5536 145.181 60.5536 145.181C60.5536 145.181 63.3023 141.43 63.1357 136.911C62.9691 132.478 58.3047 129.495 58.3047 129.495L53.3903 130.859Z" fill="#FFB800"/>
<path d="M53.9729 132.223C53.6397 132.223 53.3898 132.223 53.14 132.137C51.724 131.711 51.4741 128.386 51.8073 127.022C51.8073 126.852 51.9738 126.767 52.1404 126.767C52.307 126.767 52.3903 126.937 52.3903 127.108C52.1404 128.472 52.4736 131.285 53.3066 131.541C54.0562 131.796 55.7221 131.455 56.555 131.2C56.2218 130.262 55.3889 127.704 56.0553 126.511C56.3051 126.17 56.6383 125.914 57.0548 125.914C57.5546 125.829 57.8877 126.085 58.0543 126.34C58.8873 127.534 57.4713 131.114 57.3047 131.541C57.3047 131.626 57.2214 131.626 57.1381 131.711C57.1381 131.711 57.1381 131.711 57.0548 131.711C56.9715 131.711 55.2223 132.223 53.9729 132.223ZM57.1381 126.596C56.8049 126.596 56.6383 126.681 56.555 126.937C56.1386 127.704 56.555 129.495 56.9715 130.688C57.4713 129.239 57.971 127.449 57.5545 126.852C57.4713 126.681 57.388 126.596 57.1381 126.596Z" fill="#BDBDBD"/>
<path d="M54.1384 139.043C53.8052 139.043 53.5553 138.873 53.3887 138.617C52.4725 137.253 54.1384 132.479 54.3049 131.967C54.3882 131.882 54.4715 131.797 54.6381 131.797C54.8047 131.797 54.888 131.882 54.888 132.053C54.9713 132.564 55.9708 137.338 54.9713 138.702C54.7214 138.873 54.4715 139.043 54.1384 139.043ZM54.4715 133.246C53.8885 135.122 53.3887 137.594 53.8052 138.276C53.8885 138.361 53.9718 138.446 54.0551 138.446C54.2217 138.446 54.3049 138.361 54.3882 138.276C55.0546 137.509 54.8047 134.951 54.4715 133.246Z" fill="#BDBDBD"/>
<path d="M112.03 155.667C111.864 155.667 111.781 155.581 111.781 155.411C111.697 155.24 111.864 155.07 111.947 155.07C112.03 155.07 117.944 153.194 119.36 146.545C119.36 146.374 119.527 146.289 119.693 146.289C119.86 146.289 119.943 146.46 119.943 146.63C118.361 153.706 112.114 155.667 112.03 155.667Z" fill="black"/>
<path d="M255.379 288.742L259.71 282.263L244.717 271.948L238.137 277.745L248.215 289.765L255.379 288.742Z" fill="#FFB49D"/>
<path d="M284.613 283.371L284.363 294.539L303.688 294.283L302.938 282.263L284.613 283.371Z" fill="#FFB49D"/>
<path d="M257.961 310.651C257.545 310.566 257.295 310.14 257.295 309.713C257.628 307.582 258.878 301.615 262.209 299.057C266.291 295.988 274.787 294.709 277.869 292.663C280.95 290.617 284.449 285.588 286.281 286.525C288.114 287.463 291.612 291.811 296.61 291.214C301.607 290.617 303.94 289.339 305.272 290.617C306.605 291.896 307.355 309.287 306.855 310.31C306.272 311.333 299.192 310.395 298.609 310.566C298.026 310.736 296.277 306.559 295.11 307.241C293.944 307.838 292.528 309.799 290.862 310.736C289.197 311.504 263.042 311.333 257.961 310.651Z" fill="#AB96C1"/>
<path d="M272.119 220.712L274.451 173.228L303.354 173.058C303.354 173.058 306.853 185.248 307.852 197.098C308.852 208.948 311.351 283.968 311.017 284.991C310.601 286.014 278.533 287.293 276.617 286.014C274.701 284.82 272.119 220.712 272.119 220.712Z" fill="#FFB800"/>
<path d="M206.734 278C206.401 277.744 206.401 277.233 206.734 276.892C208.234 275.357 212.565 271.095 216.73 270.924C221.811 270.669 229.64 274.505 233.388 274.505C237.137 274.505 242.801 272.374 243.8 274.249C244.8 276.125 245.299 281.666 249.797 284.053C254.378 286.44 256.961 286.696 257.377 288.486C257.794 290.276 248.798 305.11 247.715 305.706C246.632 306.218 241.301 301.444 240.635 301.188C240.052 301.018 240.885 296.585 239.552 296.414C238.219 296.244 235.97 297.096 234.055 296.84C232.389 296.499 210.566 281.41 206.734 278Z" fill="#AB96C1"/>
<path d="M269.37 172.887C269.37 172.887 235.386 267.174 235.719 269.305C236.136 271.351 262.04 286.099 263.623 286.099C265.205 286.099 276.617 264.787 276.617 264.787L278.033 173.143L269.37 172.887Z" fill="#FFB800"/>
<path d="M284.364 294.794C284.28 294.794 284.28 294.794 284.197 294.709L279.533 291.384C279.366 291.299 279.366 291.129 279.449 290.958C279.533 290.788 279.699 290.788 279.866 290.873L284.53 294.198C284.697 294.283 284.697 294.453 284.613 294.624C284.613 294.794 284.447 294.794 284.364 294.794Z" fill="white"/>
<path d="M279.7 296.755C279.617 296.755 279.617 296.755 279.533 296.67L275.868 293.772C275.702 293.686 275.702 293.516 275.785 293.345C275.868 293.175 276.035 293.175 276.202 293.26L279.867 296.159C280.033 296.244 280.033 296.414 279.95 296.585C279.867 296.755 279.783 296.755 279.7 296.755Z" fill="white"/>
<path d="M237.635 279.791C237.551 279.791 237.468 279.706 237.385 279.62L234.303 274.761C234.219 274.591 234.219 274.42 234.386 274.335C234.553 274.25 234.719 274.25 234.803 274.42L237.884 279.279C237.968 279.45 237.968 279.62 237.801 279.706C237.718 279.791 237.635 279.791 237.635 279.791Z" fill="white"/>
<path d="M231.39 278.341C231.307 278.341 231.223 278.256 231.14 278.171L228.808 274.079C228.725 273.908 228.808 273.738 228.891 273.652C229.058 273.567 229.224 273.653 229.308 273.738L231.64 277.83C231.723 278 231.64 278.171 231.557 278.256C231.473 278.341 231.39 278.341 231.39 278.341Z" fill="white"/>
<path d="M302.273 186.953C297.025 186.953 293.86 180.304 293.777 180.218C293.694 180.048 293.777 179.877 293.943 179.792C294.11 179.707 294.277 179.792 294.36 179.963C294.36 180.048 298.025 187.55 303.689 186.186C303.855 186.186 304.022 186.271 304.022 186.442C304.022 186.612 303.939 186.783 303.772 186.783C303.272 186.868 302.773 186.953 302.273 186.953Z" fill="#BDBDBD"/>
<path d="M274.622 268.793C274.455 268.793 274.288 268.623 274.288 268.452L277.87 191.472L270.04 186.186C269.874 186.101 269.874 185.93 269.957 185.76C270.04 185.589 270.207 185.589 270.374 185.675L278.37 191.045C278.453 191.131 278.536 191.216 278.536 191.301L274.955 268.452C274.955 268.623 274.788 268.793 274.622 268.793Z" fill="#BDBDBD"/>
<path d="M284.115 122.675C284.115 122.675 276.202 123.016 273.036 129.495C269.871 135.974 267.539 174.678 267.539 174.678C267.539 174.678 276.285 178.684 289.112 178.514C301.94 178.343 306.271 174.933 306.271 174.933L308.77 151.063C308.77 151.063 307.77 125.915 304.522 124.124C301.273 122.419 289.362 121.311 284.115 122.675Z" fill="#A7B980"/>
<path d="M284.113 101.959C284.113 101.959 280.115 93.9455 283.863 92.5815C287.695 91.1323 291.859 95.6505 291.859 95.6505C291.859 95.6505 300.106 96.9293 303.021 101.618C305.936 106.392 297.69 113.809 297.69 113.809L284.113 101.959Z" fill="black"/>
<path d="M296.192 115.429V123.272C296.192 123.272 294.776 125.488 290.361 125.914C287.029 126.17 285.863 125.403 285.863 125.403L286.28 121.396L286.696 117.56L294.776 115.684L296.192 115.429Z" fill="#FFB49D"/>
<path d="M294.777 115.77C294.777 116.025 294.693 116.196 294.527 116.537C292.861 120.458 288.113 121.311 286.197 121.481L286.614 117.645L294.777 115.77Z" fill="black"/>
<path d="M284.948 99.7423C284.948 99.7423 280.95 109.546 282.533 115.087C284.115 120.543 289.03 119.606 291.945 118.497C294.86 117.389 296.193 115.514 296.193 115.514C296.193 115.514 298.942 116.451 300.691 113.809C302.44 111.166 301.274 108.182 299.691 107.585C298.109 106.903 296.276 108.097 296.276 108.097L297.692 105.198C297.692 105.113 291.362 90.791 284.948 99.7423Z" fill="#FFB49D"/>
<path d="M296.609 112.189C296.526 112.189 296.443 112.104 296.359 112.104C296.276 111.933 296.276 111.763 296.443 111.677L299.858 109.12C300.024 109.035 300.191 109.035 300.274 109.205C300.358 109.376 300.358 109.546 300.191 109.631L296.776 112.189C296.693 112.189 296.693 112.189 296.609 112.189Z" fill="black"/>
<path d="M299.774 112.104C299.69 112.104 299.69 112.104 299.774 112.104L297.441 111.507C297.275 111.507 297.191 111.336 297.191 111.166C297.191 110.995 297.358 110.91 297.525 110.91L299.774 111.507C299.94 111.507 300.023 111.677 300.023 111.848C300.023 112.018 299.857 112.104 299.774 112.104Z" fill="black"/>
<path d="M285.281 110.911C285.114 110.911 285.031 110.825 285.031 110.655C284.614 107.927 286.364 106.478 286.364 106.478C286.447 106.392 286.697 106.392 286.78 106.478C286.863 106.563 286.863 106.819 286.78 106.904C286.697 106.989 285.281 108.183 285.614 110.57C285.531 110.74 285.447 110.911 285.281 110.911Z" fill="black"/>
<path d="M283.947 106.989C283.697 106.904 283.614 106.733 283.697 106.648L284.197 104.858C284.28 104.687 284.364 104.602 284.53 104.687C284.697 104.773 284.78 104.858 284.697 105.028L284.197 106.819C284.197 106.904 284.114 106.989 283.947 106.989Z" fill="black"/>
<path d="M288.861 107.33C288.778 107.33 288.778 107.33 288.861 107.33C288.611 107.245 288.528 107.074 288.611 106.989L289.111 105.199C289.194 105.028 289.278 104.943 289.444 105.028C289.611 105.113 289.694 105.199 289.611 105.369L289.111 107.159C289.111 107.245 288.944 107.33 288.861 107.33Z" fill="black"/>
<path d="M284.113 101.959C284.113 101.959 284.946 100.339 286.862 100.339C288.777 100.339 289.86 101.703 289.86 101.703C289.86 101.703 289.027 105.028 291.609 106.733C294.192 108.438 296.191 108.012 296.191 108.012L298.106 107.33L299.522 104.516L294.025 98.5489L286.945 94.7979L283.363 98.1226L284.113 101.959Z" fill="black"/>
<path d="M291.943 95.5654C291.943 95.5654 292.193 91.2176 296.608 93.0931C301.106 94.9686 300.689 100.936 300.689 100.936L291.943 95.5654Z" fill="black"/>
<path d="M283.781 102.3C283.615 102.3 283.531 102.215 283.531 102.044C283.531 101.874 283.615 101.703 283.781 101.703L285.197 101.533C285.364 101.533 285.53 101.618 285.53 101.788C285.53 101.959 285.447 102.129 285.28 102.129L283.781 102.3Z" fill="black"/>
<path d="M290.362 104.346H290.278L288.279 103.493C288.113 103.408 288.029 103.238 288.113 103.067C288.196 102.897 288.363 102.811 288.529 102.897L290.528 103.749C290.695 103.834 290.778 104.005 290.695 104.175C290.528 104.261 290.445 104.346 290.362 104.346Z" fill="black"/>
<path d="M284.532 113.553C284.449 113.553 284.365 113.468 284.282 113.383L283.199 111.678C283.116 111.507 283.116 111.337 283.283 111.251C283.449 111.166 283.616 111.166 283.699 111.337L284.782 113.042C284.865 113.212 284.865 113.383 284.699 113.468C284.615 113.553 284.615 113.553 284.532 113.553Z" fill="black"/>
<path d="M270.203 124.38C270.203 124.38 275.117 107.841 277.2 108.097C279.282 108.353 283.364 112.53 284.197 114.065C285.029 115.599 284.197 117.56 284.197 117.56C284.197 117.56 285.029 118.583 284.197 119.265C283.364 119.947 281.031 118.498 281.031 118.498C281.031 118.498 283.114 128.983 277.033 130.262C271.036 131.541 270.203 124.38 270.203 124.38Z" fill="#FFB49D"/>
<path d="M273.286 154.473C273.286 154.473 275.702 149.529 276.868 143.987C278.034 138.446 279.617 130.177 279.617 130.177L268.955 122.078C268.955 122.078 260.043 135.974 256.961 149.273C253.879 162.572 256.128 166.579 262.791 165.811C270.704 164.788 273.286 154.473 273.286 154.473Z" fill="#A7B980"/>
<path d="M274.201 155.923L270.87 169.051C268.204 169.051 261.124 168.966 258.875 167.858C256.127 166.579 255.71 164.789 255.71 164.789C255.71 164.789 253.794 162.913 253.878 161.89C253.961 160.867 255.044 156.349 255.044 156.349C255.044 156.349 253.461 152.598 254.877 152.427C256.293 152.257 258.709 151.916 258.709 151.916C258.709 151.916 263.29 149.87 265.206 150.467C267.205 151.063 272.369 155.923 272.369 155.923H274.201Z" fill="#FFB49D"/>
<path d="M289.529 126.17C286.531 126.17 285.365 125.488 285.365 125.403C285.198 125.317 285.198 125.147 285.281 124.976C285.365 124.806 285.531 124.806 285.698 124.891C285.698 124.891 287.114 125.744 291.029 125.488C294.86 125.232 296.609 122.589 296.693 122.589C296.776 122.419 296.942 122.419 297.109 122.504C297.276 122.589 297.276 122.76 297.192 122.93C297.109 123.016 295.277 125.829 291.112 126.085C290.446 126.17 289.946 126.17 289.529 126.17Z" fill="#AB96C1"/>
<path d="M265.456 153.109C265.373 153.109 265.373 153.109 265.456 153.109L260.375 151.575C260.208 151.489 260.125 151.319 260.208 151.234C260.292 151.063 260.375 150.978 260.542 151.063L265.539 152.598C265.706 152.683 265.789 152.853 265.706 152.939C265.623 153.024 265.539 153.109 265.456 153.109Z" fill="black"/>
<path d="M256.542 156.604C256.459 156.604 256.459 156.604 256.375 156.604L254.626 155.667C254.46 155.581 254.46 155.411 254.543 155.24C254.626 155.07 254.793 155.07 254.959 155.155L256.709 156.093C256.875 156.178 256.875 156.349 256.792 156.519C256.709 156.519 256.625 156.604 256.542 156.604Z" fill="black"/>
<path d="M284.115 117.048C284.032 117.048 283.948 117.048 283.948 116.963L279.451 113.382C279.284 113.297 279.284 113.127 279.367 112.956C279.451 112.786 279.617 112.786 279.784 112.871L284.282 116.451C284.448 116.537 284.448 116.707 284.365 116.878C284.365 116.963 284.198 117.048 284.115 117.048Z" fill="black"/>
<path d="M283.449 113.383C283.365 113.383 283.365 113.383 283.282 113.297L279.451 110.74C279.284 110.655 279.284 110.484 279.367 110.314C279.451 110.143 279.617 110.143 279.784 110.228L283.615 112.786C283.782 112.871 283.782 113.042 283.699 113.212C283.699 113.383 283.615 113.383 283.449 113.383Z" fill="black"/>
<path d="M272.535 154.729L270.203 170.756C270.203 170.756 304.354 180.901 311.6 163.083C318.847 145.181 310.601 127.193 304.52 124.209C298.44 121.226 292.443 149.443 292.443 149.443L272.535 154.729Z" fill="#A7B980"/>
<path d="M274.703 172.631L270.538 172.12C269.789 172.035 269.289 171.353 269.372 170.585L271.205 153.791C271.288 153.024 271.954 152.512 272.704 152.598L276.869 153.109C277.618 153.194 278.118 153.876 278.035 154.644L276.202 171.438C276.036 172.205 275.37 172.717 274.703 172.631Z" fill="#E6F4FF"/>
<path d="M281.866 131.797L279.451 135.463C279.034 136.059 278.285 136.23 277.701 135.804L265.707 127.534C265.124 127.108 264.957 126.341 265.374 125.744L267.789 122.078C268.206 121.482 268.956 121.311 269.539 121.737L281.533 130.007C282.116 130.433 282.283 131.2 281.866 131.797Z" fill="#E6F4FF"/>
<path d="M283.449 153.109C283.365 153.109 283.199 153.024 283.199 152.939C283.115 152.768 283.199 152.598 283.365 152.512C283.449 152.512 291.195 148.591 298.858 147.994C299.025 147.994 299.191 148.079 299.191 148.25C299.191 148.42 299.108 148.591 298.941 148.591C291.362 149.273 283.698 153.024 283.615 153.109C283.532 153.109 283.532 153.109 283.449 153.109Z" fill="#AB96C1"/>
<path d="M292.443 149.699C292.36 149.699 292.277 149.614 292.193 149.614C292.11 149.529 292.11 149.358 292.193 149.273C292.443 148.847 294.859 145.437 296.691 145.266C297.108 145.266 297.441 145.351 297.691 145.607C298.024 145.948 298.024 146.289 298.024 146.545C297.691 148.079 293.443 149.443 292.61 149.699C292.527 149.699 292.443 149.699 292.443 149.699ZM296.775 145.863H296.691C295.692 145.948 294.109 147.653 293.193 148.847C294.942 148.165 297.191 147.142 297.358 146.374C297.358 146.289 297.358 146.204 297.191 146.033C297.108 145.948 297.024 145.863 296.775 145.863Z" fill="#AB96C1"/>
<path d="M275.45 279.791C275.284 279.791 275.2 279.705 275.117 279.535C275.117 279.364 275.2 279.194 275.367 279.194L310.934 277.745C311.1 277.745 311.267 277.83 311.267 278C311.267 278.171 311.184 278.341 311.017 278.341L275.45 279.791Z" fill="#BDBDBD"/>
<path d="M267.624 279.791C267.54 279.791 267.54 279.791 267.457 279.791L237.388 263.252C237.221 263.167 237.221 262.996 237.305 262.826C237.388 262.655 237.555 262.655 237.721 262.741L267.79 279.279C267.957 279.364 267.957 279.535 267.874 279.705C267.874 279.705 267.79 279.791 267.624 279.791Z" fill="#BDBDBD"/>
<path d="M73.797 155.666C73.6304 155.666 73.5471 155.581 73.5471 155.411L72.1311 148.846C72.1311 148.761 72.1311 148.676 72.1311 148.676C72.1311 148.676 73.7137 145.181 73.4638 141.089C73.2139 136.997 69.7989 132.137 69.7989 132.052C69.7156 131.882 69.7156 131.711 69.8821 131.626C70.0487 131.541 70.2153 131.541 70.2986 131.711C70.4652 131.882 73.797 136.741 74.1301 141.003C74.38 144.925 73.0473 148.164 72.7974 148.761L74.2134 155.24C74.1301 155.496 74.0468 155.666 73.797 155.666Z" fill="#FFB800"/>
<path d="M50.8097 159.162C50.6432 159.162 50.5599 159.076 50.4766 158.906C50.4766 158.735 50.5599 158.565 50.7264 158.565L57.5566 158.309C57.7232 158.309 57.8897 158.394 57.8897 158.565C57.8897 158.735 57.8064 158.906 57.6399 158.906L50.8097 159.162C50.893 159.162 50.893 159.162 50.8097 159.162Z" fill="#FFB800"/>
<path d="M617.627 280.984V291.385L599.219 290.618V280.984H617.627Z" fill="#FFB800"/>
<path d="M660.189 279.791V290.191L643.113 289.509V279.791H660.189Z" fill="#FFB800"/>
<path d="M621.04 166.749C621.04 166.749 609.796 187.721 601.883 223.44C594.719 256.091 593.137 283.115 593.137 283.115H624.289C624.289 283.115 627.787 256.517 628.703 245.946C629.62 235.375 632.701 221.309 632.701 221.309C632.701 221.309 636.949 282.092 638.032 283.115C639.115 284.138 668.851 283.371 668.518 281.922C668.185 280.473 657.19 179.025 656.357 172.376C653.858 152.001 621.04 166.749 621.04 166.749Z" fill="#AB96C1"/>
<path d="M638.949 305.621C638.949 307.497 639.532 309.543 640.698 310.054C641.865 310.566 651.527 311.674 659.939 310.907C668.019 310.14 669.685 309.543 670.268 308.776C670.518 308.349 670.018 306.559 669.352 304.769C669.352 304.684 669.268 304.598 669.268 304.513C668.935 303.661 668.602 302.723 668.352 302.126C668.102 301.529 667.769 301.018 667.436 300.421C666.603 299.142 664.854 296.5 664.354 295.136C663.771 293.345 662.855 289.424 662.272 287.548C661.689 285.758 660.189 285.332 660.189 285.332C660.189 285.332 643.614 284.138 642.448 285.161C641.281 286.184 640.698 294.88 640.698 296.159V297.437C640.698 298.631 639.949 301.018 639.366 303.064C639.199 303.575 639.116 304.002 639.033 304.428C638.949 304.939 638.949 305.28 638.949 305.621Z" fill="#81A8BD"/>
<path d="M570.73 309.287C571.813 309.798 616.542 311.162 617.542 309.287C617.875 308.69 618.042 306.815 618.208 304.428C618.541 298.801 618.541 290.532 618.541 290.532C618.541 290.532 618.875 287.719 618.791 286.355C618.708 285.076 597.218 285.587 597.218 285.587L583.225 297.863C583.225 297.863 579.393 297.096 575.228 297.863C572.979 298.29 571.563 301.273 570.897 304.172C570.314 306.729 570.231 309.116 570.73 309.287Z" fill="#81A8BD"/>
<path d="M632.701 221.565C632.534 221.565 632.451 221.479 632.368 221.309C632.368 221.138 631.368 208.095 631.118 202.298C630.868 197.354 630.868 194.626 630.785 193.858L620.873 189.17C620.707 189.084 620.623 188.914 620.707 188.743C620.79 188.573 620.956 188.573 621.123 188.573L631.202 193.347C631.285 193.432 631.368 193.517 631.368 193.603C631.368 193.603 631.368 196.416 631.701 202.213C631.951 208.01 632.951 221.053 632.951 221.224C633.034 221.479 632.867 221.565 632.701 221.565Z" fill="#FFB800"/>
<path d="M659.772 294.368C659.605 294.368 653.108 292.493 649.86 293.089L646.528 293.686C646.361 293.686 646.278 293.601 646.195 293.516C646.111 293.43 646.195 293.26 646.278 293.175C646.528 292.919 652.358 287.719 655.857 289.338C656.023 289.424 656.107 289.594 656.023 289.765C655.94 289.935 655.773 290.02 655.607 289.935C653.191 288.827 649.277 291.555 647.527 293.004L649.776 292.578C653.191 291.981 659.605 293.771 659.855 293.857C660.021 293.942 660.105 294.027 660.022 294.198C660.022 294.283 659.938 294.368 659.772 294.368Z" fill="#AB96C1"/>
<path d="M586.307 295.221C586.14 295.221 586.057 295.136 586.057 294.965C586.057 294.795 586.14 294.624 586.307 294.624L594.136 293.772L591.554 290.532C591.471 290.447 591.471 290.191 591.554 290.106C591.637 290.021 591.887 290.021 591.971 290.106L594.886 293.772C594.969 293.857 594.969 293.942 594.969 294.113C594.969 294.198 594.803 294.283 594.719 294.283L586.307 295.221Z" fill="#AB96C1"/>
<path d="M656.357 189.596C656.274 189.596 656.274 189.596 656.191 189.51C650.86 185.504 648.611 178.598 648.611 178.513C648.528 178.343 648.611 178.172 648.777 178.172C648.944 178.087 649.111 178.172 649.111 178.343C649.111 178.428 651.276 185.163 656.44 188.999C656.607 189.084 656.607 189.255 656.524 189.425C656.524 189.596 656.44 189.596 656.357 189.596Z" fill="#FFB800"/>
<path d="M639.947 117.56C639.947 117.56 649.193 118.071 656.523 124.55C663.936 131.029 671.432 152.683 667.268 159.418C663.103 166.152 657.855 166.664 657.855 166.664L658.189 174.507L617.791 174.933C617.791 174.933 621.123 124.806 622.705 121.055C624.371 117.389 639.947 117.56 639.947 117.56Z" fill="#FFB800"/>
<path d="M589.222 140.151C589.222 140.151 587.556 138.531 583.225 138.02C581.143 137.764 578.644 137.764 576.395 138.275C574.146 138.787 578.477 140.918 579.477 141.089C580.476 141.174 581.059 142.538 581.059 142.538C581.059 142.538 572.563 144.328 569.231 145.692C565.9 147.056 568.149 149.017 568.149 149.017C568.149 149.017 565.566 150.978 565.983 152.256C566.399 153.535 570.981 152.427 570.981 152.427C570.981 152.427 566.733 154.729 567.815 155.922C568.898 157.116 590.471 154.899 592.887 149.699C595.386 144.328 589.222 140.151 589.222 140.151Z" fill="#FFB49D"/>
<path d="M628.954 94.7129C628.954 94.7129 625.622 98.4639 627.371 102.641C629.12 106.818 631.203 95.1391 631.203 95.1391L628.954 94.7129Z" fill="black"/>
<path d="M639.699 111.763V119.265C639.699 119.265 638.366 121.396 634.118 121.822C630.953 122.078 629.787 121.396 629.787 121.396L630.204 117.645L630.62 113.979L638.366 112.189L639.699 111.763Z" fill="#FFB49D"/>
<path d="M638.365 112.104C638.365 112.274 639.531 112.956 639.448 113.212C637.866 116.963 631.952 118.753 630.119 118.924L630.702 113.809L638.365 112.104Z" fill="black"/>
<path d="M630.37 95.0539C629.371 95.9064 628.621 97.0147 628.205 98.2934C627.205 101.192 625.206 107.841 626.372 112.019C627.955 117.389 632.703 116.452 635.535 115.343C638.367 114.235 639.616 112.445 639.616 112.445C639.616 112.445 642.281 113.297 644.031 110.74C645.78 108.182 644.614 105.199 643.114 104.602C641.615 103.92 639.783 105.113 639.783 105.113L641.115 102.3C641.115 102.215 635.951 90.5357 630.37 95.0539Z" fill="#FFB49D"/>
<path d="M640.115 108.694C640.032 108.694 639.949 108.608 639.865 108.608C639.782 108.438 639.782 108.267 639.949 108.182L643.197 105.71C643.364 105.625 643.53 105.625 643.614 105.795C643.697 105.966 643.697 106.136 643.53 106.221L640.282 108.694C640.198 108.694 640.115 108.694 640.115 108.694Z" fill="black"/>
<path d="M643.114 108.694C643.031 108.694 643.031 108.694 643.114 108.694L640.865 108.097C640.699 108.097 640.615 107.926 640.615 107.756C640.615 107.585 640.782 107.5 640.948 107.5L643.114 108.097C643.281 108.097 643.364 108.267 643.364 108.438C643.364 108.608 643.197 108.694 643.114 108.694Z" fill="black"/>
<path d="M629.286 107.5C629.202 107.5 629.036 107.415 629.036 107.33C627.953 105.113 629.535 102.811 629.619 102.726C629.702 102.556 629.869 102.556 630.035 102.641C630.202 102.726 630.202 102.897 630.118 103.067C630.118 103.067 628.702 105.198 629.535 107.074C629.619 107.244 629.535 107.415 629.369 107.5H629.286Z" fill="black"/>
<path d="M628.035 103.749C627.785 103.664 627.702 103.493 627.785 103.408L628.202 101.703C628.202 101.532 628.368 101.447 628.535 101.532C628.701 101.618 628.785 101.703 628.701 101.873L628.285 103.578C628.285 103.664 628.202 103.749 628.035 103.749Z" fill="black"/>
<path d="M628.036 125.914L626.953 176.211H616.042L617.375 154.217C617.375 154.217 609.628 155.751 599.799 155.837C589.971 155.922 585.973 154.899 585.973 154.899L587.639 137.252C587.639 137.252 599.633 136.655 609.545 130.432C619.54 124.209 623.205 117.9 629.535 117.986C635.783 118.241 628.036 125.914 628.036 125.914Z" fill="#FFB800"/>
<path d="M632.703 104.09C632.453 104.005 632.37 103.835 632.453 103.749L632.87 102.044C632.87 101.874 633.036 101.789 633.203 101.874C633.369 101.959 633.453 102.044 633.369 102.215L632.953 103.92C632.953 104.005 632.786 104.09 632.703 104.09Z" fill="black"/>
<path d="M628.039 100.34C627.872 100.34 627.789 100.254 627.789 100.084C627.789 99.9133 627.872 99.7428 628.039 99.7428L629.455 99.5723C629.622 99.5723 629.788 99.6575 629.788 99.828C629.788 99.9985 629.705 100.169 629.538 100.169L628.039 100.34Z" fill="black"/>
<path d="M634.117 101.192H634.034L632.201 100.339C632.035 100.254 631.951 100.083 632.035 99.9129C632.118 99.7424 632.285 99.6572 632.451 99.7424L634.284 100.595C634.45 100.68 634.533 100.851 634.45 101.021C634.367 101.106 634.2 101.192 634.117 101.192Z" fill="black"/>
<path d="M639.78 105.113C639.78 105.113 638.948 108.182 638.364 107.841C637.781 107.415 637.282 102.982 637.781 100.936C638.281 98.9752 638.614 97.9522 638.614 97.9522C638.614 97.9522 630.618 97.0997 628.536 95.139C626.453 93.1782 630.951 91.9847 635.449 92.9225C639.947 93.8602 641.779 95.6505 641.779 95.6505C641.779 95.6505 644.612 95.2242 645.694 97.0145C646.694 98.8047 644.195 105.539 644.195 105.539C644.195 105.539 643.445 103.834 639.78 105.113Z" fill="black"/>
<path d="M631.203 110.654C631.12 110.654 631.036 110.569 630.953 110.484C630.87 110.313 630.87 110.143 631.036 110.058L632.952 108.694C633.119 108.608 633.285 108.608 633.369 108.779C633.452 108.949 633.452 109.12 633.285 109.205L631.37 110.569C631.286 110.654 631.203 110.654 631.203 110.654Z" fill="black"/>
<path d="M575.06 151.404C574.977 151.404 574.977 151.404 574.894 151.404C574.727 151.318 574.727 151.148 574.811 150.977L578.809 143.987C578.892 143.816 579.059 143.816 579.225 143.902C579.392 143.987 579.392 144.157 579.308 144.328L575.31 151.318C575.227 151.318 575.144 151.404 575.06 151.404Z" fill="black"/>
<path d="M626.456 159.247C626.372 159.247 626.206 159.162 626.206 159.077C624.207 153.706 620.875 144.584 620.958 144.073C621.125 143.561 623.54 140.577 624.54 139.384C623.374 138.361 620.458 135.889 620.292 135.121C620.125 134.354 624.373 126.426 626.206 123.016C626.289 122.845 626.456 122.845 626.622 122.931C626.789 123.016 626.789 123.186 626.706 123.357C624.457 127.534 620.875 134.439 620.875 135.121C620.958 135.462 623.124 137.508 625.123 139.213C625.206 139.299 625.206 139.299 625.206 139.384C625.206 139.469 625.206 139.554 625.123 139.64C623.457 141.686 621.625 143.987 621.541 144.328C621.541 144.925 624.623 153.45 626.706 158.991C626.789 159.162 626.706 159.332 626.539 159.418C626.539 159.247 626.456 159.247 626.456 159.247Z" fill="#AB96C1"/>
<path d="M626.871 175.018H640.948L637.449 127.193H627.704L626.871 175.018Z" fill="#AB96C1"/>
<path d="M637.449 133.501C637.449 133.501 640.781 176.382 640.948 176.212C641.114 176.041 658.523 175.7 658.523 175.7L657.94 163.168L637.449 133.501Z" fill="#FFB800"/>
<path d="M640.948 159.247H640.865C640.699 159.161 640.615 158.991 640.699 158.82C642.781 153.279 645.863 144.754 645.863 144.072C645.78 143.731 643.947 141.429 642.281 139.383C642.198 139.298 642.198 139.213 642.198 139.128C642.198 139.042 642.281 138.957 642.281 138.957C644.28 137.252 646.446 135.291 646.529 134.865C646.446 134.183 642.948 127.278 640.699 123.101C640.615 122.93 640.699 122.76 640.782 122.674C640.948 122.589 641.115 122.674 641.198 122.76C643.031 126.17 647.279 134.183 647.112 134.865C646.946 135.547 644.114 138.105 642.864 139.128C643.864 140.321 646.279 143.305 646.446 143.816C646.612 144.413 643.197 153.45 641.198 158.82C641.115 159.161 641.032 159.247 640.948 159.247Z" fill="#AB96C1"/>
<path d="M635.2 118.839C635.2 118.839 624.122 111.763 622.872 112.53C621.623 113.383 627.703 118.583 627.703 118.583C627.703 118.583 624.955 120.97 624.788 121.396C624.621 121.823 623.955 122.931 623.455 124.21C622.956 125.403 623.205 126.256 624.288 127.534C625.454 128.813 632.951 132.479 634.617 132.649C636.283 132.735 636.283 132.735 636.283 132.735L641.197 124.039C641.197 124.039 641.447 116.452 639.864 115.514C638.282 114.576 637.532 120.544 637.532 120.544L635.2 118.839Z" fill="#FFB49D"/>
<path d="M637.534 120.885C637.45 120.885 637.45 120.885 637.367 120.799L632.702 117.816C632.536 117.73 632.536 117.56 632.619 117.389C632.702 117.219 632.869 117.219 633.036 117.304L637.284 120.032C637.367 119.606 637.534 118.753 637.867 117.475C638.45 115.088 639.866 115.258 639.949 115.258C640.116 115.258 640.199 115.429 640.199 115.599C640.199 115.77 640.032 115.855 639.866 115.855C639.782 115.855 638.866 115.77 638.45 117.645C637.95 119.776 637.867 120.629 637.867 120.629C637.867 120.714 637.783 120.799 637.7 120.885C637.617 120.885 637.617 120.885 637.534 120.885Z" fill="black"/>
<path d="M628.954 120.032C628.87 120.032 628.787 120.032 628.787 119.947L627.538 118.839C627.454 118.753 627.371 118.583 627.538 118.412C627.621 118.327 627.871 118.242 627.954 118.412L629.203 119.521C629.287 119.606 629.37 119.776 629.203 119.947C629.12 119.947 629.037 120.032 628.954 120.032Z" fill="black"/>
<path d="M607.88 138.446C607.63 138.446 607.38 138.361 607.13 138.105C605.964 136.997 605.881 133.075 605.881 132.649C605.881 132.478 605.964 132.393 606.047 132.393C606.214 132.393 606.297 132.393 606.381 132.478C606.797 133.16 609.046 136.826 608.546 138.02C608.463 138.275 608.213 138.446 607.88 138.446ZM606.547 133.842C606.63 135.206 606.964 137.167 607.547 137.679C607.63 137.764 607.797 137.849 607.88 137.849C607.963 137.849 608.046 137.764 608.046 137.764C608.296 137.252 607.38 135.462 606.547 133.842Z" fill="#AB96C1"/>
<path d="M617.292 154.473C617.125 154.473 616.958 154.302 617.042 154.132L617.458 151.063C617.458 150.892 617.625 150.807 617.791 150.807C617.958 150.807 618.041 150.978 618.041 151.148L617.625 154.217C617.541 154.388 617.458 154.473 617.292 154.473Z" fill="#AB96C1"/>
<path d="M642.029 123.016L634.699 134.695C634.699 134.695 641.03 163.083 656.356 166.323C671.599 169.562 668.35 151.66 668.35 151.66L642.029 123.016Z" fill="#FFB800"/>
<path d="M660.606 141.941C660.523 141.941 660.439 141.856 660.356 141.771C656.774 136.315 646.613 126.341 646.529 126.255C646.446 126.17 646.446 125.914 646.529 125.829C646.613 125.744 646.862 125.744 646.946 125.829C647.029 125.914 657.274 135.974 660.856 141.43C660.939 141.6 660.939 141.771 660.773 141.856C660.689 141.941 660.606 141.941 660.606 141.941Z" fill="#AB96C1"/>
<path d="M660.522 138.702C658.856 138.702 655.441 135.548 654.775 134.951C654.691 134.866 654.691 134.695 654.691 134.61C654.775 134.525 654.858 134.439 655.025 134.439C655.608 134.61 660.522 135.974 661.355 137.338C661.438 137.594 661.522 137.764 661.438 138.02C661.355 138.446 661.022 138.617 660.855 138.702C660.689 138.702 660.605 138.702 660.522 138.702ZM656.107 135.377C657.773 136.826 659.856 138.361 660.689 138.105C660.772 138.105 660.855 138.02 660.938 137.849C660.938 137.849 660.938 137.764 660.855 137.679C660.355 136.826 657.857 135.889 656.107 135.377Z" fill="#AB96C1"/>
<path d="M482.941 286.014C482.941 286.014 498.267 294.027 502.682 298.631C507.179 303.149 507.263 306.218 506.763 307.667C506.18 309.117 474.195 306.73 474.195 306.73C474.195 306.73 474.112 297.693 470.697 298.205C467.282 298.716 468.947 306.815 468.947 306.815L459.285 306.474C459.285 306.474 459.119 297.523 459.868 294.027C460.701 290.276 463.034 284.394 463.034 284.394L482.941 286.014Z" fill="#A7B980"/>
<path d="M479.693 283.371C479.693 283.371 492.853 291.47 490.354 292.152C487.939 292.919 474.195 292.663 470.197 291.044C466.199 289.424 462.867 284.479 462.867 284.479L472.196 280.899L479.693 283.371Z" fill="#FFB49D"/>
<path d="M479.69 283.371C479.69 283.371 489.186 226.68 483.022 218.666C476.858 210.653 462.781 230.857 462.781 230.857L462.865 284.394C462.865 284.394 475.359 288.827 479.69 283.371Z" fill="#FFB49D"/>
<path d="M464.366 225.401C464.366 225.401 462.45 279.194 459.951 284.905C457.452 290.617 443.625 284.905 443.625 284.905L440.377 226.594L464.366 225.401Z" fill="#FFB49D"/>
<path d="M478.608 169.733C478.608 169.733 483.689 185.93 485.605 199.4C487.521 212.955 487.937 234.693 486.355 235.375C484.689 236.057 465.948 235.802 465.948 235.802C465.948 235.802 459.534 237.251 448.706 236.228C444.208 235.802 441.209 235.375 439.543 234.949C438.46 234.693 437.628 233.755 437.711 232.562C437.961 223.355 439.96 180.304 445.54 172.546C450.372 165.811 478.608 169.733 478.608 169.733Z" fill="#FFB800"/>
<path d="M460.45 283.115C460.45 283.115 465.364 300.506 464.365 304.172C463.365 307.838 452.953 312.015 449.538 311.845C446.123 311.674 439.959 305.536 439.127 303.405C438.294 301.188 442.542 280.217 447.373 281.581C452.204 282.945 460.45 283.115 460.45 283.115Z" fill="#81CEEA"/>
<path d="M460.45 283.115C460.45 283.115 458.035 294.624 452.371 294.624C446.707 294.624 443.625 284.905 443.625 284.905L445.957 274.079L460.45 283.115Z" fill="#FFB49D"/>
<path d="M494.186 154.899C494.186 154.899 483.108 128.983 470.78 125.318C458.453 121.652 471.697 157.798 471.697 157.798L494.186 154.899Z" fill="#81A8BD"/>
<path d="M448.29 123.954C448.29 123.954 424.218 129.069 421.052 149.188C416.721 176.894 449.872 179.025 449.872 179.025L448.29 123.954Z" fill="#81A8BD"/>
<path d="M455.288 119.776C455.288 119.776 444.127 121.311 447.709 106.562C451.29 91.8141 461.619 100.169 461.619 100.169L455.288 119.776Z" fill="black"/>
<path d="M480.857 176.809C480.857 176.809 481.023 130.177 471.944 125.744C460.533 120.203 444.124 122.76 441.125 128.387C437.71 134.78 442.625 173.484 442.625 173.484C442.625 173.484 459.617 183.288 480.857 176.809Z" fill="#81A8BD"/>
<path d="M453.203 115.77L452.537 123.698C452.537 123.698 453.203 126.341 457.701 127.108C461.033 127.705 462.866 126.767 462.866 126.767L462.699 122.675L462.532 118.753L454.453 116.196L453.203 115.77Z" fill="#FFB49D"/>
<path d="M454.537 116.196C454.537 116.452 454.62 116.707 454.704 116.963C456.12 121.055 460.784 122.334 462.7 122.675L462.533 118.753L454.537 116.196Z" fill="black"/>
<path d="M465.783 100.851C465.783 100.851 469.031 111.166 467.032 116.537C464.95 121.907 460.119 120.543 457.287 119.179C454.455 117.815 453.205 115.855 453.205 115.855C453.205 115.855 450.373 116.537 448.791 113.723C447.208 110.91 448.624 108.012 450.29 107.5C451.956 106.989 453.705 108.353 453.705 108.353L452.539 105.369C452.372 105.198 459.952 91.3027 465.783 100.851Z" fill="#FFB49D"/>
<path d="M486.938 140.407C486.938 140.407 494.851 123.613 493.685 123.442C492.519 123.186 485.355 139.128 485.355 139.128L486.938 140.407Z" fill="black"/>
<path d="M479.027 153.62C478.861 153.62 478.694 153.45 478.777 153.279C479.194 149.528 476.195 137.593 476.195 137.508C476.195 137.337 476.279 137.167 476.445 137.167C476.612 137.167 476.778 137.252 476.778 137.423C476.945 137.934 479.86 149.528 479.36 153.45C479.36 153.45 479.194 153.62 479.027 153.62Z" fill="white"/>
<path d="M494.932 148.761C494.932 148.761 489.851 137.935 487.019 136.4C484.104 134.866 476.691 135.462 476.524 136.4C476.441 137.338 483.021 139.213 483.021 139.213C483.021 139.213 478.44 145.522 478.19 147.056C477.94 148.591 480.856 153.45 481.522 153.962C482.188 154.473 484.437 152.257 484.437 152.257C484.437 152.257 486.186 155.07 489.102 156.263C491.934 157.457 495.848 153.28 495.848 153.28L494.932 148.761Z" fill="#FFB49D"/>
<path d="M465.613 110.228C465.446 110.228 465.363 110.143 465.28 109.973L465.113 108.012C465.113 107.841 465.197 107.756 465.28 107.671L466.196 107.33C466.363 107.245 466.529 107.33 466.529 107.5C466.613 107.671 466.529 107.841 466.363 107.841L465.613 108.097L465.78 109.802C465.946 110.058 465.78 110.228 465.613 110.228Z" fill="black"/>
<path d="M486.105 156.689C486.105 156.689 483.273 153.62 483.273 151.148C483.273 148.676 488.521 149.017 488.521 149.017L489.187 153.876L486.105 156.689Z" fill="#FF9C85"/>
<path d="M493.435 176.041H458.368C457.119 176.041 456.119 175.018 456.119 173.74V149.443C456.119 148.165 457.119 147.142 458.368 147.142H493.435C494.684 147.142 495.684 148.165 495.684 149.443V173.74C495.684 175.018 494.684 176.041 493.435 176.041Z" fill="black"/>
<path d="M490.852 176.041H455.952C454.703 176.041 453.703 175.018 453.703 173.74V149.443C453.703 148.165 454.703 147.142 455.952 147.142H490.852C492.102 147.142 493.101 148.165 493.101 149.443V173.74C493.101 175.018 492.102 176.041 490.852 176.041Z" fill="#BDBDBD"/>
<path d="M474.859 165.044C476.699 165.044 478.191 163.517 478.191 161.634C478.191 159.751 476.699 158.224 474.859 158.224C473.019 158.224 471.527 159.751 471.527 161.634C471.527 163.517 473.019 165.044 474.859 165.044Z" fill="white"/>
<path d="M460.116 109.887C459.949 109.887 459.866 109.717 459.782 109.631L459.699 107.926C459.699 107.841 459.782 107.671 459.866 107.671L460.782 107.244C460.949 107.159 461.115 107.244 461.199 107.415C461.282 107.585 461.198 107.756 461.032 107.841L460.282 108.182L460.366 109.717C460.366 109.717 460.282 109.802 460.116 109.887Z" fill="black"/>
<path d="M445.791 160.355C445.791 160.355 452.788 158.053 453.704 157.712C453.704 157.712 453.787 160.27 453.538 160.696C453.204 161.122 466.948 163.339 466.865 164.703C466.865 166.067 465.532 166.323 465.532 166.323C465.532 166.323 468.281 166.919 467.531 168.283C466.781 169.647 465.532 169.733 465.532 169.733C465.532 169.733 468.197 171.097 465.532 172.802C462.866 174.507 449.623 175.53 445.375 171.267C442.21 168.028 445.791 160.355 445.791 160.355Z" fill="#FFB49D"/>
<path d="M453.62 108.268C453.62 108.268 458.201 107.841 460.45 105.028C462.449 102.471 463.365 99.4016 463.365 99.4016C463.365 99.4016 464.282 100.254 465.364 102.215C466.197 103.749 466.864 105.54 466.864 105.54C466.864 105.54 468.946 99.0606 463.282 96.4179C457.618 93.7751 452.454 97.3556 450.705 100.936C449.039 104.517 453.62 108.268 453.62 108.268Z" fill="black"/>
<path d="M449.872 156.178L449.539 174.166C449.539 174.166 442.959 175.274 433.88 169.051C421.219 160.44 425.634 157.712 425.634 157.712L437.878 150.381L449.872 156.178Z" fill="#81A8BD"/>
<path d="M465.531 166.664L457.701 165.726C457.534 165.726 457.451 165.556 457.451 165.385C457.451 165.215 457.618 165.129 457.784 165.129L465.614 166.067C465.781 166.067 465.864 166.238 465.864 166.408C465.781 166.579 465.697 166.664 465.531 166.664Z" fill="black"/>
<path d="M465.534 169.989H457.704C457.538 169.989 457.371 169.818 457.371 169.648C457.371 169.477 457.538 169.307 457.704 169.307H465.534C465.701 169.307 465.867 169.477 465.867 169.648C465.784 169.903 465.701 169.989 465.534 169.989Z" fill="black"/>
<path d="M452.371 155.922C452.288 155.922 452.288 155.922 452.204 155.922C452.121 155.837 441.293 150.296 435.879 149.955C435.712 149.955 435.629 149.784 435.629 149.614C435.629 149.443 435.796 149.358 435.962 149.358C441.46 149.784 452.038 155.155 452.454 155.411C452.621 155.496 452.621 155.666 452.621 155.837C452.538 155.837 452.454 155.922 452.371 155.922Z" fill="white"/>
<path d="M445.374 152.683C445.29 152.683 445.207 152.683 445.207 152.597C443.708 151.404 439.043 147.397 439.46 146.118C439.543 145.948 439.71 145.692 440.293 145.607H440.376C443.208 145.607 445.624 152.001 445.707 152.256C445.79 152.342 445.707 152.512 445.624 152.597C445.54 152.683 445.457 152.683 445.374 152.683ZM440.293 146.289C440.043 146.289 439.96 146.374 439.96 146.374C439.793 146.886 442.125 149.273 444.624 151.404C443.708 149.358 441.959 146.289 440.293 146.289Z" fill="white"/>
<path d="M452.37 101.362C452.37 101.362 453.703 92.752 446.54 91.8995C439.377 91.047 440.293 105.539 449.455 105.369C458.701 105.198 452.37 101.362 452.37 101.362Z" fill="black"/>
<path d="M448.123 105.539C447.873 105.539 447.79 105.369 447.873 105.198C448.789 100.936 450.872 99.4865 450.955 99.4012C451.122 99.316 451.288 99.316 451.371 99.4865C451.455 99.657 451.455 99.8275 451.288 99.9127C451.288 99.9127 449.289 101.362 448.456 105.369C448.373 105.454 448.206 105.539 448.123 105.539Z" fill="white"/>
<path d="M459.285 105.795C459.118 105.795 459.035 105.71 459.035 105.539C459.035 105.369 459.118 105.198 459.285 105.198L461.867 104.772C462.034 104.772 462.2 104.857 462.2 105.028C462.2 105.198 462.117 105.369 461.95 105.369L459.285 105.795Z" fill="black"/>
<path d="M466.948 105.795C466.865 105.795 466.865 105.795 466.948 105.795L465.199 105.454C465.033 105.454 464.949 105.284 464.949 105.113C464.949 104.943 465.116 104.857 465.282 104.857L466.948 105.198C467.115 105.198 467.198 105.369 467.198 105.539C467.198 105.71 467.032 105.795 466.948 105.795Z" fill="black"/>
<path d="M463.367 113.212C463.284 113.212 463.2 113.212 463.117 113.127C463.034 113.041 463.034 112.786 463.117 112.7C464.2 111.677 463.117 108.949 463.117 108.949C463.034 108.779 463.117 108.608 463.284 108.523C463.45 108.438 463.617 108.523 463.7 108.694C463.784 108.779 465.033 111.763 463.617 113.127C463.534 113.212 463.45 113.212 463.367 113.212Z" fill="black"/>
<path d="M461.036 115.514H460.952C460.869 115.514 459.453 115.002 459.203 113.382C459.203 113.212 459.286 113.042 459.453 113.042C459.62 113.042 459.786 113.127 459.786 113.297C460.036 114.576 461.119 115.002 461.202 115.002C461.369 115.087 461.452 115.258 461.369 115.343C461.286 115.429 461.202 115.514 461.036 115.514Z" fill="black"/>
<path d="M452.871 112.359C452.788 112.359 452.704 112.359 452.704 112.274L449.789 109.375C449.706 109.29 449.706 109.034 449.789 108.949C449.872 108.864 450.122 108.864 450.206 108.949L453.121 111.848C453.204 111.933 453.204 112.189 453.121 112.274C453.038 112.359 452.954 112.359 452.871 112.359Z" fill="black"/>
<path d="M449.873 111.592C449.706 111.592 449.623 111.507 449.623 111.337C449.623 111.166 449.706 110.995 449.873 110.995L451.789 110.74C451.955 110.74 452.122 110.825 452.122 110.995C452.122 111.166 452.039 111.337 451.872 111.337L449.873 111.592Z" fill="black"/>
<path d="M459.034 127.619C456.702 127.619 454.12 127.023 452.121 124.806C452.038 124.721 452.038 124.465 452.121 124.38C452.204 124.295 452.454 124.295 452.538 124.38C456.702 129.069 464.032 126.085 464.115 126.085C464.282 126 464.449 126.085 464.532 126.255C464.615 126.426 464.532 126.596 464.365 126.682C464.365 126.596 461.95 127.619 459.034 127.619Z" fill="white"/>
<path d="M486.939 140.748C486.856 140.748 486.772 140.748 486.772 140.662C486.023 139.98 483.857 139.554 483.107 139.469C482.941 139.469 482.857 139.298 482.857 139.128C482.857 138.957 483.024 138.872 483.191 138.872C483.274 138.872 486.189 139.213 487.189 140.151C487.272 140.236 487.355 140.492 487.189 140.577C487.105 140.662 487.022 140.748 486.939 140.748Z" fill="black"/>
<path d="M445.457 236.313C445.291 236.313 445.207 236.227 445.207 236.057L442.792 227.617L441.126 235.375C441.126 235.545 440.959 235.631 440.793 235.631C440.626 235.631 440.543 235.46 440.543 235.29L442.459 226.424C442.459 226.253 442.625 226.168 442.709 226.168C442.875 226.168 442.958 226.253 442.958 226.424L445.707 235.972C445.79 236.057 445.707 236.227 445.457 236.313Z" fill="#BDBDBD"/>
<path d="M446.04 310.821C447.206 310.821 448.206 309.884 448.206 308.605V203.918H443.958V308.605C443.875 309.798 444.874 310.821 446.04 310.821Z" fill="#B8B0BF"/>
<path d="M369.039 295.329H377.285V237.53H369.039V295.329Z" fill="#C7BFCE"/>
<path d="M355.668 298.801H390.402C391.818 298.801 392.984 297.608 392.984 296.158C392.984 294.709 391.818 293.516 390.402 293.516H355.668C354.252 293.516 353.086 294.709 353.086 296.158C353.086 297.608 354.252 298.801 355.668 298.801Z" fill="#C7BFCE"/>
<path d="M385.82 302.893C385.82 306.048 388.319 308.605 391.401 308.605C394.483 308.605 396.982 306.048 396.982 302.893C396.982 299.739 394.483 297.182 391.401 297.182C388.319 297.182 385.82 299.739 385.82 302.893Z" fill="#C7BFCE"/>
<path d="M367.578 302.893C367.578 306.048 370.077 308.605 373.159 308.605C376.241 308.605 378.74 306.048 378.74 302.893C378.74 299.739 376.241 297.182 373.159 297.182C370.077 297.182 367.578 299.739 367.578 302.893Z" fill="#C7BFCE"/>
<path d="M349.338 302.893C349.338 306.048 351.837 308.605 354.919 308.605C358 308.605 360.499 306.048 360.499 302.893C360.499 299.739 358 297.182 354.919 297.182C351.92 297.182 349.338 299.739 349.338 302.893Z" fill="#C7BFCE"/>
<path d="M348.836 183.714C348.836 183.714 331.261 194.455 335.176 217.984C339.674 245.094 366.078 253.875 388.984 247.481C411.89 241.087 408.059 222.588 408.059 222.588L348.836 183.714Z" fill="#E0DFE5"/>
<path d="M345.337 232.903C345.254 232.903 345.171 232.903 345.171 232.818C339.34 227.277 338.257 216.876 338.174 216.45C338.174 216.279 338.257 216.109 338.424 216.109C338.59 216.109 338.757 216.194 338.757 216.365C338.757 216.45 339.84 227.021 345.504 232.392C345.587 232.477 345.67 232.733 345.504 232.818C345.504 232.818 345.42 232.903 345.337 232.903Z" fill="white"/>
<path d="M380.487 151.575C380.487 151.575 392.398 152.683 396.896 158.565C401.394 164.447 395.48 201.446 395.147 201.957C394.814 202.469 386.485 206.22 371.991 205.879C357.498 205.538 354 202.725 353.5 201.957C353 201.19 350.002 159.418 353.5 155.837C356.998 152.257 371.741 150.466 380.487 151.575Z" fill="#AB96C1"/>
<path d="M396.48 275.272V291.043L384.819 295.561L377.406 287.122L376.156 272.544L396.48 275.272Z" fill="#FFB49D"/>
<path d="M418.471 272.033V287.804L405.977 292.322L398.064 283.882L396.814 269.305L418.471 272.033Z" fill="#FFB49D"/>
<path d="M392.9 199.059C392.9 199.059 422.719 214.404 426.384 220.627C430.049 226.85 426.051 277.744 426.051 277.744L399.563 278.085L395.898 249.697L375.824 201.787L392.9 199.059Z" fill="#A7B980"/>
<path d="M356.666 202.298C356.666 202.298 355.5 215.938 355.916 220.457C356.333 224.975 370.159 235.461 370.159 235.461L370.826 279.194L401.395 280.558C401.395 280.558 402.061 230.601 401.561 225.913C401.061 221.224 380.654 204.089 380.654 204.089L356.666 202.298Z" fill="#A7B980"/>
<path d="M373.326 145.181L373.493 153.109C373.493 153.109 374.909 155.325 379.49 155.666C382.905 155.837 384.071 155.07 384.071 155.07L383.488 151.063L382.905 147.141L374.659 145.522L373.326 145.181Z" fill="#FFB49D"/>
<path d="M374.74 145.437C374.74 145.692 374.824 145.948 374.99 146.204C376.823 150.125 381.57 150.893 383.569 150.978L382.986 147.056L374.74 145.437Z" fill="black"/>
<path d="M384.32 128.898C384.32 128.898 388.652 138.787 387.152 144.328C385.653 149.87 380.739 149.102 377.74 147.994C374.741 146.971 373.409 145.096 373.409 145.096C373.409 145.096 370.66 146.033 368.744 143.476C366.912 140.833 367.995 137.849 369.577 137.082C371.16 136.4 373.076 137.508 373.076 137.508L371.493 134.695C371.493 134.695 377.657 120.032 384.32 128.898Z" fill="#FFB49D"/>
<path d="M383.987 141.515H383.904C383.737 141.43 383.654 141.259 383.737 141.174C384.32 139.384 382.988 137.338 382.904 137.338C382.821 137.167 382.821 136.997 382.988 136.911C383.154 136.826 383.321 136.826 383.404 136.997C383.487 137.082 384.903 139.213 384.32 141.344C384.237 141.43 384.07 141.515 383.987 141.515Z" fill="black"/>
<path d="M372.575 142.197C372.492 142.197 372.409 142.197 372.326 142.112L369.66 139.298C369.577 139.213 369.577 138.957 369.66 138.872C369.743 138.787 369.993 138.787 370.077 138.872L372.742 141.685C372.825 141.771 372.825 142.026 372.742 142.112C372.742 142.197 372.659 142.197 372.575 142.197Z" fill="black"/>
<path d="M369.824 141.43C369.658 141.43 369.574 141.344 369.574 141.174C369.574 141.003 369.658 140.833 369.824 140.833L371.657 140.577C371.823 140.577 371.99 140.662 371.99 140.833C371.99 141.003 371.906 141.174 371.74 141.174L369.824 141.43Z" fill="black"/>
<path d="M379.572 137.849C379.405 137.849 379.322 137.764 379.322 137.593L379.072 135.718C379.072 135.547 379.156 135.377 379.322 135.377C379.489 135.377 379.655 135.462 379.655 135.633L379.905 137.508C379.905 137.679 379.739 137.764 379.572 137.849Z" fill="black"/>
<path d="M384.904 137.337C384.737 137.337 384.654 137.252 384.654 137.082L384.404 135.206C384.404 135.036 384.488 134.865 384.654 134.865C384.821 134.865 384.987 134.95 384.987 135.121L385.237 136.996C385.237 137.167 385.154 137.337 384.904 137.337Z" fill="black"/>
<path d="M378.322 134.439C378.239 134.439 378.239 134.439 378.156 134.439C377.989 134.354 377.989 134.183 378.072 134.013C378.739 132.734 380.321 133.16 380.405 133.16C380.571 133.16 380.654 133.331 380.654 133.501C380.654 133.672 380.488 133.757 380.321 133.757C380.238 133.757 379.072 133.501 378.655 134.354C378.572 134.354 378.405 134.439 378.322 134.439Z" fill="black"/>
<path d="M385.317 133.672C385.233 133.672 385.15 133.672 385.067 133.587C385.067 133.587 384.734 133.075 384.234 133.075C384.067 133.075 383.817 133.16 383.651 133.331C383.568 133.416 383.318 133.416 383.234 133.331C383.151 133.246 383.151 132.99 383.234 132.905C383.568 132.649 383.901 132.478 384.317 132.564C384.984 132.649 385.483 133.246 385.567 133.331C385.65 133.501 385.65 133.672 385.483 133.757C385.4 133.672 385.4 133.672 385.317 133.672Z" fill="black"/>
<path d="M373.908 138.275C373.908 138.275 376.49 136.485 376.406 133.672C376.24 130.944 375.657 130.177 375.657 130.177C375.657 130.177 378.739 130.006 381.238 129.154C382.903 128.642 383.57 127.96 383.57 127.96L384.319 128.813C385.069 128.813 386.818 123.953 385.735 123.101C384.653 122.248 378.322 124.465 378.322 124.465C378.322 124.465 371.742 122.845 367.91 127.704C364.079 132.564 368.41 138.105 368.41 138.105C368.41 138.105 369.493 135.718 373.908 138.275Z" fill="black"/>
<path d="M381.488 144.839C381.321 144.839 381.155 144.839 380.905 144.754C380.572 144.669 380.239 144.413 380.155 144.157C379.905 143.646 380.072 142.964 380.072 142.964C380.072 142.879 380.155 142.793 380.239 142.793C380.322 142.793 380.405 142.793 380.488 142.793L382.987 143.731C383.071 143.731 383.154 143.816 383.154 143.987C383.154 144.072 383.154 144.157 383.071 144.243C382.987 144.243 382.404 144.839 381.488 144.839ZM380.572 143.39C380.572 143.561 380.572 143.646 380.655 143.816C380.738 143.987 380.905 144.072 381.072 144.157C381.488 144.328 381.904 144.157 382.154 144.072L380.572 143.39Z" fill="black"/>
<path d="M431.299 172.631L431.549 170.841C431.549 170.841 438.212 165.641 442.294 163.936C444.043 163.254 446.458 163.85 444.376 166.152C443.293 167.431 442.71 168.88 442.71 168.88C442.71 168.88 445.959 167.857 448.291 166.323C449.707 165.385 451.872 161.378 453.122 162.231C455.121 163.595 452.789 167.431 452.789 167.431C452.789 167.431 453.788 162.571 455.787 164.447C457.703 166.322 452.456 175.87 449.873 178.172C447.375 180.474 434.048 183.117 434.048 183.117L431.299 172.631Z" fill="#FFB49D"/>
<path d="M445.375 171.012C445.208 171.012 445.125 170.926 445.125 170.756C445.125 170.585 445.208 170.415 445.375 170.415C448.29 170.159 451.039 167.516 451.039 167.431C451.122 167.346 451.372 167.346 451.455 167.431C451.539 167.516 451.539 167.772 451.455 167.857C451.289 168.028 448.457 170.671 445.375 171.012Z" fill="black"/>
<path d="M448.789 173.228C448.706 173.228 448.706 173.228 448.623 173.143L442.792 169.562C442.626 169.477 442.626 169.306 442.709 169.136C442.792 168.965 442.959 168.965 443.125 169.051L448.789 172.546L451.372 170.5C451.538 170.415 451.705 170.415 451.788 170.585C451.871 170.756 451.871 170.926 451.705 171.011L448.956 173.143C448.873 173.228 448.873 173.228 448.789 173.228Z" fill="black"/>
<path d="M437.544 173.143C437.461 173.143 437.294 173.057 437.294 172.972C437.211 172.801 437.294 172.631 437.461 172.631C440.626 171.608 442.709 169.221 442.709 169.221C442.792 169.136 443.042 169.05 443.125 169.221C443.208 169.306 443.292 169.477 443.125 169.647C443.042 169.732 440.959 172.205 437.628 173.228C437.628 173.142 437.628 173.143 437.544 173.143Z" fill="black"/>
<path d="M395.398 156.945C395.398 156.945 408.975 169.221 419.886 169.903C425.134 170.244 432.214 167.687 432.214 167.687L438.461 184.481C438.461 184.481 416.388 205.879 393.898 188.999C387.485 184.225 395.398 156.945 395.398 156.945Z" fill="#AB96C1"/>
<path d="M396.981 178.087C396.814 178.087 396.648 177.917 396.648 177.746C396.648 175.7 393.066 164.618 393.066 164.533C392.983 164.362 393.066 164.192 393.232 164.192C393.399 164.106 393.566 164.192 393.566 164.362C393.732 164.788 397.231 175.615 397.231 177.746C397.314 177.917 397.147 178.087 396.981 178.087Z" fill="#FFB800"/>
<path d="M394.73 305.621C394.73 305.621 395.314 280.302 399.145 280.813C402.977 281.325 406.808 284.991 406.808 284.991C406.808 284.991 415.554 280.217 419.469 282.859C423.3 285.502 425.549 291.299 425.549 291.299L446.956 305.536C446.956 305.536 449.538 309.713 448.788 311.844C448.205 313.464 415.637 312.526 401.394 312.1C397.646 312.015 394.73 309.116 394.73 305.621Z" fill="#F2A253"/>
<path d="M405.727 299.398C405.727 299.398 400.396 285.928 396.898 283.626C393.399 281.325 384.737 288.656 384.737 288.656C384.737 288.656 377.49 280.813 375.658 284.905C373.909 288.997 372.992 303.66 374.325 306.985C375.658 310.31 385.653 315.595 398.73 315.595C404.894 315.595 413.806 313.634 413.806 311.503C413.89 308.093 407.809 301.699 405.727 299.398Z" fill="#FFB800"/>
<path d="M400.396 295.05H390.318C390.151 295.05 389.984 294.88 389.984 294.709C389.984 294.539 390.151 294.368 390.318 294.368H400.396C400.563 294.368 400.729 294.539 400.729 294.709C400.646 294.965 400.479 295.05 400.396 295.05Z" fill="white"/>
<path d="M380.821 156.178L385.236 186.015H381.571L378.322 155.581L380.821 156.178Z" fill="#BDBDBD"/>
<path d="M435.044 187.465L438.21 186.356C438.626 186.186 438.876 185.76 438.709 185.333L432.879 167.516C432.712 167.09 432.296 166.834 431.879 167.005L428.714 168.113C428.298 168.283 428.048 168.71 428.214 169.136L434.045 186.953C434.128 187.379 434.628 187.635 435.044 187.465Z" fill="#BDBDBD"/>
<path d="M401.979 299.739H391.318C391.151 299.739 390.984 299.569 390.984 299.398C390.984 299.228 391.151 299.057 391.318 299.057H401.979C402.146 299.057 402.312 299.228 402.312 299.398C402.312 299.569 402.146 299.739 401.979 299.739Z" fill="white"/>
<path d="M420.137 293.516C419.97 293.516 419.887 293.43 419.887 293.26C419.887 293.089 419.97 292.919 420.137 292.919L426.55 292.066C426.717 292.066 426.883 292.152 426.883 292.322C426.883 292.493 426.8 292.663 426.634 292.663L420.137 293.516Z" fill="white"/>
<path d="M421.803 298.034C421.636 298.034 421.553 297.948 421.553 297.778C421.553 297.607 421.636 297.437 421.803 297.437L432.548 295.732C432.714 295.732 432.881 295.817 432.881 295.988C432.881 296.158 432.797 296.329 432.631 296.329L421.803 298.034Z" fill="white"/>
<path d="M402.728 276.892C402.562 276.892 402.395 276.721 402.395 276.551C402.395 276.125 403.478 229.919 402.395 224.548C401.646 220.883 390.151 209.374 390.068 209.203C389.984 209.118 389.984 209.033 389.984 208.948C389.984 208.862 390.068 208.777 390.151 208.692L398.397 205.623C398.564 205.538 398.73 205.623 398.814 205.793C398.897 205.964 398.814 206.134 398.647 206.22L390.817 209.118C392.733 211.079 402.229 220.883 402.978 224.378C404.144 229.834 403.062 274.675 402.978 276.551C402.978 276.721 402.895 276.892 402.728 276.892Z" fill="#BDBDBD"/>
<path d="M375.657 196.586C375.657 196.586 382.82 199.57 384.236 199.314C385.652 199.144 390.733 198.547 390.983 197.439L389.067 194.029C389.067 194.029 391.899 195.222 393.898 194.199C395.814 193.176 398.146 191.13 398.646 189.511C399.146 187.891 396.897 188.232 396.897 188.232C396.897 188.232 399.395 186.612 396.23 185.248C392.982 183.884 379.155 181.838 373.408 185.504C367.494 189.34 375.657 196.586 375.657 196.586Z" fill="#FFB49D"/>
<path d="M396.814 188.658H396.731C393.399 187.464 389.818 187.976 389.818 187.976C389.651 187.976 389.484 187.89 389.484 187.72C389.484 187.549 389.568 187.379 389.734 187.379C389.901 187.379 393.482 186.867 396.898 188.061C397.064 188.146 397.147 188.317 397.064 188.402C397.064 188.572 396.898 188.658 396.814 188.658Z" fill="black"/>
<path d="M370.325 238.103C370.242 238.103 370.242 238.103 370.159 238.018C370.075 237.933 369.992 237.848 369.992 237.762C369.992 237.592 370.409 233.244 372.491 231.88C373.157 231.369 373.99 231.283 374.823 231.539C375.573 231.795 375.989 232.136 375.989 232.647C376.156 234.608 370.992 237.677 370.325 238.018C370.409 238.103 370.325 238.103 370.325 238.103ZM373.99 232.051C373.574 232.051 373.241 232.136 372.907 232.392C371.491 233.329 370.908 236.057 370.742 237.251C372.824 235.972 375.656 233.841 375.573 232.818C375.573 232.562 375.24 232.306 374.74 232.221C374.49 232.051 374.24 232.051 373.99 232.051Z" fill="#BDBDBD"/>
<path d="M389.65 198.206H426.633L437.211 173.739H401.645C400.729 173.739 399.979 174.251 399.562 175.103L389.65 198.206Z" fill="white"/>
<path d="M392.898 198.206H429.881L439.293 176.382C439.793 175.103 438.96 173.739 437.627 173.739H403.477L392.898 198.206Z" fill="#7C576C"/>
<path d="M377.24 201.36H429.465C430.298 201.36 430.964 200.678 430.964 199.826C430.964 198.973 430.298 198.292 429.465 198.292H377.24C376.407 198.292 375.74 198.973 375.74 199.826C375.74 200.678 376.407 201.36 377.24 201.36Z" fill="black"/>
<path d="M353.501 155.837C353.501 155.837 332.844 178.854 336.176 193.858C339.508 208.862 380.405 199.059 380.405 199.059L379.989 181.497L358.749 178.087L353.501 155.837Z" fill="#AB96C1"/>
<path d="M351.667 179.195C350.334 179.195 349.252 179.025 348.918 178.513C348.752 178.172 348.835 177.746 349.252 177.32C351.75 174.507 357.914 177.831 358.164 177.917C358.247 178.002 358.331 178.087 358.331 178.258C358.331 178.343 358.247 178.513 358.081 178.513C356.831 178.684 353.916 179.195 351.667 179.195ZM352.25 176.808C351.251 176.808 350.334 177.064 349.751 177.746C349.501 178.002 349.501 178.172 349.501 178.258C349.835 178.854 353.583 178.684 357.081 178.087C355.998 177.576 353.999 176.808 352.25 176.808Z" fill="#FFB800"/>
<path d="M356.5 203.748C356.334 203.748 356.084 203.748 355.917 203.748C355.751 203.748 355.584 203.577 355.584 203.407C355.584 203.236 355.751 203.066 355.917 203.066C366.162 203.151 374.658 200.934 374.742 200.934C374.908 200.849 375.075 201.02 375.158 201.19C375.241 201.361 375.075 201.531 374.908 201.616C374.825 201.616 366.579 203.748 356.5 203.748Z" fill="#FFBA57"/>
<path d="M357.998 178.514C357.915 178.514 357.831 178.428 357.748 178.343C357.665 178.173 357.665 178.002 357.831 177.917C359.747 176.553 358.081 172.12 358.081 172.12C357.998 171.949 358.081 171.779 358.248 171.694C358.414 171.608 358.581 171.694 358.664 171.864C358.748 172.035 360.497 176.809 358.248 178.428C358.165 178.428 358.081 178.514 357.998 178.514Z" fill="#FFB800"/>
<path d="M337.425 206.39H453.536C455.036 206.39 456.285 205.111 456.285 203.577C456.285 202.042 455.036 200.764 453.536 200.764H337.425C335.925 200.764 334.676 202.042 334.676 203.577C334.759 205.197 335.925 206.39 337.425 206.39Z" fill="#B8B0BF"/>
<path d="M395.314 272.885L371.242 271.606C371.075 271.606 370.992 271.436 370.992 271.265C370.992 271.095 371.075 270.924 371.325 271.009L395.397 272.288C395.564 272.288 395.647 272.459 395.647 272.629C395.647 272.714 395.481 272.885 395.314 272.885Z" fill="#BDBDBD"/>
<path d="M424.302 271.521H402.812C402.645 271.521 402.479 271.351 402.479 271.18C402.479 271.01 402.645 270.839 402.812 270.839H424.302C424.468 270.839 424.635 271.01 424.635 271.18C424.635 271.351 424.468 271.521 424.302 271.521Z" fill="#BDBDBD"/>
<path d="M376.657 200.252H379.989C380.405 200.252 380.822 199.911 380.822 199.4V180.56C380.822 180.133 380.489 179.707 379.989 179.707H376.657C376.241 179.707 375.824 180.048 375.824 180.56V199.4C375.824 199.826 376.241 200.252 376.657 200.252Z" fill="#BDBDBD"/>
<path d="M413.055 186.015C413.055 187.806 414.471 189.255 416.22 189.255C417.969 189.255 419.385 187.806 419.385 186.015C419.385 184.225 417.969 182.776 416.22 182.776C414.471 182.776 413.055 184.225 413.055 186.015Z" fill="white"/>
<path d="M383.655 152.001C383.655 152.001 386.154 160.526 385.321 160.355C384.488 160.185 379.574 155.666 379.574 155.666C379.574 155.666 375.992 160.355 374.743 160.355C373.577 160.355 373.16 151.233 373.16 151.233C373.16 151.233 374.41 154.132 378.741 154.729C383.155 155.411 383.655 152.001 383.655 152.001Z" fill="#BDBDBD"/>
<path d="M344.922 310.566C346.088 310.566 347.088 309.628 347.088 308.349V203.662H342.84V308.434C342.84 309.628 343.756 310.566 344.922 310.566Z" fill="#B8B0BF"/>
<path d="M169.919 66.9215H110.864C107.032 66.9215 103.867 63.682 103.867 59.7605V33.1625C103.867 29.241 107.032 26.0015 110.864 26.0015H169.919C173.751 26.0015 176.916 29.241 176.916 33.1625V59.8457C176.916 63.682 173.751 66.9215 169.919 66.9215ZM110.864 26.5982C107.366 26.5982 104.45 29.4967 104.45 33.1625V59.8457C104.45 63.4262 107.282 66.41 110.864 66.41H169.919C173.418 66.41 176.333 63.5115 176.333 59.8457V33.1625C176.333 29.582 173.501 26.5982 169.919 26.5982H110.864Z" fill="#AB96C1"/>
<path d="M176.583 35.3788H104.2C104.034 35.3788 103.867 35.2083 103.867 35.0378C103.867 34.8673 104.034 34.6968 104.2 34.6968H176.583C176.75 34.6968 176.916 34.8673 176.916 35.0378C176.916 35.2935 176.75 35.3788 176.583 35.3788Z" fill="#AB96C1"/>
<path d="M109.615 33.1627C109.532 33.1627 109.448 33.1627 109.365 33.0774C109.282 32.9922 109.282 32.7364 109.365 32.6512L112.947 29.2412C113.03 29.1559 113.28 29.1559 113.363 29.2412C113.447 29.3264 113.447 29.5822 113.363 29.6674L109.782 33.0774C109.782 33.0774 109.698 33.1627 109.615 33.1627Z" fill="#AB96C1"/>
<path d="M113.197 33.1627C113.114 33.1627 113.031 33.1627 113.031 33.0774L109.449 29.6674C109.366 29.5822 109.366 29.3264 109.449 29.2412C109.532 29.1559 109.782 29.1559 109.866 29.2412L113.447 32.6512C113.531 32.7364 113.531 32.9922 113.447 33.0774C113.364 33.0774 113.281 33.1627 113.197 33.1627Z" fill="#AB96C1"/>
<path d="M624.792 75.7025H576.648C573.482 75.7025 570.9 73.0597 570.9 69.8202V48.0815C570.9 44.842 573.482 42.1992 576.648 42.1992H624.792C627.957 42.1992 630.539 44.842 630.539 48.0815V69.8202C630.539 73.0597 627.957 75.7025 624.792 75.7025ZM576.648 42.796C573.816 42.796 571.483 45.183 571.483 48.0815V69.8202C571.483 72.7187 573.816 75.1057 576.648 75.1057H624.792C627.624 75.1057 629.956 72.7187 629.956 69.8202V48.0815C629.956 45.183 627.624 42.796 624.792 42.796H576.648Z" fill="#BDBDBD"/>
<path d="M630.205 49.9569H571.15C570.983 49.9569 570.816 49.7864 570.816 49.6159C570.816 49.4454 570.983 49.2749 571.15 49.2749H630.205C630.372 49.2749 630.538 49.4454 630.538 49.6159C630.538 49.8717 630.372 49.9569 630.205 49.9569Z" fill="#BDBDBD"/>
<path d="M616.379 45.8647C616.379 46.5467 615.879 47.0582 615.213 47.0582C614.547 47.0582 614.047 46.5467 614.047 45.8647C614.047 45.1827 614.547 44.6712 615.213 44.6712C615.796 44.586 616.379 45.1827 616.379 45.8647Z" fill="#BDBDBD"/>
<path d="M620.875 45.8647C620.875 46.5467 620.375 47.0582 619.709 47.0582C619.043 47.0582 618.543 46.5467 618.543 45.8647C618.543 45.1827 619.043 44.6712 619.709 44.6712C620.375 44.586 620.875 45.1827 620.875 45.8647Z" fill="#BDBDBD"/>
<path d="M625.707 45.8652C625.707 46.5472 625.207 47.0587 624.541 47.0587C623.875 47.0587 623.375 46.5472 623.375 45.8652C623.375 45.1832 623.875 44.6717 624.541 44.6717C625.124 44.5865 625.707 45.1832 625.707 45.8652Z" fill="#BDBDBD"/>
</svg>
