<svg width="18" height="18" viewBox="0 0 18 18" fill="none" xmlns="http://www.w3.org/2000/svg">
<path d="M15.6354 11.165L12.323 9.68072L12.3138 9.6765C12.1419 9.60295 11.9543 9.57343 11.768 9.59062C11.5818 9.60781 11.4028 9.67116 11.2472 9.77494C11.2289 9.78704 11.2113 9.80018 11.1945 9.81431L9.48305 11.2733C8.39883 10.7467 7.27946 9.63572 6.75282 8.56556L8.21391 6.82814C8.22798 6.81056 8.24133 6.79298 8.25399 6.774C8.35554 6.61882 8.41716 6.44094 8.43335 6.2562C8.44954 6.07145 8.41981 5.88557 8.3468 5.71509V5.70665L6.85829 2.38861C6.76178 2.1659 6.59583 1.98038 6.38522 1.85974C6.1746 1.7391 5.93062 1.68981 5.68969 1.71923C4.73694 1.8446 3.8624 2.31251 3.22941 3.03555C2.59643 3.75859 2.24828 4.68733 2.25001 5.6483C2.25001 11.2311 6.79219 15.7733 12.375 15.7733C13.336 15.775 14.2647 15.4269 14.9878 14.7939C15.7108 14.1609 16.1787 13.2864 16.3041 12.3336C16.3335 12.0928 16.2844 11.8488 16.1638 11.6382C16.0433 11.4276 15.858 11.2616 15.6354 11.165ZM12.375 14.6483C9.98886 14.6457 7.70119 13.6966 6.01392 12.0094C4.32666 10.3221 3.37761 8.03444 3.37501 5.6483C3.37236 4.96169 3.61973 4.29759 4.07091 3.78003C4.5221 3.26246 5.14625 2.92683 5.8268 2.8358C5.82653 2.8386 5.82653 2.84143 5.8268 2.84423L7.30337 6.14892L5.85001 7.88845C5.83525 7.90543 5.82185 7.92353 5.80993 7.94259C5.70412 8.10496 5.64205 8.2919 5.62973 8.48531C5.61741 8.67871 5.65526 8.87202 5.73962 9.0465C6.37665 10.3494 7.68938 11.6523 9.00633 12.2886C9.18209 12.3722 9.37652 12.4087 9.57062 12.3947C9.76473 12.3806 9.95187 12.3165 10.1138 12.2085C10.1318 12.1963 10.1492 12.1831 10.1658 12.1691L11.8751 10.7108L15.1798 12.1909C15.1798 12.1909 15.1854 12.1909 15.1875 12.1909C15.0976 12.8724 14.7624 13.4978 14.2448 13.9501C13.7271 14.4024 13.0624 14.6506 12.375 14.6483Z" fill="#DFA203"/>
</svg>
