<svg width="71" height="14" viewBox="0 0 71 14" fill="none" xmlns="http://www.w3.org/2000/svg">
<path d="M7.29903 11.9101C7.22447 11.9105 7.15056 11.8962 7.08153 11.868C7.01251 11.8398 6.94972 11.7982 6.89679 11.7456L2.49472 7.3332C1.94254 6.77465 1.63281 6.02056 1.63281 5.23473C1.63281 4.44891 1.94254 3.69482 2.49472 3.13627C3.05122 2.58075 3.80505 2.2688 4.59094 2.2688C5.37684 2.2688 6.13067 2.58075 6.68716 3.13627L7.29903 3.7488L7.9109 3.13627C8.4674 2.58075 9.22123 2.2688 10.0071 2.2688C10.793 2.2688 11.5469 2.58075 12.1033 3.13627C12.6555 3.69482 12.9653 4.44891 12.9653 5.23473C12.9653 6.02056 12.6555 6.77465 12.1033 7.3332L7.70128 11.7456C7.64834 11.7982 7.58556 11.8398 7.51654 11.868C7.44751 11.8962 7.3736 11.9105 7.29903 11.9101Z" fill="#F1B720"/>
<path d="M21.4006 11.9101C21.326 11.9105 21.2521 11.8962 21.1831 11.868C21.1141 11.8398 21.0513 11.7982 20.9983 11.7456L16.5963 7.3332C16.0441 6.77465 15.7344 6.02056 15.7344 5.23473C15.7344 4.44891 16.0441 3.69482 16.5963 3.13627C17.1528 2.58075 17.9066 2.2688 18.6925 2.2688C19.4784 2.2688 20.2322 2.58075 20.7887 3.13627L21.4006 3.7488L22.0125 3.13627C22.569 2.58075 23.3228 2.2688 24.1087 2.2688C24.8946 2.2688 25.6484 2.58075 26.2049 3.13627C26.7571 3.69482 27.0668 4.44891 27.0668 5.23473C27.0668 6.02056 26.7571 6.77465 26.2049 7.3332L21.8028 11.7456C21.7499 11.7982 21.6871 11.8398 21.6181 11.868C21.5491 11.8962 21.4752 11.9105 21.4006 11.9101Z" fill="#F1B720"/>
<path d="M63.7014 11.9101C63.6268 11.9105 63.5529 11.8962 63.4839 11.868C63.4149 11.8398 63.3521 11.7982 63.2991 11.7456L58.8971 7.3332C58.3449 6.77465 58.0352 6.02056 58.0352 5.23473C58.0352 4.44891 58.3449 3.69482 58.8971 3.13627C59.4536 2.58075 60.2074 2.2688 60.9933 2.2688C61.7792 2.2688 62.533 2.58075 63.0895 3.13627L63.7014 3.7488L64.3132 3.13627C64.8697 2.58075 65.6236 2.2688 66.4095 2.2688C67.1954 2.2688 67.9492 2.58075 68.5057 3.13627C69.0579 3.69482 69.3676 4.44891 69.3676 5.23473C69.3676 6.02056 69.0579 6.77465 68.5057 7.3332L64.1036 11.7456C64.0507 11.7982 63.9879 11.8398 63.9189 11.868C63.8499 11.8962 63.7759 11.9105 63.7014 11.9101Z" fill="#F1B720"/>
<path d="M35.5002 11.9101C35.4256 11.9105 35.3517 11.8962 35.2827 11.868C35.2137 11.8398 35.1509 11.7982 35.098 11.7456L30.6959 7.3332C30.1437 6.77465 29.834 6.02056 29.834 5.23473C29.834 4.44891 30.1437 3.69482 30.6959 3.13627C31.2524 2.58075 32.0062 2.2688 32.7921 2.2688C33.578 2.2688 34.3318 2.58075 34.8883 3.13627L35.5002 3.7488L36.1121 3.13627C36.6686 2.58075 37.4224 2.2688 38.2083 2.2688C38.9942 2.2688 39.748 2.58075 40.3045 3.13627C40.8567 3.69482 41.1664 4.44891 41.1664 5.23473C41.1664 6.02056 40.8567 6.77465 40.3045 7.3332L35.9025 11.7456C35.8495 11.7982 35.7867 11.8398 35.7177 11.868C35.6487 11.8962 35.5748 11.9105 35.5002 11.9101Z" fill="#F1B720"/>
<path d="M49.6018 11.9101C49.5272 11.9105 49.4533 11.8962 49.3843 11.868C49.3152 11.8398 49.2525 11.7982 49.1995 11.7456L44.7975 7.3332C44.2453 6.77465 43.9355 6.02056 43.9355 5.23473C43.9355 4.44891 44.2453 3.69482 44.7975 3.13627C45.354 2.58075 46.1078 2.2688 46.8937 2.2688C47.6796 2.2688 48.4334 2.58075 48.9899 3.13627L49.6018 3.7488L50.2136 3.13627C50.7701 2.58075 51.524 2.2688 52.3099 2.2688C53.0958 2.2688 53.8496 2.58075 54.4061 3.13627C54.9583 3.69482 55.268 4.44891 55.268 5.23473C55.268 6.02056 54.9583 6.77465 54.4061 7.3332L50.004 11.7456C49.9511 11.7982 49.8883 11.8398 49.8193 11.868C49.7502 11.8962 49.6763 11.9105 49.6018 11.9101Z" fill="#F1B720"/>
</svg>
