<svg width="69" height="69" viewBox="0 0 69 69" fill="none" xmlns="http://www.w3.org/2000/svg">
<rect width="69" height="69" rx="10" fill="#FFF8E5"/>
<path d="M28.8797 27.8749C30.2153 26.2584 32.2373 25.2249 34.5004 25.2249C36.7635 25.2249 38.7854 26.2584 40.121 27.8749C41.0004 28.941 41.5584 30.2352 41.7301 31.6065C41.9018 32.9777 41.68 34.3696 41.0907 35.6196C40.5014 36.8696 39.5687 37.9262 38.4016 38.6663C37.2345 39.4064 35.881 39.7993 34.4991 39.7993C33.1171 39.7993 31.7636 39.4064 30.5965 38.6663C29.4294 37.9262 28.4968 36.8696 27.9074 35.6196C27.3181 34.3696 27.0963 32.9777 27.268 31.6065C27.4397 30.2352 27.9978 28.941 28.8771 27.8749H28.8797ZM44.4379 32.5124C44.4379 30.8376 44.0245 29.2582 43.2931 27.8749H54.3754C55.4296 27.8749 56.4407 28.2937 57.1861 29.0392C57.9316 29.7846 58.3504 30.7957 58.3504 31.8499V33.1749C58.3504 37.3805 55.1545 41.6867 49.5656 43.2025C48.9913 42.1708 48.1517 41.3113 47.1336 40.7131C46.1156 40.1149 44.9562 39.7996 43.7754 39.7999H41.2579C42.2623 38.8705 43.0634 37.7432 43.6107 36.489C44.158 35.2348 44.4397 33.8808 44.4379 32.5124ZM43.7754 42.4499C44.2978 42.4485 44.8153 42.5504 45.2982 42.7496C45.7811 42.9489 46.2199 43.2416 46.5893 43.611C46.9587 43.9804 47.2514 44.4192 47.4507 44.9021C47.6499 45.385 47.7518 45.9025 47.7504 46.4249V47.7499C47.7504 52.9731 42.8214 58.3499 34.5004 58.3499C26.1794 58.3499 21.2504 52.9731 21.2504 47.7499V46.4249C21.249 45.9025 21.3509 45.385 21.5501 44.9021C21.7494 44.4192 22.0421 43.9804 22.4115 43.611C22.7809 43.2416 23.2197 42.9489 23.7026 42.7496C24.1855 42.5504 24.703 42.4485 25.2254 42.4499H43.7754ZM10.6504 33.1749C10.6504 37.3805 13.8463 41.6867 19.4351 43.2025C20.0095 42.1708 20.8491 41.3113 21.8671 40.7131C22.8852 40.1149 24.0446 39.7996 25.2254 39.7999H27.7429C26.7385 38.8705 25.9374 37.7432 25.3901 36.489C24.8428 35.2348 24.5611 33.8808 24.5629 32.5124C24.5629 30.8376 24.9763 29.2582 25.7103 27.8749H14.6254C13.5712 27.8749 12.5601 28.2937 11.8146 29.0392C11.0692 29.7846 10.6504 30.7957 10.6504 31.8499V33.1749ZM31.1879 17.9374C31.1879 16.0046 30.4201 14.151 29.0534 12.7844C27.6868 11.4177 25.8332 10.6499 23.9004 10.6499C21.9676 10.6499 20.114 11.4177 18.7473 12.7844C17.3807 14.151 16.6129 16.0046 16.6129 17.9374C16.6129 19.8702 17.3807 21.7238 18.7473 23.0904C20.114 24.4571 21.9676 25.2249 23.9004 25.2249C25.8332 25.2249 27.6868 24.4571 29.0534 23.0904C30.4201 21.7238 31.1879 19.8702 31.1879 17.9374ZM52.3879 17.9374C52.3879 16.0046 51.6201 14.151 50.2534 12.7844C48.8868 11.4177 47.0332 10.6499 45.1004 10.6499C43.1676 10.6499 41.314 11.4177 39.9474 12.7844C38.5807 14.151 37.8129 16.0046 37.8129 17.9374C37.8129 19.8702 38.5807 21.7238 39.9474 23.0904C41.314 24.4571 43.1676 25.2249 45.1004 25.2249C47.0332 25.2249 48.8868 24.4571 50.2534 23.0904C51.6201 21.7238 52.3879 19.8702 52.3879 17.9374Z" fill="#FFB800"/>
</svg>
