<svg width="69" height="69" viewBox="0 0 69 69" fill="none" xmlns="http://www.w3.org/2000/svg">
<rect width="69" height="69" rx="10" fill="#F4FFDB"/>
<path d="M56.55 22.5556H41.85C41.2002 22.5556 40.5771 22.8072 40.1176 23.2552C39.6581 23.7032 39.4 24.3109 39.4 24.9444V29.6611C39.4 31.0142 38.3031 32.1111 36.95 32.1111C35.5969 32.1111 34.5 31.0142 34.5 29.6611V15.3889C34.5 14.7553 34.2419 14.1477 33.7824 13.6997C33.3229 13.2517 32.6998 13 32.05 13H12.45C11.8002 13 11.1771 13.2517 10.7176 13.6997C10.2581 14.1477 10 14.7553 10 15.3889V53.6111C10 54.2447 10.2581 54.8523 10.7176 55.3003C11.1771 55.7483 11.8002 56 12.45 56H56.55C57.1998 56 57.8229 55.7483 58.2824 55.3003C58.7419 54.8523 59 54.2447 59 53.6111V24.9444C59 24.3109 58.7419 23.7032 58.2824 23.2552C57.8229 22.8072 57.1998 22.5556 56.55 22.5556ZM24.7 22.5556C24.7 21.2362 25.7695 20.1667 27.0889 20.1667H27.2111C28.5305 20.1667 29.6 21.2362 29.6 22.5556C29.6 23.8749 28.5305 24.9444 27.2111 24.9444H27.0889C25.7695 24.9444 24.7 23.8749 24.7 22.5556ZM19.8 41.6667C19.8 42.986 18.7305 44.0556 17.4111 44.0556H17.2889C15.9695 44.0556 14.9 42.986 14.9 41.6667C14.9 40.3473 15.9695 39.2778 17.2889 39.2778H17.4111C18.7305 39.2778 19.8 40.3473 19.8 41.6667ZM19.8 32.1111C19.8 33.4305 18.7305 34.5 17.4111 34.5H17.2889C15.9695 34.5 14.9 33.4305 14.9 32.1111C14.9 30.7918 15.9695 29.7222 17.2889 29.7222H17.4111C18.7305 29.7222 19.8 30.7918 19.8 32.1111ZM19.8 22.5556C19.8 23.8749 18.7305 24.9444 17.4111 24.9444H17.2889C15.9695 24.9444 14.9 23.8749 14.9 22.5556C14.9 21.2362 15.9695 20.1667 17.2889 20.1667H17.4111C18.7305 20.1667 19.8 21.2362 19.8 22.5556ZM29.6 41.6667C29.6 42.986 28.5305 44.0556 27.2111 44.0556H27.0889C25.7695 44.0556 24.7 42.986 24.7 41.6667C24.7 40.3473 25.7695 39.2778 27.0889 39.2778H27.2111C28.5305 39.2778 29.6 40.3473 29.6 41.6667ZM29.6 32.1111C29.6 33.4305 28.5305 34.5 27.2111 34.5H27.0889C25.7695 34.5 24.7 33.4305 24.7 32.1111C24.7 30.7918 25.7695 29.7222 27.0889 29.7222H27.2111C28.5305 29.7222 29.6 30.7918 29.6 32.1111ZM51.65 41.6667C51.65 42.986 50.5805 44.0556 49.2611 44.0556H49.1389C47.8195 44.0556 46.75 42.986 46.75 41.6667C46.75 40.3473 47.8195 39.2778 49.1389 39.2778H49.2611C50.5805 39.2778 51.65 40.3473 51.65 41.6667ZM51.65 32.1111C51.65 33.4305 50.5805 34.5 49.2611 34.5H49.1389C47.8195 34.5 46.75 33.4305 46.75 32.1111C46.75 30.7918 47.8195 29.7222 49.1389 29.7222H49.2611C50.5805 29.7222 51.65 30.7918 51.65 32.1111Z" fill="#739036"/>
</svg>
