<svg width="69" height="69" viewBox="0 0 69 69" fill="none" xmlns="http://www.w3.org/2000/svg">
<rect width="69" height="69" rx="10" fill="#E4F5FF"/>
<path d="M34.5 21.75C37.8815 21.75 41.1245 23.0933 43.5156 25.4844C45.9067 27.8755 47.25 31.1185 47.25 34.5C47.25 37.8448 45.9574 40.8904 43.8495 43.1674C42.2408 44.905 40.875 47.0071 40.875 49.375C40.875 49.9386 40.6511 50.4791 40.2526 50.8776C39.8541 51.2761 39.3136 51.5 38.75 51.5H30.25C29.6864 51.5 29.1459 51.2761 28.7474 50.8776C28.3489 50.4791 28.125 49.9386 28.125 49.375C28.125 47.0071 26.7592 44.905 25.1505 43.1674C23.0426 40.8904 21.75 37.8448 21.75 34.5C21.75 31.1185 23.0933 27.8755 25.4844 25.4844C27.8755 23.0933 31.1185 21.75 34.5 21.75ZM36.625 53.625C37.7986 53.625 38.75 54.5764 38.75 55.75C38.75 56.3136 38.5261 56.8541 38.1276 57.2526C37.7291 57.6511 37.1886 57.875 36.625 57.875H32.375C31.8114 57.875 31.2709 57.6511 30.8724 57.2526C30.4739 56.8541 30.25 56.3136 30.25 55.75C30.25 54.5764 31.2014 53.625 32.375 53.625H36.625ZM51.5 34.5C51.5 33.3264 52.4514 32.375 53.625 32.375H55.75C56.9236 32.375 57.875 33.3264 57.875 34.5C57.875 35.6736 56.9236 36.625 55.75 36.625H53.625C52.4514 36.625 51.5 35.6736 51.5 34.5ZM11.125 34.5C11.125 33.3264 12.0764 32.375 13.25 32.375H15.375C16.5486 32.375 17.5 33.3264 17.5 34.5C17.5 35.6736 16.5486 36.625 15.375 36.625H13.25C12.0764 36.625 11.125 35.6736 11.125 34.5ZM34.5 11.125C35.6736 11.125 36.625 12.0764 36.625 13.25V15.375C36.625 16.5486 35.6736 17.5 34.5 17.5C33.3264 17.5 32.375 16.5486 32.375 15.375V13.25C32.375 12.0764 33.3264 11.125 34.5 11.125ZM17.941 17.9622C18.7757 17.1216 20.1351 17.1208 20.9708 17.9604L22.476 19.4727C23.307 20.3076 23.3031 21.6584 22.4672 22.4884C21.6354 23.3143 20.2929 23.3135 19.4621 22.4867L17.9498 20.9815C17.1143 20.1499 17.1103 18.7987 17.941 17.9622ZM46.5275 22.4725C45.6937 21.6387 45.6921 20.2872 46.5239 19.4515L48.008 17.9604C48.8445 17.1199 50.2046 17.1183 51.0431 17.9569C51.8817 18.7954 51.8801 20.1555 51.0396 20.992L49.5485 22.4761C48.7128 23.3079 47.3613 23.3063 46.5275 22.4725Z" fill="#81A8BD"/>
</svg>
