<svg width="69" height="69" viewBox="0 0 69 69" fill="none" xmlns="http://www.w3.org/2000/svg">
<rect width="69" height="69" rx="10" fill="#B56AFF" fill-opacity="0.08"/>
<path d="M49.2494 39.4165C51.1733 39.4165 53.0549 39.9809 54.6612 41.0397C56.2676 42.0986 57.528 43.6054 58.2864 45.3735C59.0448 47.1416 59.2679 49.0933 58.928 50.987C58.5881 52.8806 57.7002 54.633 56.3743 56.027C55.0483 57.421 53.3425 58.3954 51.4683 58.8296C49.594 59.2637 47.6335 59.1385 45.8297 58.4694C44.0259 57.8003 42.4579 56.6168 41.3201 55.0655C40.1823 53.5141 39.5245 51.663 39.4283 49.7415L39.416 49.2498L39.4283 48.7582C39.5545 46.2385 40.6442 43.8637 42.4722 42.1249C44.3002 40.3862 46.7265 39.4165 49.2494 39.4165ZM46.0707 10.6368C46.494 11.0601 46.7483 11.6233 46.7858 12.2207C46.8234 12.8182 46.6417 13.4088 46.2748 13.8818L46.0707 14.1129L42.8921 17.2915H51.7077C53.5888 17.2914 55.3989 18.0101 56.7676 19.3007C58.1362 20.5912 58.96 22.3559 59.0704 24.2338L59.0827 24.6665V32.0415C59.082 32.6681 58.8421 33.2708 58.4119 33.7264C57.9818 34.182 57.3939 34.4562 56.7684 34.4929C56.1429 34.5296 55.527 34.3261 55.0465 33.9239C54.566 33.5218 54.2572 32.9513 54.1832 32.3291L54.166 32.0415V24.6665C54.1659 24.0644 53.9449 23.4832 53.5448 23.0333C53.1446 22.5833 52.5933 22.2958 51.9953 22.2254L51.7077 22.2082H42.8946L46.0707 25.3868C46.5116 25.8292 46.7676 26.4228 46.7867 27.0471C46.8057 27.6714 46.5864 28.2795 46.1734 28.748C45.7603 29.2165 45.1844 29.5102 44.5626 29.5694C43.9408 29.6286 43.3198 29.449 42.8257 29.0669L42.5946 28.8629L35.2196 21.4879C34.939 21.2136 34.7296 20.875 34.6097 20.5014C34.4897 20.1278 34.4628 19.7306 34.5313 19.3442L34.6198 18.9853L34.7181 18.7296C34.8607 18.4199 35.0623 18.1396 35.3204 17.9085L42.5946 10.6368C43.0556 10.1759 43.6808 9.91703 44.3327 9.91703C44.9845 9.91703 45.6097 10.1759 46.0707 10.6368ZM12.3743 34.4998C12.9765 34.4999 13.5576 34.721 14.0076 35.1211C14.4576 35.5212 14.745 36.0726 14.8155 36.6705L14.8327 36.9582V44.3332C14.8328 44.9353 15.0538 45.5165 15.4539 45.9664C15.8541 46.4164 16.4054 46.7038 17.0034 46.7743L17.291 46.7915H26.1041L22.928 43.6129C22.5047 43.1896 22.2504 42.6264 22.2129 42.0289C22.1753 41.4315 22.357 40.8409 22.7239 40.3679L22.928 40.1368C23.3513 39.7135 23.9145 39.4593 24.5119 39.4217C25.1094 39.3841 25.7 39.5658 26.173 39.9328L26.4041 40.1368L33.7791 47.5118C34.0597 47.786 34.2691 48.1247 34.389 48.4983C34.509 48.8719 34.5359 49.2691 34.4674 49.6555L34.3789 50.0144L34.2806 50.2701C34.1381 50.5821 33.9331 50.8615 33.6783 51.0911L26.4041 58.3629C25.9617 58.8038 25.368 59.0598 24.7437 59.0788C24.1194 59.0979 23.5113 58.8786 23.0428 58.4655C22.5744 58.0524 22.2807 57.4765 22.2215 56.8548C22.1622 56.233 22.3419 55.612 22.7239 55.1179L22.928 54.8868L26.1017 51.7082H17.291C15.4099 51.7083 13.5998 50.9895 12.2311 49.699C10.8625 48.4085 10.0387 46.6437 9.92831 44.7658L9.91602 44.3332V36.9582C9.91602 36.3062 10.175 35.6809 10.636 35.2199C11.0971 34.7588 11.7224 34.4998 12.3743 34.4998ZM19.7493 9.9165C21.6733 9.91651 23.5549 10.4809 25.1612 11.5397C26.7675 12.5986 28.028 14.1054 28.7864 15.8735C29.5448 17.6416 29.7679 19.5933 29.428 21.487C29.0881 23.3806 28.2002 25.133 26.8743 26.527C25.5483 27.921 23.8425 28.8954 21.9683 29.3295C20.094 29.7637 18.1335 29.6385 16.3297 28.9694C14.5259 28.3003 12.9579 27.1168 11.8201 25.5655C10.6823 24.0141 10.0245 22.163 9.92831 20.2415L9.91602 19.7498L9.92831 19.2582C10.0544 16.7385 11.1442 14.3637 12.9722 12.6249C14.8002 10.8862 17.2265 9.9165 19.7493 9.9165Z" fill="#6C5D84"/>
</svg>
